Grade -1 lc.ufo
<glyph name="numbersign" format="2">
  <advance width="1274"/>
  <unicode hex="0023"/>
  <outline>
    <contour>
      <point x="80.83333333333334" y="518.9333333333334" type="line"/>
      <point x="80.83333333333334" y="606.4666666666667" type="line"/>
      <point x="1103.89" y="606.4666666666667" type="line"/>
      <point x="1103.89" y="518.9333333333334" type="line"/>
    </contour>
    <contour>
      <point x="170.43666666666667" y="875.25" type="line"/>
      <point x="170.43666666666667" y="962.7833333333333" type="line"/>
      <point x="1193.4933333333333" y="962.7833333333333" type="line"/>
      <point x="1193.4933333333333" y="875.25" type="line"/>
    </contour>
    <contour>
      <point x="141.98666666666668" y="-23.436666666666667" type="line"/>
      <point x="686.1566666666666" y="1533.4566666666667" type="line"/>
      <point x="750.2933333333333" y="1516.49" type="line"/>
      <point x="206.38666666666666" y="-40.40333333333333" type="line"/>
    </contour>
    <contour>
      <point x="541.3433333333332" y="-23.436666666666667" type="line"/>
      <point x="1085.5333333333333" y="1533.4566666666667" type="line"/>
      <point x="1149.9333333333334" y="1516.49" type="line"/>
      <point x="605.7433333333333" y="-40.40333333333333" type="line"/>
    </contour>
  </outline>
</glyph>
<glyph name="percent" format="2">
  <advance width="1934"/>
  <unicode hex="0025"/>
  <outline>
    <contour>
      <point x="77.14333333333333" y="1068.1" type="qcurve" smooth="yes"/>
      <point x="77.14333333333333" y="1265.8333333333333"/>
      <point x="279.9433333333333" y="1522.0"/>
      <point x="450.5833333333333" y="1522.0" type="qcurve" smooth="yes"/>
      <point x="622.2233333333334" y="1522.0"/>
      <point x="827.2866666666667" y="1275.2333333333333"/>
      <point x="827.2866666666667" y="1071.2333333333333" type="qcurve" smooth="yes"/>
      <point x="827.2866666666667" y="874.5"/>
      <point x="624.77" y="612.3333333333334"/>
      <point x="454.11" y="612.3333333333334" type="qcurve" smooth="yes"/>
      <point x="282.47" y="612.3333333333334"/>
      <point x="77.14333333333333" y="863.8166666666667"/>
    </contour>
    <contour>
      <point x="173.11333333333334" y="1078.65" type="qcurve" smooth="yes"/>
      <point x="173.83" y="899.7"/>
      <point x="326.13666666666666" y="687.6999999999999"/>
      <point x="450.3" y="687.6999999999999" type="qcurve" smooth="yes"/>
      <point x="577.1233333333333" y="687.6999999999999"/>
      <point x="728.4866666666667" y="888.5833333333334"/>
      <point x="728.4866666666667" y="1071.95" type="qcurve" smooth="yes"/>
      <point x="728.4866666666667" y="1247.05"/>
      <point x="576.4433333333333" y="1444.0666666666666"/>
      <point x="450.5833333333333" y="1444.0666666666666" type="qcurve" smooth="yes"/>
      <point x="321.32666666666665" y="1444.0666666666666"/>
      <point x="172.11333333333334" y="1256.8833333333334"/>
    </contour>
    <contour>
      <point x="398.07000000000005" y="7.800000000000001" type="line"/>
      <point x="1468.41" y="1523.2666666666667" type="line"/>
      <point x="1530.8533333333332" y="1484.1866666666665" type="line"/>
      <point x="460.5133333333333" y="-32.71333333333334" type="line"/>
    </contour>
    <contour>
      <point x="1106.76" y="420.81666666666666" type="qcurve" smooth="yes"/>
      <point x="1106.76" y="617.8333333333334"/>
      <point x="1309.5600000000002" y="879.6666666666666"/>
      <point x="1480.1999999999998" y="879.6666666666666" type="qcurve" smooth="yes"/>
      <point x="1651.84" y="879.6666666666666"/>
      <point x="1856.9033333333334" y="627.2333333333333"/>
      <point x="1856.9033333333334" y="423.95" type="qcurve" smooth="yes"/>
      <point x="1856.9033333333334" y="232.88333333333333"/>
      <point x="1655.1033333333332" y="-30.0"/>
      <point x="1483.7266666666667" y="-30.0" type="qcurve" smooth="yes"/>
      <point x="1312.1066666666668" y="-30.0"/>
      <point x="1106.76" y="222.2"/>
    </contour>
    <contour>
      <point x="1202.73" y="430.65" type="qcurve" smooth="yes"/>
      <point x="1203.4466666666665" y="258.0833333333333"/>
      <point x="1356.47" y="45.65"/>
      <point x="1479.9166666666665" y="45.65" type="qcurve" smooth="yes"/>
      <point x="1607.4566666666667" y="45.65"/>
      <point x="1758.1033333333332" y="246.96666666666667"/>
      <point x="1758.1033333333332" y="424.6666666666667" type="qcurve" smooth="yes"/>
      <point x="1758.1033333333332" y="599.7666666666667"/>
      <point x="1606.06" y="801.45"/>
      <point x="1480.1999999999998" y="801.45" type="qcurve" smooth="yes"/>
      <point x="1350.9633333333334" y="801.45"/>
      <point x="1202.73" y="608.8833333333333"/>
    </contour>
  </outline>
</glyph>
<glyph name="asterisk" format="2">
  <advance width="842"/>
  <unicode hex="002A"/>
  <outline>
    <contour>
      <point x="421.0233333333333" y="694.63" type="qcurve" smooth="yes"/>
      <point x="385.13666666666666" y="694.63"/>
      <point x="355.3433333333333" y="752.0233333333334"/>
      <point x="364.57000000000005" y="795.4133333333333" type="qcurve" smooth="yes"/>
      <point x="411.25" y="1098.94" type="line"/>
      <point x="408.96666666666664" y="1100.5066666666667" type="line"/>
      <point x="169.47" y="908.4599999999999" type="line" smooth="yes"/>
      <point x="139.54999999999998" y="882.5766666666666"/>
      <point x="72.55333333333333" y="873.88"/>
      <point x="53.81666666666667" y="907.2" type="qcurve" smooth="yes"/>
      <point x="34.1" y="940.2566666666667"/>
      <point x="74.72" y="993.35"/>
      <point x="112.30000000000001" y="1006.1966666666667" type="qcurve" smooth="yes"/>
      <point x="398.62666666666667" y="1116.9599999999998" type="line"/>
      <point x="398.34333333333336" y="1120.79" type="line"/>
      <point x="112.30000000000001" y="1232.12" type="line" smooth="yes"/>
      <point x="74.72" y="1244.9466666666665"/>
      <point x="34.1" y="1298.7566666666667"/>
      <point x="53.81666666666667" y="1332.0766666666668" type="qcurve" smooth="yes"/>
      <point x="72.55333333333333" y="1364.4166666666667"/>
      <point x="139.54999999999998" y="1356.4566666666667"/>
      <point x="169.47" y="1330.5533333333333" type="qcurve" smooth="yes"/>
      <point x="408.4" y="1137.79" type="line"/>
      <point x="410.25" y="1140.0733333333333" type="line"/>
      <point x="364.57000000000005" y="1443.6000000000001" type="line" smooth="yes"/>
      <point x="355.3433333333333" y="1487.1233333333334"/>
      <point x="385.7033333333333" y="1544.3833333333334"/>
      <point x="421.0233333333333" y="1544.3833333333334" type="qcurve" smooth="yes"/>
      <point x="457.62666666666667" y="1544.3833333333334"/>
      <point x="486.7033333333333" y="1486.2733333333333"/>
      <point x="478.1933333333333" y="1443.6000000000001" type="qcurve" smooth="yes"/>
      <point x="430.81666666666666" y="1140.0733333333333" type="line"/>
      <point x="433.36333333333334" y="1137.79" type="line"/>
      <point x="672.86" y="1330.5533333333333" type="line" smooth="yes"/>
      <point x="703.2133333333333" y="1356.4566666666667"/>
      <point x="770.23" y="1364.4166666666667"/>
      <point x="788.23" y="1331.8133333333335" type="qcurve" smooth="yes"/>
      <point x="807.9466666666666" y="1298.7566666666667"/>
      <point x="767.61" y="1244.9466666666665"/>
      <point x="729.7466666666667" y="1232.12" type="qcurve" smooth="yes"/>
      <point x="443.42" y="1121.3366666666666" type="line"/>
      <point x="443.7033333333333" y="1117.5066666666667" type="line"/>
      <point x="729.7466666666667" y="1006.1966666666667" type="line" smooth="yes"/>
      <point x="767.61" y="993.35"/>
      <point x="807.9466666666666" y="940.2566666666667"/>
      <point x="788.23" y="906.22" type="qcurve" smooth="yes"/>
      <point x="770.23" y="873.88"/>
      <point x="703.2133333333333" y="882.5766666666666"/>
      <point x="672.86" y="908.4599999999999" type="qcurve" smooth="yes"/>
      <point x="433.64666666666665" y="1100.5066666666667" type="line"/>
      <point x="432.08" y="1098.94" type="line"/>
      <point x="478.1933333333333" y="795.4133333333333" type="line" smooth="yes"/>
      <point x="486.42" y="752.0233333333334"/>
      <point x="458.76" y="694.63"/>
    </contour>
  </outline>
</glyph>
<glyph name="slash" format="2">
  <advance width="634"/>
  <unicode hex="002F"/>
  <outline>
    <contour>
      <point x="-42.64333333333333" y="-133.76666666666668" type="line"/>
      <point x="580.2133333333334" y="1548.55" type="line"/>
      <point x="663.54" y="1526.5333333333333" type="line"/>
      <point x="40.68333333333334" y="-156.5" type="line"/>
    </contour>
  </outline>
</glyph>
<glyph name="zero" format="2">
  <advance width="1073"/>
  <unicode hex="0030"/>
  <outline>
    <contour>
      <point x="76.62666666666667" y="748.15" type="qcurve" smooth="yes"/>
      <point x="76.62666666666667" y="1096.7333333333333"/>
      <point x="327.0866666666667" y="1520.0"/>
      <point x="537.6066666666667" y="1520.0" type="qcurve" smooth="yes"/>
      <point x="750.9766666666667" y="1520.0"/>
      <point x="996.5866666666666" y="1099.15"/>
      <point x="996.5866666666666" y="752.5666666666667" type="qcurve" smooth="yes"/>
      <point x="996.5866666666666" y="419.1"/>
      <point x="754.5233333333333" y="-27.016666666666666"/>
      <point x="540.4366666666667" y="-27.016666666666666" type="qcurve" smooth="yes"/>
      <point x="325.52000000000004" y="-27.016666666666666"/>
      <point x="76.62666666666667" y="396.1333333333333"/>
    </contour>
    <contour>
      <point x="185.56" y="767.7" type="qcurve" smooth="yes"/>
      <point x="185.84333333333333" y="435.85"/>
      <point x="377.2033333333333" y="45.21333333333333"/>
      <point x="536.3433333333334" y="45.21333333333333" type="qcurve" smooth="yes"/>
      <point x="700.9533333333333" y="45.21333333333333"/>
      <point x="885.6733333333333" y="415.46666666666664"/>
      <point x="887.6533333333333" y="752.45" type="qcurve" smooth="yes"/>
      <point x="889.6533333333333" y="1077.8833333333334"/>
      <point x="698.2733333333333" y="1437.3799999999999"/>
      <point x="537.91" y="1437.3799999999999" type="qcurve" smooth="yes"/>
      <point x="371.26000000000005" y="1437.3799999999999"/>
      <point x="184.56" y="1097.2666666666667"/>
    </contour>
  </outline>
</glyph>
<glyph name="seven" format="2">
  <advance width="927"/>
  <unicode hex="0037"/>
  <outline>
    <contour>
      <point x="48.25" y="1136.6833333333334" type="line"/>
      <point x="54.403333333333336" y="1500.0" type="line"/>
      <point x="910.37" y="1500.0" type="line"/>
      <point x="910.37" y="1420.4666666666667" type="line"/>
      <point x="586.1633333333333" y="639.1966666666667" type="line"/>
      <point x="328.5533333333333" y="-33.983333333333334" type="line"/>
      <point x="232.44666666666666" y="-33.983333333333334" type="line"/>
      <point x="232.44666666666666" y="16.8" type="line"/>
      <point x="511.3433333333333" y="667.6333333333333" type="line"/>
      <point x="806.63" y="1383.5733333333333" type="line"/>
      <point x="788.3366666666667" y="1400.8999999999999" type="line"/>
      <point x="149.51333333333332" y="1400.8999999999999" type="line"/>
      <point x="117.79333333333332" y="1136.6833333333334" type="line"/>
    </contour>
  </outline>
</glyph>
<glyph name="eight" format="2">
  <advance width="1014"/>
  <unicode hex="0038"/>
  <outline>
    <contour>
      <point x="53.34666666666667" y="367.43333333333334" type="qcurve" smooth="yes"/>
      <point x="54.78" y="542.2333333333332"/>
      <point x="284.32666666666665" y="771.1666666666666"/>
      <point x="435.3933333333333" y="836.6666666666666" type="qcurve"/>
      <point x="484.6666666666667" y="798.8833333333333" type="line"/>
      <point x="331.92" y="726.8166666666667"/>
      <point x="148.34666666666666" y="521.4833333333333"/>
      <point x="146.91333333333333" y="375.35" type="qcurve" smooth="yes"/>
      <point x="144.04666666666665" y="232.33333333333334"/>
      <point x="338.95666666666665" y="44.1"/>
      <point x="506.89666666666665" y="44.1" type="qcurve" smooth="yes"/>
      <point x="658.2366666666667" y="44.1"/>
      <point x="859.7333333333333" y="225.43333333333334"/>
      <point x="862.6" y="371.1666666666667" type="qcurve" smooth="yes"/>
      <point x="864.0333333333333" y="511.6666666666667"/>
      <point x="674.9933333333333" y="679.9466666666667"/>
      <point x="499.45666666666665" y="763.8166666666667" type="qcurve" smooth="yes"/>
      <point x="308.8933333333334" y="855.1733333333334"/>
      <point x="137.3733333333333" y="1038.65"/>
      <point x="138.80666666666664" y="1176.75" type="qcurve" smooth="yes"/>
      <point x="140.23999999999998" y="1337.1666666666667"/>
      <point x="374.1833333333333" y="1522.6533333333332"/>
      <point x="523.9433333333333" y="1522.6533333333332" type="qcurve" smooth="yes"/>
      <point x="685.0733333333333" y="1522.6533333333332"/>
      <point x="882.4866666666667" y="1346.4166666666667"/>
      <point x="882.4866666666667" y="1211.7833333333333" type="qcurve" smooth="yes"/>
      <point x="882.4866666666667" y="1079.35"/>
      <point x="720.76" y="886.1333333333333"/>
      <point x="573.69" y="804.1333333333333" type="qcurve"/>
      <point x="515.6266666666667" y="841.6333333333333" type="line"/>
      <point x="654.4133333333333" y="919.3833333333333"/>
      <point x="789.5333333333333" y="1089.4666666666667"/>
      <point x="789.5333333333333" y="1198.0333333333333" type="qcurve" smooth="yes"/>
      <point x="789.5333333333333" y="1314.2166666666667"/>
      <point x="640.9266666666666" y="1449.1833333333334"/>
      <point x="512.9466666666666" y="1449.1833333333334" type="qcurve" smooth="yes"/>
      <point x="397.75333333333333" y="1449.1833333333334"/>
      <point x="229.52333333333334" y="1310.6666666666667"/>
      <point x="228.09" y="1197.0333333333333" type="qcurve" smooth="yes"/>
      <point x="226.65666666666667" y="1080.3833333333334"/>
      <point x="371.76" y="939.9"/>
      <point x="560.1066666666667" y="849.9" type="qcurve" smooth="yes"/>
      <point x="744.21" y="761.9"/>
      <point x="962.97" y="551.4"/>
      <point x="962.97" y="386.1333333333333" type="qcurve" smooth="yes"/>
      <point x="962.97" y="211.3"/>
      <point x="701.07" y="-27.733333333333334"/>
      <point x="506.56333333333333" y="-27.733333333333334" type="qcurve" smooth="yes"/>
      <point x="291.56666666666666" y="-27.733333333333334"/>
      <point x="50.480000000000004" y="205.82"/>
    </contour>
  </outline>
</glyph>
<glyph name="nine" format="2">
  <advance width="1055"/>
  <unicode hex="0039"/>
  <outline>
    <contour>
      <point x="60.83333333333333" y="1022.5433333333333" type="qcurve" smooth="yes"/>
      <point x="63.699999999999996" y="1250.8233333333333"/>
      <point x="313.58666666666664" y="1519.7566666666667"/>
      <point x="499.4133333333333" y="1519.7566666666667" type="qcurve" smooth="yes"/>
      <point x="712.8366666666666" y="1519.7566666666667"/>
      <point x="982.25" y="1157.3300000000002"/>
      <point x="978.6666666666667" y="851.68" type="qcurve" smooth="yes"/>
      <point x="974.3666666666667" y="510.78000000000003"/>
      <point x="595.28" y="26.123333333333335"/>
      <point x="273.83333333333337" y="-68.94333333333333" type="qcurve"/>
      <point x="248.78333333333333" y="-1.6600000000000004" type="line"/>
      <point x="521.72" y="84.55666666666666"/>
      <point x="863.8399999999999" y="506.1066666666666"/>
      <point x="867.4233333333333" y="857.5066666666667" type="qcurve" smooth="yes"/>
      <point x="870.29" y="1144.89"/>
      <point x="660.2066666666667" y="1448.8899999999999"/>
      <point x="500.39" y="1448.8899999999999" type="qcurve" smooth="yes"/>
      <point x="350.4166666666667" y="1448.8899999999999"/>
      <point x="171.81666666666666" y="1234.0533333333333"/>
      <point x="169.66666666666666" y="1035.8566666666668" type="qcurve" smooth="yes"/>
      <point x="167.51666666666668" y="849.0233333333334"/>
      <point x="349.6433333333334" y="659.8633333333333"/>
      <point x="494.8333333333333" y="659.8633333333333" type="qcurve" smooth="yes"/>
      <point x="549.9300000000001" y="659.8633333333333"/>
      <point x="659.9766666666667" y="693.9833333333333"/>
      <point x="691.3633333333333" y="712.7033333333334" type="qcurve"/>
      <point x="711.4466666666666" y="664.8733333333333" type="line"/>
      <point x="677.25" y="630.3066666666666"/>
      <point x="547.5233333333334" y="575.5566666666667"/>
      <point x="464.8466666666667" y="575.5566666666667" type="qcurve" smooth="yes"/>
      <point x="287.83333333333337" y="575.5566666666667"/>
      <point x="57.96666666666666" y="818.1833333333333"/>
    </contour>
  </outline>
</glyph>
<glyph name="A" format="2">
  <advance width="1486"/>
  <unicode hex="0041"/>
  <outline>
    <contour>
      <point x="-36.483333333333334" y="0.0" type="line"/>
      <point x="-36.483333333333334" y="62.653333333333336" type="line"/>
      <point x="155.33333333333334" y="97.65333333333334" type="line"/>
      <point x="329.25333333333333" y="546.83" type="line"/>
      <point x="692.4066666666666" y="1508.0" type="line"/>
      <point x="782.8133333333333" y="1508.0" type="line"/>
      <point x="1136.8233333333335" y="556.25" type="line"/>
      <point x="1314.9833333333333" y="97.63333333333334" type="line"/>
      <point x="1521.8833333333332" y="62.653333333333336" type="line"/>
      <point x="1521.8833333333332" y="0.0" type="line"/>
      <point x="987.1866666666666" y="0.0" type="line"/>
      <point x="987.9033333333333" y="62.653333333333336" type="line"/>
      <point x="1200.2033333333334" y="97.29666666666667" type="line"/>
      <point x="1039.0233333333333" y="529.9033333333333" type="line"/>
      <point x="729.74" y="1362.6733333333334" type="line"/>
      <point x="405.7033333333333" y="520.88" type="line"/>
      <point x="251.26666666666668" y="96.31666666666666" type="line"/>
      <point x="460.85" y="62.653333333333336" type="line"/>
      <point x="460.85" y="0.0" type="line"/>
    </contour>
    <contour>
      <point x="737.2" y="557.6166666666667" type="line"/>
      <point x="1081.68" y="564.3000000000001" type="line"/>
      <point x="1106.7866666666666" y="488.73333333333335" type="line"/>
      <point x="737.2" y="488.0166666666667" type="line"/>
    </contour>
    <contour>
      <point x="353.25" y="487.3" type="line"/>
      <point x="379.28333333333336" y="563.3000000000001" type="line"/>
      <point x="737.2" y="557.6166666666667" type="line"/>
      <point x="737.2" y="488.0166666666667" type="line"/>
    </contour>
  </outline>
</glyph>
<glyph name="I" format="2">
  <advance width="742"/>
  <unicode hex="0049"/>
  <outline>
    <contour>
      <point x="85.58" y="0.0" type="line"/>
      <point x="85.58" y="62.653333333333336" type="line"/>
      <point x="316.7133333333333" y="97.65333333333334" type="line"/>
      <point x="318.7133333333333" y="754.0" type="line"/>
      <point x="316.7133333333333" y="1400.1366666666665" type="line"/>
      <point x="85.58" y="1434.1366666666665" type="line"/>
      <point x="85.58" y="1500.0" type="line"/>
      <point x="655.9799999999999" y="1500.0" type="line"/>
      <point x="655.9799999999999" y="1434.1366666666665" type="line"/>
      <point x="424.8466666666667" y="1400.1366666666665" type="line"/>
      <point x="422.8466666666667" y="754.0" type="line"/>
      <point x="424.8466666666667" y="97.91666666666667" type="line"/>
      <point x="655.9799999999999" y="62.653333333333336" type="line"/>
      <point x="655.9799999999999" y="0.0" type="line"/>
    </contour>
  </outline>
</glyph>
<glyph name="J" format="2">
  <advance width="729"/>
  <unicode hex="004A"/>
  <outline>
    <contour>
      <point x="22.043333333333333" y="-188.95" type="qcurve"/>
      <point x="22.043333333333333" y="-105.51666666666667" type="line"/>
      <point x="41.16" y="-107.95"/>
      <point x="86.42666666666666" y="-108.1"/>
      <point x="115.82666666666667" y="-106.68333333333334" type="qcurve" smooth="yes"/>
      <point x="232.82666666666665" y="-103.85"/>
      <point x="318.54333333333335" y="12.266666666666666"/>
      <point x="318.54333333333335" y="134.21666666666667" type="qcurve" smooth="yes"/>
      <point x="319.41" y="776.6666666666666" type="line"/>
      <point x="316.7133333333333" y="1400.1366666666665" type="line"/>
      <point x="87.38000000000001" y="1434.1366666666665" type="line"/>
      <point x="87.38000000000001" y="1500.0" type="line"/>
      <point x="643.5500000000001" y="1500.0" type="line"/>
      <point x="643.5500000000001" y="1434.1366666666665" type="line"/>
      <point x="424.8066666666667" y="1400.1366666666665" type="line"/>
      <point x="422.8066666666667" y="776.6666666666666" type="line"/>
      <point x="428.99333333333334" y="166.78333333333333" type="line" smooth="yes"/>
      <point x="430.8233333333333" y="-21.833333333333332"/>
      <point x="279.5433333333333" y="-192.83333333333334"/>
      <point x="145.14333333333332" y="-194.81666666666666" type="qcurve" smooth="yes"/>
      <point x="92.59333333333333" y="-195.66666666666666"/>
      <point x="43.47666666666666" y="-192.38333333333333"/>
    </contour>
  </outline>
</glyph>
<glyph name="K" format="2">
  <advance width="1446"/>
  <unicode hex="004B"/>
  <outline>
    <contour>
      <point x="85.38" y="0.0" type="line"/>
      <point x="85.38" y="62.653333333333336" type="line"/>
      <point x="306.7133333333333" y="97.65333333333334" type="line"/>
      <point x="308.7133333333333" y="754.0" type="line"/>
      <point x="306.7133333333333" y="1400.1366666666665" type="line"/>
      <point x="85.38" y="1434.1366666666665" type="line"/>
      <point x="85.38" y="1500.0" type="line"/>
      <point x="640.5133333333333" y="1500.0" type="line"/>
      <point x="640.5133333333333" y="1434.1366666666665" type="line"/>
      <point x="414.8466666666667" y="1400.1366666666665" type="line"/>
      <point x="412.8466666666667" y="754.0" type="line"/>
      <point x="414.8466666666667" y="97.65333333333334" type="line"/>
      <point x="643.1466666666666" y="62.653333333333336" type="line"/>
      <point x="643.1466666666666" y="0.0" type="line"/>
    </contour>
    <contour>
      <point x="364.24333333333334" y="501.40666666666664" type="line"/>
      <point x="364.30333333333334" y="605.0799999999999" type="line"/>
      <point x="1097.6933333333334" y="1396.45" type="line"/>
      <point x="924.12" y="1434.1366666666665" type="line"/>
      <point x="924.12" y="1500.0" type="line"/>
      <point x="1399.4666666666667" y="1500.0" type="line"/>
      <point x="1399.4666666666667" y="1434.1366666666665" type="line"/>
      <point x="1209.6266666666666" y="1396.45" type="line"/>
      <point x="692.7333333333333" y="847.9133333333333" type="line"/>
      <point x="672.44" y="826.4166666666666" type="line"/>
    </contour>
    <contour>
      <point x="624.83" y="824.31" type="line"/>
      <point x="693.7" y="897.57" type="line"/>
      <point x="1294.6833333333332" y="97.63333333333334" type="line"/>
      <point x="1488.7266666666667" y="62.653333333333336" type="line"/>
      <point x="1488.7266666666667" y="0.0" type="line"/>
      <point x="973.0766666666667" y="0.0" type="line"/>
      <point x="973.0766666666667" y="62.653333333333336" type="line"/>
      <point x="1170.1566666666668" y="97.63333333333334" type="line"/>
    </contour>
  </outline>
</glyph>
<glyph name="L" format="2">
  <advance width="1232"/>
  <unicode hex="004C"/>
  <outline>
    <contour>
      <point x="85.38" y="0.0" type="line"/>
      <point x="85.38" y="62.653333333333336" type="line"/>
      <point x="307.43" y="96.86333333333333" type="line"/>
      <point x="308.7133333333333" y="754.0" type="line"/>
      <point x="306.7133333333333" y="1400.1366666666665" type="line"/>
      <point x="72.48" y="1434.1366666666665" type="line"/>
      <point x="72.48" y="1500.0" type="line"/>
      <point x="677.3533333333332" y="1500.0" type="line"/>
      <point x="677.3533333333332" y="1434.1366666666665" type="line"/>
      <point x="414.8466666666667" y="1400.1366666666665" type="line"/>
      <point x="412.8466666666667" y="754.0" type="line"/>
      <point x="413.4133333333333" y="98.37" type="line"/>
      <point x="442.4233333333333" y="71.45" type="line"/>
      <point x="1045.5766666666668" y="71.45" type="line"/>
      <point x="1138.94" y="411.15000000000003" type="line"/>
      <point x="1210.1166666666668" y="411.15000000000003" type="line"/>
      <point x="1160.1533333333334" y="0.0" type="line"/>
    </contour>
  </outline>
</glyph>
<glyph name="N" format="2">
  <advance width="1609"/>
  <unicode hex="004E"/>
  <outline>
    <contour>
      <point x="96.84666666666666" y="0.0" type="line"/>
      <point x="96.84666666666666" y="62.653333333333336" type="line"/>
      <point x="306.4733333333333" y="97.63333333333334" type="line"/>
      <point x="308.4533333333333" y="753.2833333333333" type="line"/>
      <point x="306.4733333333333" y="1400.1366666666665" type="line"/>
      <point x="96.84666666666666" y="1434.1366666666665" type="line"/>
      <point x="96.84666666666666" y="1500.0" type="line"/>
      <point x="453.56" y="1500.0" type="line"/>
      <point x="860.45" y="815.03" type="line"/>
      <point x="1239.55" y="194.49" type="line"/>
      <point x="1242.2466666666667" y="751.85" type="line"/>
      <point x="1238.0766666666666" y="1400.1366666666665" type="line"/>
      <point x="998.7366666666667" y="1434.1366666666665" type="line"/>
      <point x="998.7366666666667" y="1500.0" type="line"/>
      <point x="1536.7866666666666" y="1500.0" type="line"/>
      <point x="1536.7866666666666" y="1434.1366666666665" type="line"/>
      <point x="1325.0300000000002" y="1400.1366666666665" type="line"/>
      <point x="1323.0300000000002" y="753.2833333333333" type="line"/>
      <point x="1322.6333333333334" y="-2.9466666666666668" type="line"/>
      <point x="1237.2233333333334" y="-2.9466666666666668" type="line"/>
      <point x="766.2666666666668" y="774.9533333333333" type="line"/>
      <point x="391.27666666666664" y="1391.4166666666665" type="line"/>
      <point x="389.27666666666664" y="754.7166666666667" type="line"/>
      <point x="393.4266666666667" y="97.63333333333334" type="line"/>
      <point x="626.39" y="62.653333333333336" type="line"/>
      <point x="626.39" y="0.0" type="line"/>
    </contour>
  </outline>
</glyph>
<glyph name="O" format="2">
  <advance width="1653"/>
  <unicode hex="004F"/>
  <outline>
    <contour>
      <point x="83.26333333333334" y="737.08" type="qcurve" smooth="yes"/>
      <point x="83.26333333333334" y="1068.04"/>
      <point x="491.72" y="1520.0"/>
      <point x="826.3" y="1520.0" type="qcurve" smooth="yes"/>
      <point x="1160.88" y="1520.0"/>
      <point x="1569.3166666666668" y="1097.04"/>
      <point x="1569.3166666666668" y="752.08" type="qcurve" smooth="yes"/>
      <point x="1569.3166666666668" y="423.12"/>
      <point x="1164.86" y="-30.82"/>
      <point x="830.26" y="-30.82" type="qcurve" smooth="yes"/>
      <point x="503.62" y="-30.82"/>
      <point x="83.26333333333334" y="396.14"/>
    </contour>
    <contour>
      <point x="194.45333333333332" y="776.8133333333334" type="qcurve" smooth="yes"/>
      <point x="194.45333333333332" y="459.4866666666667"/>
      <point x="546.2" y="52.42666666666666"/>
      <point x="830.43" y="52.42666666666666" type="qcurve" smooth="yes"/>
      <point x="1130.2933333333333" y="52.42666666666666"/>
      <point x="1458.8633333333335" y="421.07"/>
      <point x="1458.8633333333335" y="747.9466666666667" type="qcurve" smooth="yes"/>
      <point x="1458.8633333333335" y="1045.1433333333332"/>
      <point x="1117.64" y="1434.4866666666667"/>
      <point x="830.43" y="1434.4866666666667" type="qcurve" smooth="yes"/>
      <point x="528.4166666666666" y="1434.4866666666667"/>
      <point x="194.45333333333332" y="1073.8433333333332"/>
    </contour>
  </outline>
</glyph>
<glyph name="V" format="2">
  <advance width="1451"/>
  <unicode hex="0056"/>
  <outline>
    <contour>
      <point x="-34.276666666666664" y="1434.1566666666668" type="line"/>
      <point x="-34.276666666666664" y="1500.0" type="line"/>
      <point x="501.12666666666667" y="1500.0" type="line"/>
      <point x="501.12666666666667" y="1434.1566666666668" type="line"/>
      <point x="287.96" y="1398.2933333333333" type="line"/>
      <point x="508.96666666666664" y="784.4399999999999" type="line"/>
      <point x="739.7133333333334" y="130.5066666666667" type="line"/>
      <point x="981.2966666666667" y="798.2366666666667" type="line"/>
      <point x="1197.7566666666667" y="1400.1566666666668" type="line"/>
      <point x="982.65" y="1434.1566666666668" type="line"/>
      <point x="982.65" y="1500.0" type="line"/>
      <point x="1490.3733333333334" y="1500.0" type="line"/>
      <point x="1490.3733333333334" y="1434.1566666666668" type="line"/>
      <point x="1291.0966666666668" y="1398.82" type="line"/>
      <point x="1058.3566666666666" y="766.5866666666667" type="line"/>
      <point x="775.0033333333333" y="-7.283333333333333" type="line"/>
      <point x="677.7866666666667" y="-7.283333333333333" type="line"/>
      <point x="407.09999999999997" y="749.72" type="line"/>
      <point x="168.61666666666667" y="1398.82" type="line"/>
    </contour>
  </outline>
</glyph>
<glyph name="Y" format="2">
  <advance width="1296"/>
  <unicode hex="0059"/>
  <outline>
    <contour>
      <point x="-43.733333333333334" y="1434.1366666666665" type="line"/>
      <point x="-43.733333333333334" y="1500.0" type="line"/>
      <point x="483.99" y="1500.0" type="line"/>
      <point x="483.99" y="1434.1366666666665" type="line"/>
      <point x="290.38666666666666" y="1399.8733333333334" type="line"/>
      <point x="479.7966666666666" y="1044.61" type="line"/>
      <point x="663.31" y="718.86" type="line"/>
      <point x="861.0433333333333" y="1073.5433333333333" type="line"/>
      <point x="1039.8500000000001" y="1401.7166666666667" type="line"/>
      <point x="832.35" y="1434.1366666666665" type="line"/>
      <point x="832.35" y="1500.0" type="line"/>
      <point x="1339.6266666666668" y="1500.0" type="line"/>
      <point x="1339.6266666666668" y="1434.1366666666665" type="line"/>
      <point x="1138.9433333333334" y="1401.98" type="line"/>
      <point x="925.69" y="1029.7566666666667" type="line"/>
      <point x="703.7166666666667" y="631.9333333333333" type="line"/>
      <point x="704.2833333333334" y="97.65333333333334" type="line"/>
      <point x="957.1166666666667" y="62.653333333333336" type="line"/>
      <point x="957.1166666666667" y="0.0" type="line"/>
      <point x="339.68" y="0.0" type="line"/>
      <point x="339.68" y="62.653333333333336" type="line"/>
      <point x="596.15" y="97.65333333333334" type="line"/>
      <point x="597.4333333333333" y="621.9166666666666" type="line"/>
      <point x="393.75" y="996.4066666666668" type="line"/>
      <point x="166.0" y="1402.2433333333333" type="line"/>
    </contour>
  </outline>
</glyph>
<glyph name="bracketright" format="2">
  <advance width="610"/>
  <unicode hex="005D"/>
  <outline>
    <contour>
      <point x="53.35" y="-480.0" type="line"/>
      <point x="53.35" y="-404.0" type="line"/>
      <point x="368.4833333333333" y="-390.73333333333335" type="line"/>
      <point x="373.31666666666666" y="508.71666666666664" type="line"/>
      <point x="368.4833333333333" y="1410.0166666666667" type="line"/>
      <point x="53.35" y="1423.2833333333333" type="line"/>
      <point x="53.35" y="1500.0" type="line"/>
      <point x="477.8" y="1500.0" type="line"/>
      <point x="477.8" y="1432.1666666666667" type="line"/>
      <point x="465.9666666666667" y="1412.1666666666667" type="line"/>
      <point x="462.56666666666666" y="508.71666666666664" type="line"/>
      <point x="465.9666666666667" y="-392.1666666666667" type="line"/>
      <point x="479.23333333333335" y="-412.1666666666667" type="line"/>
      <point x="479.23333333333335" y="-480.0" type="line"/>
    </contour>
  </outline>
</glyph>
<glyph name="c" format="2">
  <advance width="996"/>
  <unicode hex="0063"/>
  <outline>
    <contour>
      <point x="66.58666666666666" y="487.84333333333336" type="qcurve" smooth="yes"/>
      <point x="66.58666666666666" y="716.7666666666667"/>
      <point x="337.4533333333333" y="1020.5066666666668"/>
      <point x="549.5366666666666" y="1020.5066666666668" type="qcurve" smooth="yes"/>
      <point x="643.85" y="1020.5066666666668"/>
      <point x="770.1233333333333" y="974.1366666666667"/>
      <point x="806.5966666666667" y="935.2166666666667" type="qcurve"/>
      <point x="830.83" y="1008.27" type="line"/>
      <point x="893.32" y="1008.27" type="line"/>
      <point x="900.5866666666666" y="671.8566666666667" type="line"/>
      <point x="836.7933333333333" y="671.8566666666667" type="line"/>
      <point x="814.9366666666667" y="752.1266666666667" type="line" smooth="yes"/>
      <point x="787.5733333333333" y="852.8733333333333"/>
      <point x="658.9933333333333" y="948.8633333333333"/>
      <point x="554.9300000000001" y="948.8633333333333" type="qcurve" smooth="yes"/>
      <point x="382.1533333333333" y="948.8633333333333"/>
      <point x="176.15333333333334" y="717.8266666666666"/>
      <point x="176.87" y="500.88666666666666" type="qcurve" smooth="yes"/>
      <point x="176.87" y="287.05"/>
      <point x="402.12666666666667" y="65.75666666666667"/>
      <point x="585.13" y="65.75666666666667" type="qcurve" smooth="yes"/>
      <point x="692.7566666666667" y="65.75666666666667"/>
      <point x="864.99" y="148.17333333333335"/>
      <point x="921.1033333333332" y="217.80666666666667" type="qcurve"/>
      <point x="954.1466666666666" y="180.12333333333333" type="line"/>
      <point x="899.66" y="93.28333333333333"/>
      <point x="692.3833333333333" y="-21.9"/>
      <point x="547.85" y="-21.9" type="qcurve" smooth="yes"/>
      <point x="339.37333333333333" y="-21.9"/>
      <point x="66.58666666666666" y="247.4"/>
    </contour>
  </outline>
</glyph>
<glyph name="d" format="2">
  <advance width="1162"/>
  <unicode hex="0064"/>
  <outline>
    <contour>
      <point x="67.68" y="484.65" type="qcurve" smooth="yes"/>
      <point x="67.68" y="727.2166666666667"/>
      <point x="340.07666666666665" y="1019.92"/>
      <point x="543.2833333333333" y="1019.92" type="qcurve" smooth="yes"/>
      <point x="643.3466666666667" y="1019.92"/>
      <point x="806.62" y="964.51"/>
      <point x="851.5166666666667" y="922.9166666666666" type="qcurve"/>
      <point x="847.8966666666666" y="1413.1866666666667" type="line"/>
      <point x="658.2466666666667" y="1436.8166666666666" type="line"/>
      <point x="658.2466666666667" y="1500.0" type="line"/>
      <point x="922.8033333333333" y="1519.6666666666667" type="line"/>
      <point x="937.34" y="1516.0833333333333" type="line"/>
      <point x="951.7233333333334" y="1491.9666666666667" type="line"/>
      <point x="950.1766666666667" y="535.85" type="line"/>
      <point x="955.5133333333333" y="80.6" type="line"/>
      <point x="1120.8333333333333" y="51.33333333333333" type="line"/>
      <point x="1120.8333333333333" y="0.0" type="line"/>
      <point x="885.99" y="0.0" type="line"/>
      <point x="861.6666666666666" y="33.980000000000004" type="line"/>
      <point x="851.9333333333334" y="150.03" type="line"/>
      <point x="804.4533333333334" y="80.46333333333334"/>
      <point x="627.47" y="-10.433333333333334"/>
      <point x="507.62" y="-10.433333333333334" type="qcurve" smooth="yes"/>
      <point x="323.02666666666664" y="-10.433333333333334"/>
      <point x="67.68" y="254.91666666666666"/>
    </contour>
    <contour>
      <point x="181.90333333333334" y="502.28333333333336" type="qcurve" smooth="yes"/>
      <point x="181.90333333333334" y="294.2"/>
      <point x="378.3833333333333" y="71.85"/>
      <point x="533.3366666666666" y="71.85" type="qcurve" smooth="yes"/>
      <point x="639.2466666666667" y="71.85"/>
      <point x="803.7833333333333" y="156.86666666666667"/>
      <point x="850.63" y="224.86666666666665" type="qcurve"/>
      <point x="854.36" y="531.8833333333333" type="line"/>
      <point x="853.6233333333333" y="820.4833333333333" type="line"/>
      <point x="812.83" y="878.11"/>
      <point x="652.3233333333334" y="953.4499999999999"/>
      <point x="551.7233333333334" y="953.4499999999999" type="qcurve" smooth="yes"/>
      <point x="389.8" y="953.4499999999999"/>
      <point x="181.90333333333334" y="703.8"/>
    </contour>
  </outline>
</glyph>
<glyph name="j" format="2">
  <advance width="543"/>
  <unicode hex="006A"/>
  <outline>
    <contour>
      <point x="13.280000000000001" y="-478.62333333333333" type="qcurve"/>
      <point x="13.280000000000001" y="-402.94" type="line"/>
      <point x="127.34666666666666" y="-402.13"/>
      <point x="241.69666666666666" y="-334.00666666666666"/>
      <point x="241.69666666666666" y="-239.95666666666668" type="qcurve" smooth="yes"/>
      <point x="242.56333333333333" y="527.0" type="line"/>
      <point x="239.51" y="894.3166666666667" type="line"/>
      <point x="52.663333333333334" y="918.5833333333334" type="line"/>
      <point x="52.663333333333334" y="981.05" type="line"/>
      <point x="309.01666666666665" y="1002.15" type="line"/>
      <point x="333.10333333333335" y="1000.7166666666667" type="line"/>
      <point x="347.50333333333333" y="965.4" type="line"/>
      <point x="342.9166666666667" y="527.0" type="line"/>
      <point x="346.34999999999997" y="-232.70666666666668" type="line" smooth="yes"/>
      <point x="347.34999999999997" y="-359.39"/>
      <point x="182.54666666666665" y="-490.34"/>
    </contour>
    <contour>
      <point x="186.57333333333335" y="1323.86" type="qcurve" smooth="yes"/>
      <point x="186.57333333333335" y="1365.5400000000002"/>
      <point x="231.36666666666667" y="1413.6333333333334"/>
      <point x="274.33000000000004" y="1413.6333333333334" type="qcurve" smooth="yes"/>
      <point x="314.01" y="1413.6333333333334"/>
      <point x="362.0866666666667" y="1364.4066666666668"/>
      <point x="362.0866666666667" y="1323.86" type="qcurve" smooth="yes"/>
      <point x="362.0866666666667" y="1282.8966666666668"/>
      <point x="317.29333333333335" y="1234.7833333333333"/>
      <point x="274.33000000000004" y="1234.7833333333333" type="qcurve" smooth="yes"/>
      <point x="233.21666666666667" y="1234.7833333333333"/>
      <point x="186.57333333333335" y="1286.1599999999999"/>
    </contour>
  </outline>
</glyph>
<glyph name="l" format="2">
  <advance width="609"/>
  <unicode hex="006C"/>
  <outline>
    <contour>
      <point x="71.77666666666667" y="0.0" type="line"/>
      <point x="71.77666666666667" y="53.483333333333334" type="line"/>
      <point x="259.1933333333333" y="80.6" type="line"/>
      <point x="261.92999999999995" y="527.0" type="line"/>
      <point x="260.62666666666667" y="1413.1866666666667" type="line"/>
      <point x="63.82333333333334" y="1436.8166666666666" type="line"/>
      <point x="63.82333333333334" y="1500.0" type="line"/>
      <point x="334.55333333333334" y="1519.6666666666667" type="line"/>
      <point x="349.3533333333333" y="1516.0833333333333" type="line"/>
      <point x="363.7366666666667" y="1491.9666666666667" type="line"/>
      <point x="362.4533333333333" y="527.0" type="line"/>
      <point x="366.6033333333333" y="80.6" type="line"/>
      <point x="546.5166666666667" y="53.483333333333334" type="line"/>
      <point x="546.5166666666667" y="0.0" type="line"/>
    </contour>
  </outline>
</glyph>
<glyph name="n" format="2">
  <advance width="1247"/>
  <unicode hex="006E"/>
  <outline>
    <contour>
      <point x="82.56666666666668" y="0.0" type="line"/>
      <point x="82.56666666666668" y="51.33333333333333" type="line"/>
      <point x="243.94" y="80.6" type="line"/>
      <point x="245.94" y="527.0" type="line"/>
      <point x="243.94" y="892.1666666666666" type="line"/>
      <point x="72.53333333333335" y="915.0" type="line"/>
      <point x="72.53333333333335" y="980.3333333333334" type="line"/>
      <point x="302.9166666666667" y="1000.0" type="line"/>
      <point x="329.31666666666666" y="980.1666666666666" type="line"/>
      <point x="346.23333333333335" y="837.04" type="line"/>
      <point x="405.54" y="915.1"/>
      <point x="612.9866666666667" y="1020.9"/>
      <point x="740.9399999999999" y="1020.9" type="qcurve" smooth="yes"/>
      <point x="880.84" y="1020.9"/>
      <point x="1027.4533333333334" y="881.5166666666668"/>
      <point x="1027.4533333333334" y="742.38" type="qcurve" smooth="yes"/>
      <point x="1027.4533333333334" y="677.48"/>
      <point x="1026.0766666666666" y="537.8933333333333"/>
      <point x="1026.0766666666666" y="527.7" type="qcurve" smooth="yes"/>
      <point x="1031.0366666666666" y="80.6" type="line"/>
      <point x="1184.5866666666666" y="51.33333333333333" type="line"/>
      <point x="1184.5866666666666" y="0.0" type="line"/>
      <point x="772.8" y="0.0" type="line"/>
      <point x="772.8" y="51.33333333333333" type="line"/>
      <point x="923.6066666666667" y="80.6" type="line"/>
      <point x="925.5666666666666" y="527.7" type="line"/>
      <point x="925.5666666666666" y="726.09" type="line" smooth="yes"/>
      <point x="925.5666666666666" y="826.1700000000001"/>
      <point x="805.01" y="922.7666666666667"/>
      <point x="692.5233333333333" y="922.7666666666667" type="qcurve" smooth="yes"/>
      <point x="589.3533333333334" y="922.7666666666667"/>
      <point x="398.47333333333336" y="822.7033333333334"/>
      <point x="346.05" y="745.4866666666667" type="qcurve"/>
      <point x="345.7866666666667" y="527.7" type="line"/>
      <point x="352.0466666666667" y="80.6" type="line"/>
      <point x="505.15000000000003" y="51.33333333333333" type="line"/>
      <point x="505.15000000000003" y="0.0" type="line"/>
    </contour>
  </outline>
</glyph>
<glyph name="o" format="2">
  <advance width="1160"/>
  <unicode hex="006F"/>
  <outline>
    <contour>
      <point x="66.58666666666666" y="500.0" type="qcurve" smooth="yes"/>
      <point x="66.58666666666666" y="717.2"/>
      <point x="347.64" y="1021.94"/>
      <point x="578.16" y="1021.94" type="qcurve" smooth="yes"/>
      <point x="811.8299999999999" y="1021.94"/>
      <point x="1093.5933333333335" y="737.2"/>
      <point x="1093.5933333333335" y="506.0" type="qcurve" smooth="yes"/>
      <point x="1093.5933333333335" y="289.8"/>
      <point x="814.56" y="-21.9"/>
      <point x="584.04" y="-21.9" type="qcurve" smooth="yes"/>
      <point x="352.54" y="-21.9"/>
      <point x="66.58666666666666" y="266.8"/>
    </contour>
    <contour>
      <point x="177.58666666666667" y="522.15" type="qcurve" smooth="yes"/>
      <point x="178.58666666666667" y="322.31666666666666"/>
      <point x="398.59000000000003" y="46.49333333333333"/>
      <point x="578.35" y="46.49333333333333" type="qcurve" smooth="yes"/>
      <point x="770.4433333333334" y="46.49333333333333"/>
      <point x="979.5799999999999" y="298.1666666666667"/>
      <point x="979.5799999999999" y="506.71666666666664" type="qcurve" smooth="yes"/>
      <point x="979.5799999999999" y="698.8333333333334"/>
      <point x="761.05" y="946.1133333333333"/>
      <point x="580.31" y="946.1133333333333" type="qcurve" smooth="yes"/>
      <point x="384.78333333333336" y="946.1133333333333"/>
      <point x="176.58666666666667" y="720.2666666666668"/>
    </contour>
  </outline>
</glyph>
<glyph name="r" format="2">
  <advance width="842"/>
  <unicode hex="0072"/>
  <anchor x="309.54" y="0" name="bottom"/>
  <outline>
    <contour>
      <point x="82.56666666666668" y="0.0" type="line"/>
      <point x="82.56666666666668" y="51.33333333333333" type="line"/>
      <point x="243.94" y="80.6" type="line"/>
      <point x="245.94" y="527.0" type="line"/>
      <point x="243.94" y="892.1666666666666" type="line"/>
      <point x="72.53333333333335" y="915.0" type="line"/>
      <point x="72.53333333333335" y="980.3333333333334" type="line"/>
      <point x="302.9166666666667" y="1000.0" type="line"/>
      <point x="329.31666666666666" y="980.1666666666666" type="line"/>
      <point x="347.68666666666667" y="826.2366666666666" type="line"/>
      <point x="394.40333333333336" y="898.4433333333333"/>
      <point x="582.5733333333334" y="1007.8833333333333"/>
      <point x="714.64" y="1007.8833333333333" type="qcurve" smooth="yes"/>
      <point x="812.7766666666666" y="1007.8833333333333" type="line"/>
      <point x="812.7766666666666" y="750.3000000000001" type="line"/>
      <point x="742.7" y="750.3000000000001" type="line"/>
      <point x="699.5833333333334" y="916.1833333333334" type="line"/>
      <point x="582.0433333333333" y="916.4666666666667"/>
      <point x="404.4133333333333" y="829.0133333333333"/>
      <point x="347.22" y="738.6166666666667" type="qcurve"/>
      <point x="345.7866666666667" y="527.7" type="line"/>
      <point x="352.0466666666667" y="80.6" type="line"/>
      <point x="532.9166666666666" y="51.33333333333333" type="line"/>
      <point x="532.9166666666666" y="0.0" type="line"/>
    </contour>
  </outline>
</glyph>
<glyph name="s" format="2">
  <advance width="870"/>
  <unicode hex="0073"/>
  <outline>
    <contour>
      <point x="67.76666666666667" y="0.0" type="line"/>
      <point x="67.76666666666667" y="325.3833333333333" type="line"/>
      <point x="138.07666666666668" y="325.3833333333333" type="line"/>
      <point x="147.58333333333334" y="275.7" type="line" smooth="yes"/>
      <point x="167.08666666666667" y="173.21666666666667"/>
      <point x="334.75" y="52.550000000000004"/>
      <point x="452.49333333333334" y="52.53" type="qcurve" smooth="yes"/>
      <point x="575.4033333333334" y="52.53"/>
      <point x="709.6166666666667" y="160.65666666666664"/>
      <point x="709.6166666666667" y="250.68333333333334" type="qcurve" smooth="yes"/>
      <point x="709.6166666666667" y="343.08333333333337"/>
      <point x="564.8599999999999" y="444.5333333333333"/>
      <point x="407.5733333333334" y="495.4" type="qcurve" smooth="yes"/>
      <point x="244.55333333333334" y="547.6999999999999"/>
      <point x="108.64666666666666" y="672.9333333333333"/>
      <point x="108.64666666666666" y="774.05" type="qcurve" smooth="yes"/>
      <point x="108.64666666666666" y="883.8166666666666"/>
      <point x="261.87666666666667" y="1021.94"/>
      <point x="408.94" y="1021.94" type="qcurve" smooth="yes"/>
      <point x="492.6666666666667" y="1021.94"/>
      <point x="608.7366666666667" y="978.8466666666667"/>
      <point x="646.1966666666666" y="945.5833333333334" type="qcurve"/>
      <point x="667.0933333333332" y="1000.0" type="line"/>
      <point x="730.7800000000001" y="1000.0" type="line"/>
      <point x="730.7800000000001" y="707.5833333333334" type="line"/>
      <point x="660.6933333333333" y="707.5833333333334" type="line"/>
      <point x="648.4166666666666" y="793.8333333333334" type="line" smooth="yes"/>
      <point x="636.8733333333333" y="880.2966666666666"/>
      <point x="488.8066666666667" y="951.0733333333334"/>
      <point x="405.9533333333333" y="951.0733333333334" type="qcurve" smooth="yes"/>
      <point x="302.12333333333333" y="951.0733333333334"/>
      <point x="202.99333333333334" y="869.6833333333333"/>
      <point x="202.99333333333334" y="800.0333333333333" type="qcurve" smooth="yes"/>
      <point x="202.99333333333334" y="725.85"/>
      <point x="311.61" y="634.9066666666668"/>
      <point x="469.5" y="585.3333333333334" type="qcurve" smooth="yes"/>
      <point x="625.4466666666667" y="535.9233333333333"/>
      <point x="803.0766666666666" y="396.1666666666667"/>
      <point x="803.0766666666666" y="270.51666666666665" type="qcurve" smooth="yes"/>
      <point x="803.0766666666666" y="136.94"/>
      <point x="615.0733333333333" y="-20.203333333333337"/>
      <point x="466.5" y="-20.203333333333337" type="qcurve" smooth="yes"/>
      <point x="361.5233333333333" y="-20.203333333333337"/>
      <point x="219.0533333333333" y="39.583333333333336"/>
      <point x="170.59" y="87.05333333333333" type="qcurve"/>
      <point x="130.47666666666666" y="0.0" type="line"/>
    </contour>
  </outline>
</glyph>
<glyph name="t" format="2">
  <advance width="624"/>
  <unicode hex="0074"/>
  <outline>
    <contour>
      <point x="53.95" y="914.2833333333333" type="line"/>
      <point x="53.95" y="963.2" type="line"/>
      <point x="155.46666666666667" y="979.7333333333333"/>
      <point x="264.66" y="1097.93"/>
      <point x="280.3" y="1200.0666666666666" type="qcurve"/>
      <point x="308.56666666666666" y="1200.0666666666666" type="line"/>
      <point x="332.25" y="1170.8166666666666" type="line"/>
      <point x="327.25" y="981.8833333333333" type="line"/>
      <point x="572.7666666666667" y="981.8833333333333" type="line"/>
      <point x="572.7666666666667" y="909.9833333333333" type="line"/>
      <point x="326.68333333333334" y="909.9833333333333" type="line"/>
      <point x="323.93" y="527.0" type="line"/>
      <point x="324.3466666666667" y="175.86666666666667" type="line" smooth="yes"/>
      <point x="324.63" y="120.18333333333334"/>
      <point x="370.16333333333336" y="78.9"/>
      <point x="435.0966666666667" y="78.9" type="qcurve" smooth="yes"/>
      <point x="582.0300000000001" y="78.9" type="line"/>
      <point x="582.0300000000001" y="24.7" type="line"/>
      <point x="322.68333333333334" y="-8.0" type="line"/>
      <point x="265.0333333333333" y="-5.85"/>
      <point x="220.65" y="56.516666666666666"/>
      <point x="221.36666666666667" y="124.3" type="qcurve" smooth="yes"/>
      <point x="222.82" y="527.0" type="line"/>
      <point x="222.8" y="901.5666666666667" type="line"/>
    </contour>
  </outline>
</glyph>
<glyph name="w" format="2">
  <advance width="1539"/>
  <unicode hex="0077"/>
  <outline>
    <contour>
      <point x="-29.150000000000002" y="935.0833333333334" type="line"/>
      <point x="-29.150000000000002" y="1000.0" type="line"/>
      <point x="390.46" y="1000.0" type="line"/>
      <point x="390.46" y="935.0833333333334" type="line"/>
      <point x="235.92666666666668" y="910.2666666666667" type="line"/>
      <point x="365.12666666666667" y="511.96666666666664" type="line"/>
      <point x="504.88666666666666" y="97.45" type="line"/>
      <point x="643.4" y="475.41333333333336" type="line"/>
      <point x="760.14" y="818.9633333333334" type="line"/>
      <point x="810.4166666666666" y="730.7299999999999" type="line"/>
      <point x="702.69" y="440.0833333333333" type="line"/>
      <point x="541.4433333333334" y="-7.283333333333333" type="line"/>
      <point x="446.49666666666667" y="-7.283333333333333" type="line"/>
      <point x="277.1766666666667" y="486.31666666666666" type="line"/>
      <point x="124.7" y="910.1166666666667" type="line"/>
    </contour>
    <contour>
      <point x="530.8666666666667" y="935.0833333333334" type="line"/>
      <point x="530.8666666666667" y="1000.0" type="line"/>
      <point x="943.5166666666667" y="1000.0" type="line"/>
      <point x="943.5166666666667" y="935.0833333333334" type="line"/>
      <point x="790.7333333333333" y="909.55" type="line"/>
      <point x="927.9633333333333" y="488.6166666666667" type="line"/>
      <point x="1051.0766666666666" y="98.59333333333333" type="line"/>
      <point x="1196.8933333333332" y="516.8666666666667" type="line"/>
      <point x="1328.69" y="911.5333333333333" type="line"/>
      <point x="1174.7933333333333" y="935.0833333333334" type="line"/>
      <point x="1174.7933333333333" y="1000.0" type="line"/>
      <point x="1573.0533333333333" y="1000.0" type="line"/>
      <point x="1573.0533333333333" y="935.0833333333334" type="line"/>
      <point x="1416.3200000000002" y="910.1166666666667" type="line"/>
      <point x="1262.2033333333334" y="491.15" type="line"/>
      <point x="1090.8266666666666" y="-7.283333333333333" type="line"/>
      <point x="997.3133333333334" y="-7.283333333333333" type="line"/>
      <point x="840.6733333333333" y="463.53333333333336" type="line"/>
      <point x="683.6" y="910.1166666666667" type="line"/>
    </contour>
  </outline>
</glyph>
<glyph name="bar" format="2">
  <advance width="590"/>
  <unicode hex="007C"/>
  <outline>
    <contour>
      <point x="249.51666666666665" y="-521.8" type="line"/>
      <point x="253.23333333333335" y="-57.0" type="line"/>
      <point x="258.51666666666665" y="251.0" type="line"/>
      <point x="257.95" y="831.0" type="line"/>
      <point x="252.38333333333333" y="1139.0" type="line"/>
      <point x="248.95" y="1498.2" type="line"/>
      <point x="342.4166666666667" y="1533.8" type="line"/>
      <point x="338.1333333333333" y="1139.0" type="line"/>
      <point x="331.71666666666664" y="831.0" type="line"/>
      <point x="332.2833333333333" y="251.0" type="line"/>
      <point x="338.4166666666667" y="-57.0" type="line"/>
      <point x="341.84999999999997" y="-486.2" type="line"/>
    </contour>
  </outline>
</glyph>
<glyph name="asciitilde" format="2">
  <advance width="990"/>
  <unicode hex="007E"/>
  <outline>
    <contour>
      <point x="45.13333333333333" y="578.7833333333333" type="line"/>
      <point x="104.60333333333332" y="661.75"/>
      <point x="251.27333333333334" y="768.0166666666667"/>
      <point x="334.4533333333334" y="768.7333333333333" type="qcurve"/>
      <point x="684.3366666666667" y="640.1833333333333" type="line"/>
      <point x="743.9766666666667" y="640.1833333333333"/>
      <point x="849.0333333333334" y="719.5833333333334"/>
      <point x="887.5666666666667" y="790.7833333333333" type="qcurve"/>
      <point x="944.7766666666666" y="756.7" type="line"/>
      <point x="897.2266666666667" y="656.2833333333333"/>
      <point x="761.2533333333333" y="551.1166666666667"/>
      <point x="655.8533333333332" y="550.4" type="qcurve"/>
      <point x="318.08" y="674.5333333333333" type="line"/>
      <point x="257.44" y="674.5333333333333"/>
      <point x="146.44" y="597.6"/>
      <point x="89.06333333333333" y="536.2833333333333" type="qcurve"/>
    </contour>
  </outline>
</glyph>
<glyph name="section" format="2">
  <advance width="1086"/>
  <unicode hex="00A7"/>
  <outline>
    <contour>
      <point x="974.42" y="108.33333333333333" type="qcurve" smooth="yes"/>
      <point x="974.42" y="-63.66666666666667"/>
      <point x="752.26" y="-253.0"/>
      <point x="573.62" y="-253.0" type="qcurve" smooth="yes"/>
      <point x="460.84000000000003" y="-253.0"/>
      <point x="271.53" y="-181.98333333333332"/>
      <point x="220.63" y="-129.98333333333332" type="qcurve"/>
      <point x="184.72666666666666" y="-235.0" type="line"/>
      <point x="124.74" y="-235.0" type="line"/>
      <point x="124.74" y="196.0" type="line"/>
      <point x="187.54" y="196.0" type="line"/>
      <point x="205.5" y="81.5" type="line" smooth="yes"/>
      <point x="227.59333333333333" y="-57.1"/>
      <point x="439.6666666666667" y="-177.0"/>
      <point x="572.7233333333334" y="-177.0" type="qcurve" smooth="yes"/>
      <point x="712.48" y="-177.0"/>
      <point x="881.4066666666666" y="-39.81666666666666"/>
      <point x="881.4066666666666" y="87.83333333333333" type="qcurve" smooth="yes"/>
      <point x="881.4066666666666" y="212.67333333333335"/>
      <point x="687.5766666666666" y="362.6666666666667"/>
      <point x="516.9166666666666" y="429.6666666666667" type="qcurve" smooth="yes"/>
      <point x="358.2366666666667" y="492.6666666666667"/>
      <point x="173.72666666666666" y="655.5"/>
      <point x="173.72666666666666" y="797.5" type="qcurve" smooth="yes"/>
      <point x="173.72666666666666" y="881.5"/>
      <point x="251.02333333333334" y="1008.7333333333333"/>
      <point x="323.80333333333334" y="1053.3" type="qcurve"/>
      <point x="280.01666666666665" y="1083.1333333333334"/>
      <point x="219.99333333333334" y="1181.8666666666666"/>
      <point x="219.99333333333334" y="1253.3333333333333" type="qcurve" smooth="yes"/>
      <point x="219.99333333333334" y="1363.3333333333333"/>
      <point x="387.22" y="1512.0"/>
      <point x="539.92" y="1512.0" type="qcurve" smooth="yes"/>
      <point x="616.76" y="1512.0"/>
      <point x="753.2066666666666" y="1473.4333333333334"/>
      <point x="796.1633333333334" y="1441.8333333333333" type="qcurve"/>
      <point x="812.2733333333334" y="1480.0" type="line"/>
      <point x="867.26" y="1480.0" type="line"/>
      <point x="867.26" y="1184.0" type="line"/>
      <point x="804.48" y="1184.0" type="line"/>
      <point x="782.8033333333333" y="1310.6166666666666" type="line" smooth="yes"/>
      <point x="769.8066666666666" y="1374.6833333333334"/>
      <point x="631.5733333333334" y="1436.8333333333333"/>
      <point x="540.4166666666666" y="1436.8333333333333" type="qcurve" smooth="yes"/>
      <point x="420.95" y="1436.8333333333333"/>
      <point x="313.0266666666667" y="1349.0666666666666"/>
      <point x="313.0266666666667" y="1279.3166666666666" type="qcurve" smooth="yes"/>
      <point x="313.0266666666667" y="1194.3833333333334"/>
      <point x="430.8233333333333" y="1094.3166666666668"/>
      <point x="599.4466666666666" y="1046.8333333333333" type="qcurve" smooth="yes"/>
      <point x="750.26" y="1004.5699999999999"/>
      <point x="930.6" y="871.15"/>
      <point x="930.6" y="734.75" type="qcurve" smooth="yes"/>
      <point x="930.6" y="632.1666666666666"/>
      <point x="802.5233333333333" y="490.9166666666667"/>
      <point x="702.3066666666666" y="459.9166666666667" type="qcurve"/>
      <point x="817.2366666666667" y="408.5"/>
      <point x="974.42" y="239.33333333333334"/>
    </contour>
    <contour>
      <point x="259.8966666666667" y="816.45" type="qcurve" smooth="yes"/>
      <point x="259.8966666666667" y="721.25"/>
      <point x="391.79333333333335" y="583.4666666666667"/>
      <point x="596.6233333333333" y="501.55" type="qcurve"/>
      <point x="687.1066666666667" y="508.0"/>
      <point x="836.9466666666666" y="626.9"/>
      <point x="836.9466666666666" y="722.0833333333334" type="qcurve" smooth="yes"/>
      <point x="836.9466666666666" y="818.2666666666667"/>
      <point x="687.1433333333333" y="918.35"/>
      <point x="499.81333333333333" y="972.8" type="qcurve" smooth="yes"/>
      <point x="469.29" y="982.2333333333333"/>
      <point x="415.2233333333333" y="1000.3833333333333"/>
      <point x="391.39666666666665" y="1010.8166666666667" type="qcurve"/>
      <point x="334.33" y="985.2333333333333"/>
      <point x="259.8966666666667" y="885.05"/>
    </contour>
  </outline>
</glyph>
<glyph name="dieresis" format="2">
  <advance width="1024"/>
  <unicode hex="00A8"/>
  <outline>
    <contour>
      <point x="604.8733333333333" y="1241.58" type="qcurve" smooth="yes"/>
      <point x="604.8733333333333" y="1282.1266666666666"/>
      <point x="648.8666666666667" y="1326.6733333333334"/>
      <point x="690.3133333333334" y="1326.6733333333334" type="qcurve" smooth="yes"/>
      <point x="730.91" y="1326.6733333333334"/>
      <point x="777.9033333333333" y="1279.5800000000002"/>
      <point x="777.9033333333333" y="1241.58" type="qcurve" smooth="yes"/>
      <point x="777.9033333333333" y="1200.58"/>
      <point x="733.4766666666667" y="1156.0333333333333"/>
      <point x="690.3133333333334" y="1156.0333333333333" type="qcurve" smooth="yes"/>
      <point x="651.1500000000001" y="1156.0333333333333"/>
      <point x="604.8733333333333" y="1202.1466666666665"/>
    </contour>
    <contour>
      <point x="246.09666666666666" y="1241.58" type="qcurve" smooth="yes"/>
      <point x="246.09666666666666" y="1282.1266666666666"/>
      <point x="291.5233333333333" y="1326.6733333333334"/>
      <point x="333.68666666666667" y="1326.6733333333334" type="qcurve" smooth="yes"/>
      <point x="372.85" y="1326.6733333333334"/>
      <point x="419.12666666666667" y="1279.5800000000002"/>
      <point x="419.12666666666667" y="1241.58" type="qcurve" smooth="yes"/>
      <point x="419.12666666666667" y="1200.58"/>
      <point x="376.1333333333333" y="1156.0333333333333"/>
      <point x="333.68666666666667" y="1156.0333333333333" type="qcurve" smooth="yes"/>
      <point x="293.09000000000003" y="1156.0333333333333"/>
      <point x="246.09666666666666" y="1202.1466666666665"/>
    </contour>
  </outline>
</glyph>
<glyph name="copyright" format="2">
  <advance width="2042"/>
  <unicode hex="00A9"/>
  <outline>
    <contour>
      <point x="554.11" y="649.1" type="qcurve" smooth="yes"/>
      <point x="554.11" y="881.65"/>
      <point x="825.7966666666666" y="1185.35"/>
      <point x="1043.2333333333333" y="1185.35" type="qcurve" smooth="yes"/>
      <point x="1130.4" y="1185.35"/>
      <point x="1253.19" y="1146.6166666666666"/>
      <point x="1292.4266666666665" y="1113.3" type="qcurve"/>
      <point x="1312.8600000000001" y="1179.4833333333333" type="line"/>
      <point x="1379.8166666666666" y="1164.1" type="line"/>
      <point x="1391.4566666666667" y="845.2666666666667" type="line"/>
      <point x="1327.44" y="834.7166666666667" type="line"/>
      <point x="1292.9133333333332" y="965.25" type="line"/>
      <point x="1263.9533333333334" y="1039.3833333333334"/>
      <point x="1132.5866666666666" y="1113.7666666666667"/>
      <point x="1044.2333333333333" y="1113.7666666666667" type="qcurve" smooth="yes"/>
      <point x="870.5166666666667" y="1113.7666666666667"/>
      <point x="663.5366666666667" y="882.95"/>
      <point x="664.2533333333333" y="668.8833333333333" type="qcurve" smooth="yes"/>
      <point x="664.2533333333333" y="451.8333333333333"/>
      <point x="892.8366666666666" y="230.5"/>
      <point x="1068.5866666666666" y="230.5" type="qcurve" smooth="yes"/>
      <point x="1179.3433333333332" y="230.5"/>
      <point x="1360.3700000000001" y="322.75"/>
      <point x="1414.6799999999998" y="394.0833333333333" type="qcurve"/>
      <point x="1450.1333333333334" y="352.05" type="line"/>
      <point x="1392.6133333333332" y="259.76666666666665"/>
      <point x="1172.5333333333333" y="142.78333333333333"/>
      <point x="1040.6366666666665" y="142.78333333333333" type="qcurve" smooth="yes"/>
      <point x="825.3866666666668" y="142.78333333333333"/>
      <point x="554.11" y="409.35"/>
    </contour>
    <contour>
      <point x="108.16666666666667" y="685.0" type="qcurve" smooth="yes"/>
      <point x="108.16666666666667" y="1061.0"/>
      <point x="620.44" y="1570.0"/>
      <point x="1023.22" y="1570.0" type="qcurve" smooth="yes"/>
      <point x="1424.02" y="1570.0"/>
      <point x="1934.2933333333333" y="1087.0"/>
      <point x="1934.2933333333333" y="706.0" type="qcurve" smooth="yes"/>
      <point x="1934.2933333333333" y="288.0"/>
      <point x="1431.0" y="-242.0"/>
      <point x="1035.18" y="-242.0" type="qcurve" smooth="yes"/>
      <point x="627.42" y="-242.0"/>
      <point x="108.16666666666667" y="276.0"/>
    </contour>
    <contour>
      <point x="211.03333333333333" y="682.4333333333333" type="qcurve" smooth="yes"/>
      <point x="211.03333333333333" y="311.35"/>
      <point x="687.4566666666666" y="-159.56666666666666"/>
      <point x="1041.1066666666668" y="-159.56666666666666" type="qcurve" smooth="yes"/>
      <point x="1384.0800000000002" y="-159.56666666666666"/>
      <point x="1831.4266666666667" y="324.8833333333333"/>
      <point x="1831.4266666666667" y="700.15" type="qcurve" smooth="yes"/>
      <point x="1831.4266666666667" y="1031.3666666666666"/>
      <point x="1386.2233333333334" y="1487.5666666666666"/>
      <point x="1016.18" y="1487.5666666666666" type="qcurve" smooth="yes"/>
      <point x="665.51" y="1487.5666666666666"/>
      <point x="211.03333333333333" y="1021.65"/>
    </contour>
  </outline>
</glyph>
<glyph name="registered" format="2">
  <advance width="2042"/>
  <unicode hex="00AE"/>
  <outline>
    <contour>
      <point x="108.16666666666667" y="685.0" type="qcurve" smooth="yes"/>
      <point x="108.16666666666667" y="1061.0"/>
      <point x="620.44" y="1570.0"/>
      <point x="1023.22" y="1570.0" type="qcurve" smooth="yes"/>
      <point x="1424.02" y="1570.0"/>
      <point x="1934.2933333333333" y="1087.0"/>
      <point x="1934.2933333333333" y="706.0" type="qcurve" smooth="yes"/>
      <point x="1934.2933333333333" y="288.0"/>
      <point x="1431.0" y="-242.0"/>
      <point x="1035.18" y="-242.0" type="qcurve" smooth="yes"/>
      <point x="627.42" y="-242.0"/>
      <point x="108.16666666666667" y="276.0"/>
    </contour>
    <contour>
      <point x="211.03333333333333" y="682.4333333333333" type="qcurve" smooth="yes"/>
      <point x="211.03333333333333" y="311.35"/>
      <point x="687.4566666666666" y="-159.56666666666666"/>
      <point x="1041.1066666666668" y="-159.56666666666666" type="qcurve" smooth="yes"/>
      <point x="1384.0800000000002" y="-159.56666666666666"/>
      <point x="1831.4266666666667" y="324.8833333333333"/>
      <point x="1831.4266666666667" y="700.15" type="qcurve" smooth="yes"/>
      <point x="1831.4266666666667" y="1031.3666666666666"/>
      <point x="1386.2233333333334" y="1487.5666666666666"/>
      <point x="1016.18" y="1487.5666666666666" type="qcurve" smooth="yes"/>
      <point x="665.51" y="1487.5666666666666"/>
      <point x="211.03333333333333" y="1021.65"/>
    </contour>
    <contour>
      <point x="628.6366666666667" y="176.0" type="line"/>
      <point x="626.54" y="230.16666666666666" type="line"/>
      <point x="743.2" y="254.16666666666666" type="line"/>
      <point x="754.16" y="723.0" type="line"/>
      <point x="743.2" y="1127.4166666666667" type="line"/>
      <point x="616.58" y="1150.4166666666667" type="line"/>
      <point x="616.58" y="1209.0" type="line"/>
      <point x="1037.9933333333333" y="1209.0" type="line" smooth="yes"/>
      <point x="1195.5133333333333" y="1209.0"/>
      <point x="1340.8866666666668" y="1067.6666666666667"/>
      <point x="1340.8866666666668" y="953.6666666666666" type="qcurve" smooth="yes"/>
      <point x="1340.8866666666668" y="826.6666666666666"/>
      <point x="1168.78" y="664.0"/>
      <point x="1043.16" y="664.0" type="qcurve" smooth="yes"/>
      <point x="992.32" y="664.0"/>
      <point x="838.6066666666667" y="669.4166666666666"/>
      <point x="814.6866666666666" y="669.4166666666666" type="qcurve"/>
      <point x="814.6866666666666" y="725.75" type="line"/>
      <point x="1015.24" y="725.75" type="line" smooth="yes"/>
      <point x="1133.8799999999999" y="725.75"/>
      <point x="1237.7066666666667" y="846.5"/>
      <point x="1237.7066666666667" y="951.8333333333334" type="qcurve" smooth="yes"/>
      <point x="1237.7066666666667" y="1031.8333333333333"/>
      <point x="1140.95" y="1143.8333333333333"/>
      <point x="1014.62" y="1143.8333333333333" type="qcurve" smooth="yes"/>
      <point x="872.5066666666667" y="1143.8333333333333" type="line"/>
      <point x="851.5666666666666" y="1130.8333333333333" type="line"/>
      <point x="838.6066666666667" y="723.0" type="line"/>
      <point x="849.5666666666666" y="254.16666666666666" type="line"/>
      <point x="1009.6333333333333" y="230.16666666666666" type="line"/>
      <point x="1009.6333333333333" y="176.0" type="line"/>
    </contour>
    <contour>
      <point x="1013.11" y="688.5" type="line"/>
      <point x="1111.5333333333333" y="702.1666666666666" type="line"/>
      <point x="1334.7933333333333" y="370.06666666666666" type="line" smooth="yes"/>
      <point x="1402.6666666666667" y="268.46333333333337"/>
      <point x="1483.0933333333332" y="230.16666666666666"/>
      <point x="1524.9533333333331" y="230.16666666666666" type="qcurve"/>
      <point x="1524.9533333333331" y="176.0" type="line"/>
      <point x="1386.65" y="176.0" type="line"/>
      <point x="1344.77" y="190.0" type="line"/>
    </contour>
  </outline>
</glyph>
<glyph name="plusminus" format="2">
  <advance width="993"/>
  <unicode hex="00B1"/>
  <outline>
    <contour>
      <point x="91.88333333333334" y="585.5633333333333" type="line"/>
      <point x="91.88333333333334" y="678.4366666666667" type="line"/>
      <point x="901.0033333333333" y="678.4366666666667" type="line"/>
      <point x="901.0033333333333" y="585.5633333333333" type="line"/>
    </contour>
    <contour>
      <point x="451.04333333333335" y="221.91333333333333" type="line"/>
      <point x="451.04333333333335" y="1052.0933333333332" type="line"/>
      <point x="541.8433333333334" y="1052.0933333333332" type="line"/>
      <point x="541.8433333333334" y="221.91333333333333" type="line"/>
    </contour>
    <contour>
      <point x="91.88333333333334" y="40.529999999999994" type="line"/>
      <point x="91.88333333333334" y="131.56" type="line"/>
      <point x="901.0033333333333" y="131.56" type="line"/>
      <point x="901.0033333333333" y="40.529999999999994" type="line"/>
    </contour>
  </outline>
</glyph>
<glyph name="twosuperior" format="2">
  <advance width="792"/>
  <unicode hex="00B2"/>
  <outline>
    <contour>
      <point x="100.68" y="671.0" type="line"/>
      <point x="100.15333333333334" y="741.1666666666666" type="line"/>
      <point x="115.31666666666666" y="844.5699999999999"/>
      <point x="227.73666666666668" y="1000.2099999999999"/>
      <point x="371.2966666666667" y="1076.35" type="qcurve" smooth="yes"/>
      <point x="488.6366666666667" y="1138.27"/>
      <point x="578.3166666666666" y="1240.1666666666667"/>
      <point x="577.5266666666666" y="1305.1666666666667" type="qcurve" smooth="yes"/>
      <point x="576.7366666666667" y="1372.8766666666668"/>
      <point x="474.03" y="1444.8333333333333"/>
      <point x="395.0466666666667" y="1444.8333333333333" type="qcurve" smooth="yes"/>
      <point x="312.6066666666667" y="1444.8333333333333"/>
      <point x="199.74" y="1400.8333333333333"/>
      <point x="144.86" y="1350.8333333333333" type="qcurve"/>
      <point x="102.38" y="1401.1833333333332" type="line"/>
      <point x="152.04" y="1455.1100000000001"/>
      <point x="289.63" y="1520.0"/>
      <point x="401.98" y="1520.0" type="qcurve" smooth="yes"/>
      <point x="522.74" y="1520.0"/>
      <point x="674.52" y="1413.0"/>
      <point x="674.52" y="1312.0" type="qcurve" smooth="yes"/>
      <point x="674.52" y="1203.1666666666667"/>
      <point x="513.0866666666667" y="1065.4933333333333"/>
      <point x="414.65666666666664" y="1015.8466666666667" type="qcurve" smooth="yes"/>
      <point x="289.61" y="952.4933333333332"/>
      <point x="197.61" y="834.0"/>
      <point x="188.41333333333333" y="784.8299999999999" type="qcurve"/>
      <point x="188.53333333333333" y="759.15" type="line"/>
      <point x="694.48" y="759.15" type="line"/>
      <point x="694.48" y="671.0" type="line"/>
    </contour>
  </outline>
</glyph>
<glyph name="acute" format="2">
  <advance width="1024"/>
  <unicode hex="00B4"/>
  <outline>
    <contour>
      <point x="735.4333333333333" y="1397.7433333333333" type="qcurve" smooth="yes"/>
      <point x="735.4733333333334" y="1373.9966666666667"/>
      <point x="709.23" y="1339.68"/>
      <point x="685.5500000000001" y="1321.8133333333333" type="qcurve" smooth="yes"/>
      <point x="429.5966666666667" y="1122.9466666666667" type="line"/>
      <point x="392.50666666666666" y="1162.8933333333332" type="line"/>
      <point x="585.9833333333333" y="1388.1499999999999" type="line" smooth="yes"/>
      <point x="608.4166666666666" y="1413.8466666666668"/>
      <point x="653.3233333333334" y="1447.5733333333335"/>
      <point x="677.3233333333334" y="1447.5733333333335" type="qcurve" smooth="yes"/>
      <point x="700.4733333333334" y="1447.5733333333335"/>
      <point x="735.3933333333333" y="1417.5533333333333"/>
    </contour>
  </outline>
</glyph>
<glyph name="cedilla" format="2">
  <advance width="1024"/>
  <unicode hex="00B8"/>
  <outline>
    <contour>
      <point x="557.4300000000001" y="-6.8566666666666665" type="line"/>
      <point x="492.78000000000003" y="-129.32666666666668" type="line"/>
      <point x="508.2866666666667" y="-124.06333333333333"/>
      <point x="564.6933333333334" y="-114.68666666666667"/>
      <point x="592.4433333333334" y="-114.68666666666667" type="qcurve" smooth="yes"/>
      <point x="662.49" y="-114.68666666666667"/>
      <point x="765.2666666666667" y="-185.79333333333332"/>
      <point x="765.2666666666667" y="-268.06333333333333" type="qcurve" smooth="yes"/>
      <point x="765.2666666666667" y="-352.85"/>
      <point x="634.2166666666667" y="-448.49333333333334"/>
      <point x="542.64" y="-448.49333333333334" type="qcurve" smooth="yes"/>
      <point x="475.4" y="-448.49333333333334"/>
      <point x="351.49" y="-410.3666666666667"/>
      <point x="306.09999999999997" y="-371.35333333333335" type="qcurve"/>
      <point x="337.81333333333333" y="-305.13666666666666" type="line"/>
      <point x="373.60333333333335" y="-337.03666666666663"/>
      <point x="470.65666666666664" y="-374.2866666666667"/>
      <point x="530.1566666666668" y="-374.2866666666667" type="qcurve" smooth="yes"/>
      <point x="587.8133333333334" y="-374.2866666666667"/>
      <point x="663.61" y="-321.6933333333333"/>
      <point x="663.61" y="-273.68333333333334" type="qcurve" smooth="yes"/>
      <point x="663.61" y="-221.52666666666667"/>
      <point x="596.9066666666668" y="-182.28666666666666"/>
      <point x="545.7833333333333" y="-182.28666666666666" type="qcurve" smooth="yes"/>
      <point x="509.13" y="-182.28666666666666"/>
      <point x="453.84" y="-190.26666666666665"/>
      <point x="438.31333333333333" y="-195.53" type="qcurve"/>
      <point x="402.4266666666667" y="-154.56666666666666" type="line"/>
      <point x="498.96" y="29.5" type="line"/>
    </contour>
  </outline>
</glyph>
<glyph name="onesuperior" format="2">
  <advance width="735"/>
  <unicode hex="00B9"/>
  <outline>
    <contour>
      <point x="129.60333333333335" y="670.0" type="line"/>
      <point x="129.60333333333335" y="722.9833333333332" type="line"/>
      <point x="343.23333333333335" y="751.55" type="line"/>
      <point x="344.0833333333333" y="1112.5833333333333" type="line"/>
      <point x="342.5166666666667" y="1405.7466666666667" type="line"/>
      <point x="127.60333333333335" y="1415.4299999999998" type="line"/>
      <point x="127.60333333333335" y="1469.25" type="line"/>
      <point x="421.0733333333333" y="1510.1333333333334" type="line"/>
      <point x="439.45666666666665" y="1487.3166666666666" type="line"/>
      <point x="436.3233333333333" y="1112.5833333333333" type="line"/>
      <point x="436.89" y="751.55" type="line"/>
      <point x="650.0866666666667" y="722.9833333333332" type="line"/>
      <point x="650.0866666666667" y="670.0" type="line"/>
    </contour>
  </outline>
</glyph>
<glyph name="guillemetright" format="2">
  <advance width="1320"/>
  <unicode hex="00BB"/>
  <outline>
    <contour>
      <point x="1243.0366666666666" y="591.6066666666667" type="line"/>
      <point x="1201.7633333333333" y="564.97"/>
      <point x="719.0833333333334" y="250.12666666666667"/>
      <point x="639.64" y="195.99" type="qcurve" smooth="yes"/>
      <point x="574.9366666666667" y="152.07000000000002"/>
      <point x="525.5466666666666" y="223.05"/>
      <point x="589.0966666666667" y="266.12333333333333" type="qcurve" smooth="yes"/>
      <point x="683.9599999999999" y="330.60333333333335"/>
      <point x="1067.8933333333334" y="589.1533333333334"/>
      <point x="1096.52" y="606.8666666666667" type="qcurve"/>
      <point x="1067.8533333333332" y="625.3833333333333"/>
      <point x="668.42" y="892.2933333333334"/>
      <point x="577.9499999999999" y="956.2933333333334" type="qcurve" smooth="yes"/>
      <point x="526.1700000000001" y="992.3900000000001"/>
      <point x="567.37" y="1060.0533333333333"/>
      <point x="622.1333333333333" y="1029.9566666666667" type="qcurve" smooth="yes"/>
      <point x="684.49" y="995.8166666666667"/>
      <point x="1174.07" y="672.26"/>
      <point x="1243.0366666666666" y="624.3599999999999" type="qcurve"/>
    </contour>
    <contour>
      <point x="790.0866666666667" y="591.6066666666667" type="line"/>
      <point x="748.8133333333333" y="564.97"/>
      <point x="266.1333333333333" y="250.12666666666667"/>
      <point x="186.69" y="195.99" type="qcurve" smooth="yes"/>
      <point x="121.98666666666666" y="152.07000000000002"/>
      <point x="72.59666666666666" y="223.05"/>
      <point x="136.14666666666668" y="266.12333333333333" type="qcurve" smooth="yes"/>
      <point x="231.01" y="330.60333333333335"/>
      <point x="614.9433333333334" y="589.1533333333334"/>
      <point x="643.57" y="606.8666666666667" type="qcurve"/>
      <point x="614.9033333333334" y="625.3833333333333"/>
      <point x="215.47" y="892.2933333333334"/>
      <point x="125.0" y="956.2933333333334" type="qcurve" smooth="yes"/>
      <point x="73.22" y="992.3900000000001"/>
      <point x="114.42" y="1060.0533333333333"/>
      <point x="169.18333333333334" y="1029.9566666666667" type="qcurve" smooth="yes"/>
      <point x="231.54" y="995.8166666666667"/>
      <point x="721.12" y="672.26"/>
      <point x="790.0866666666667" y="624.3599999999999" type="qcurve"/>
    </contour>
  </outline>
</glyph>
<glyph name="questiondown" format="2">
  <advance width="880"/>
  <unicode hex="00BF"/>
  <outline>
    <contour>
      <point x="708.2700000000001" y="1244.9533333333334" type="qcurve" smooth="yes"/>
      <point x="708.2700000000001" y="1202.9"/>
      <point x="649.01" y="1140.81"/>
      <point x="602.6933333333334" y="1140.81" type="qcurve" smooth="yes"/>
      <point x="556.3566666666667" y="1140.81"/>
      <point x="497.0966666666667" y="1202.9"/>
      <point x="497.0966666666667" y="1244.9533333333334" type="qcurve" smooth="yes"/>
      <point x="497.0966666666667" y="1286.7433333333333"/>
      <point x="556.3566666666667" y="1348.8333333333335"/>
      <point x="602.6933333333334" y="1348.8333333333335" type="qcurve" smooth="yes"/>
      <point x="649.01" y="1348.8333333333335"/>
      <point x="708.2700000000001" y="1286.7433333333333"/>
    </contour>
    <contour>
      <point x="856.5166666666667" y="45.53333333333333" type="qcurve" smooth="yes"/>
      <point x="856.5166666666667" y="-62.35"/>
      <point x="635.0866666666667" y="-210.29999999999998"/>
      <point x="459.8566666666667" y="-210.29999999999998" type="qcurve" smooth="yes"/>
      <point x="287.2866666666667" y="-210.29999999999998"/>
      <point x="66.58666666666667" y="-26.183333333333334"/>
      <point x="66.58666666666667" y="148.78333333333333" type="qcurve" smooth="yes"/>
      <point x="66.58666666666667" y="317.6933333333333"/>
      <point x="259.97333333333336" y="512.3733333333333"/>
      <point x="380.49" y="575.5" type="qcurve" smooth="yes"/>
      <point x="464.71" y="619.1366666666667"/>
      <point x="572.6800000000001" y="725.4166666666666"/>
      <point x="572.7" y="807.6999999999999" type="qcurve" smooth="yes"/>
      <point x="572.7" y="910.0333333333333" type="line"/>
      <point x="636.6666666666666" y="910.0333333333333" type="line"/>
      <point x="646.59" y="827.9" type="line" smooth="yes"/>
      <point x="657.32" y="731.4"/>
      <point x="543.3533333333334" y="576.7666666666667"/>
      <point x="430.75666666666666" y="511.85" type="qcurve" smooth="yes"/>
      <point x="316.73" y="446.25333333333333"/>
      <point x="174.16" y="300.6533333333333"/>
      <point x="174.16" y="152.86666666666667" type="qcurve" smooth="yes"/>
      <point x="174.16" y="10.699999999999998"/>
      <point x="343.9866666666667" y="-135.85"/>
      <point x="474.1833333333333" y="-135.85" type="qcurve" smooth="yes"/>
      <point x="600.7199999999999" y="-135.85"/>
      <point x="763.2433333333333" y="-53.86666666666667"/>
      <point x="763.2433333333333" y="-10.183333333333335" type="qcurve" smooth="yes"/>
      <point x="763.2433333333333" y="11.65"/>
      <point x="669.9766666666667" y="64.06666666666666"/>
      <point x="668.6933333333334" y="100.88333333333334" type="qcurve" smooth="yes"/>
      <point x="667.1466666666666" y="131.5666666666667"/>
      <point x="710.6866666666667" y="176.21666666666667"/>
      <point x="752.53" y="176.21666666666667" type="qcurve" smooth="yes"/>
      <point x="802.5033333333333" y="176.21666666666667"/>
      <point x="856.5166666666667" y="107.58333333333334"/>
    </contour>
  </outline>
</glyph>
<glyph name="Thorn" format="2">
  <advance width="1261"/>
  <unicode hex="00DE"/>
  <outline>
    <contour>
      <point x="72.48" y="0.0" type="line"/>
      <point x="72.48" y="62.63333333333333" type="line"/>
      <point x="306.7133333333333" y="98.16" type="line"/>
      <point x="308.7133333333333" y="759.7333333333333" type="line"/>
      <point x="307.43" y="1400.1366666666665" type="line"/>
      <point x="85.38" y="1434.1366666666665" type="line"/>
      <point x="85.38" y="1500.0" type="line"/>
      <point x="648.7933333333333" y="1500.0" type="line"/>
      <point x="648.7933333333333" y="1437.8233333333333" type="line"/>
      <point x="415.09" y="1402.2433333333333" type="line"/>
      <point x="414.56333333333333" y="1260.02" type="line"/>
      <point x="705.75" y="1260.02" type="line" smooth="yes"/>
      <point x="936.3433333333334" y="1260.02"/>
      <point x="1184.01" y="1047.6033333333332"/>
      <point x="1184.01" y="839.1866666666666" type="qcurve" smooth="yes"/>
      <point x="1184.01" y="633.1866666666666"/>
      <point x="927.1766666666667" y="371.2033333333333"/>
      <point x="680.5333333333334" y="371.2033333333333" type="qcurve" smooth="yes"/>
      <point x="590.09" y="371.2033333333333"/>
      <point x="412.99333333333334" y="390.05333333333334"/>
      <point x="364.84" y="400.2033333333333" type="qcurve"/>
      <point x="370.19666666666666" y="469.6533333333333" type="line"/>
      <point x="428.8566666666667" y="454.50333333333333"/>
      <point x="560.1366666666667" y="444.07"/>
      <point x="661.5366666666666" y="444.07" type="qcurve" smooth="yes"/>
      <point x="850.13" y="444.07"/>
      <point x="1070.3533333333332" y="648.6866666666666"/>
      <point x="1070.3533333333332" y="840.62" type="qcurve" smooth="yes"/>
      <point x="1070.3533333333332" y="1012.8199999999999"/>
      <point x="859.8066666666667" y="1184.3233333333333"/>
      <point x="676.4" y="1184.3033333333333" type="qcurve" smooth="yes"/>
      <point x="414.8266666666667" y="1184.2833333333333" type="line"/>
      <point x="412.11" y="763.52" type="line"/>
      <point x="414.11" y="96.84333333333332" type="line"/>
      <point x="667.2466666666667" y="62.653333333333336" type="line"/>
      <point x="667.2466666666667" y="0.0" type="line"/>
    </contour>
  </outline>
</glyph>
<glyph name="divide" format="2">
  <advance width="993"/>
  <unicode hex="00F7"/>
  <outline>
    <contour>
      <point x="91.88333333333334" y="585.5633333333333" type="line"/>
      <point x="91.88333333333334" y="678.4366666666667" type="line"/>
      <point x="901.0033333333333" y="678.4366666666667" type="line"/>
      <point x="901.0033333333333" y="585.5633333333333" type="line"/>
    </contour>
    <contour>
      <point x="409.8233333333333" y="348.0933333333333" type="qcurve" smooth="yes"/>
      <point x="409.8233333333333" y="382.7133333333333"/>
      <point x="458.25666666666666" y="434.7133333333333"/>
      <point x="496.4433333333333" y="434.7133333333333" type="qcurve" smooth="yes"/>
      <point x="534.63" y="434.7133333333333"/>
      <point x="583.0633333333333" y="382.7133333333333"/>
      <point x="583.0633333333333" y="348.0933333333333" type="qcurve" smooth="yes"/>
      <point x="583.0633333333333" y="314.43333333333334"/>
      <point x="534.63" y="261.7166666666667"/>
      <point x="496.4433333333333" y="261.7166666666667" type="qcurve" smooth="yes"/>
      <point x="458.25666666666666" y="261.7166666666667"/>
      <point x="409.8233333333333" y="314.43333333333334"/>
    </contour>
    <contour>
      <point x="409.8233333333333" y="916.9266666666666" type="qcurve" smooth="yes"/>
      <point x="409.8233333333333" y="951.5666666666666"/>
      <point x="458.25666666666666" y="1004.2633333333333"/>
      <point x="496.4433333333333" y="1004.2633333333333" type="qcurve" smooth="yes"/>
      <point x="534.63" y="1004.2633333333333"/>
      <point x="583.0633333333333" y="951.5666666666666"/>
      <point x="583.0633333333333" y="916.9266666666666" type="qcurve" smooth="yes"/>
      <point x="583.0633333333333" y="883.2866666666667"/>
      <point x="534.63" y="831.2866666666666"/>
      <point x="496.4433333333333" y="831.2866666666666" type="qcurve" smooth="yes"/>
      <point x="458.25666666666666" y="831.2866666666666"/>
      <point x="409.8233333333333" y="883.2866666666667"/>
    </contour>
  </outline>
</glyph>
<glyph name="kgreenlandic" format="2">
  <advance width="1100"/>
  <unicode hex="0138"/>
  <outline>
    <contour>
      <point x="82.30333333333334" y="0.0" type="line"/>
      <point x="82.30333333333334" y="51.33333333333333" type="line"/>
      <point x="241.30666666666664" y="80.6" type="line"/>
      <point x="243.30666666666664" y="527.0" type="line"/>
      <point x="241.30666666666664" y="912.2333333333333" type="line"/>
      <point x="80.15333333333334" y="938.6333333333333" type="line"/>
      <point x="80.15333333333334" y="1000.0" type="line"/>
      <point x="502.69666666666666" y="1000.0" type="line"/>
      <point x="502.69666666666666" y="938.6333333333333" type="line"/>
      <point x="342.9233333333333" y="912.95" type="line"/>
      <point x="343.09333333333336" y="521.3333333333334" type="line"/>
      <point x="349.3733333333333" y="80.6" type="line"/>
      <point x="502.69666666666666" y="51.33333333333333" type="line"/>
      <point x="502.69666666666666" y="0.0" type="line"/>
    </contour>
    <contour>
      <point x="320.1766666666667" y="379.3833333333333" type="line"/>
      <point x="318.3833333333333" y="459.35" type="line"/>
      <point x="791.59" y="914.4" type="line"/>
      <point x="660.5333333333333" y="935.8" type="line"/>
      <point x="660.5333333333333" y="1000.0" type="line"/>
      <point x="1050.9566666666667" y="1000.0" type="line"/>
      <point x="1050.9566666666667" y="935.8" type="line"/>
      <point x="899.4433333333333" y="912.2666666666667" type="line"/>
    </contour>
    <contour>
      <point x="490.67333333333335" y="570.3333333333333" type="line"/>
      <point x="567.0400000000001" y="637.2833333333333" type="line"/>
      <point x="964.6866666666667" y="80.6" type="line"/>
      <point x="1107.05" y="51.33333333333333" type="line"/>
      <point x="1107.05" y="0.0" type="line"/>
      <point x="811.6933333333334" y="0.0" type="line"/>
      <point x="803.3366666666666" y="48.9" type="line"/>
      <point x="842.87" y="74.45" type="line"/>
    </contour>
  </outline>
</glyph>
<glyph name="OE" format="2">
  <advance width="2164"/>
  <unicode hex="0152"/>
  <outline>
    <contour>
      <point x="83.26333333333334" y="737.0" type="qcurve" smooth="yes"/>
      <point x="83.26333333333334" y="1068.0"/>
      <point x="472.1" y="1519.4333333333334"/>
      <point x="843.7933333333334" y="1519.4333333333334" type="qcurve" smooth="yes"/>
      <point x="919.5833333333334" y="1519.4333333333334"/>
      <point x="1189.15" y="1500.0"/>
      <point x="1253.21" y="1500.0" type="qcurve" smooth="yes"/>
      <point x="2005.9733333333334" y="1500.0" type="line"/>
      <point x="2005.9733333333334" y="1157.9333333333334" type="line"/>
      <point x="1935.9666666666667" y="1157.9333333333334" type="line"/>
      <point x="1894.0" y="1425.7166666666667" type="line"/>
      <point x="1331.9933333333333" y="1425.7166666666667" type="line"/>
      <point x="1304.6066666666666" y="1401.4166666666667" type="line"/>
      <point x="1303.3433333333332" y="783.7166666666667" type="line"/>
      <point x="1304.6066666666666" y="97.6" type="line"/>
      <point x="1330.8433333333332" y="71.45" type="line"/>
      <point x="1955.9033333333334" y="71.45" type="line"/>
      <point x="2037.9133333333332" y="372.26666666666665" type="line"/>
      <point x="2107.403333333333" y="372.26666666666665" type="line"/>
      <point x="2067.6433333333334" y="0.0" type="line"/>
      <point x="1285.7366666666667" y="0.0" type="line" smooth="yes"/>
      <point x="1218.6966666666667" y="0.0"/>
      <point x="928.1333333333333" y="-29.583333333333332"/>
      <point x="847.7733333333334" y="-29.583333333333332" type="qcurve" smooth="yes"/>
      <point x="493.57666666666665" y="-29.583333333333332"/>
      <point x="83.26333333333334" y="396.0"/>
    </contour>
    <contour>
      <point x="194.45333333333332" y="768.1333333333333" type="qcurve" smooth="yes"/>
      <point x="194.45333333333332" y="450.76666666666665"/>
      <point x="532.2733333333334" y="49.7"/>
      <point x="852.2233333333334" y="49.7" type="qcurve" smooth="yes"/>
      <point x="969.34" y="49.7"/>
      <point x="1137.5633333333333" y="71.86666666666667"/>
      <point x="1198.9066666666668" y="93.31666666666666" type="qcurve"/>
      <point x="1200.19" y="783.7166666666667" type="line"/>
      <point x="1198.9066666666668" y="1400.1333333333334" type="line"/>
      <point x="1138.8500000000001" y="1418.3166666666666"/>
      <point x="951.29" y="1438.8833333333334"/>
      <point x="840.7566666666668" y="1438.8833333333334" type="qcurve" smooth="yes"/>
      <point x="522.99" y="1438.8833333333334"/>
      <point x="194.45333333333332" y="1065.1833333333334"/>
    </contour>
    <contour>
      <point x="1253.6766666666667" y="753.05" type="line"/>
      <point x="1253.6766666666667" y="818.95" type="line"/>
      <point x="1756.4466666666667" y="822.5" type="line"/>
      <point x="1786.9466666666667" y="1001.1333333333333" type="line"/>
      <point x="1855.8366666666668" y="1001.1333333333333" type="line"/>
      <point x="1855.8366666666668" y="568.0" type="line"/>
      <point x="1786.9466666666667" y="568.0" type="line"/>
      <point x="1756.4466666666667" y="750.2166666666667" type="line"/>
    </contour>
  </outline>
</glyph>
<glyph name="tonos" format="2">
  <advance width="888"/>
  <unicode hex="0384"/>
  <anchor x="399.5866666666667" y="1000.0" name="_GRKtop"/>
  <outline>
    <contour>
      <point x="412.33666666666664" y="1157.7866666666666" type="line"/>
      <point x="363.1233333333333" y="1174.92" type="line"/>
      <point x="474.59666666666664" y="1604.6866666666665" type="line"/>
      <point x="575.1466666666666" y="1592.9966666666667" type="line"/>
      <point x="591.97" y="1565.2966666666666" type="line"/>
    </contour>
  </outline>
</glyph>
<glyph name="dieresistonos" format="2">
  <advance width="1140"/>
  <unicode hex="0385"/>
  <anchor x="560.1133333333333" y="1000.0" name="_GRKtop"/>
  <outline>
    <contour>
      <point x="326.52" y="1161.8066666666668" type="qcurve" smooth="yes"/>
      <point x="285.92333333333335" y="1161.8066666666668"/>
      <point x="238.92999999999998" y="1207.92"/>
      <point x="238.92999999999998" y="1247.3533333333335" type="qcurve" smooth="yes"/>
      <point x="238.92999999999998" y="1287.8999999999999"/>
      <point x="284.3566666666667" y="1332.4466666666667"/>
      <point x="326.52" y="1332.4466666666667" type="qcurve" smooth="yes"/>
      <point x="365.68333333333334" y="1332.4466666666667"/>
      <point x="411.96" y="1285.3533333333332"/>
      <point x="411.96" y="1247.3533333333335" type="qcurve" smooth="yes"/>
      <point x="411.96" y="1206.3533333333332"/>
      <point x="368.9666666666667" y="1161.8066666666668"/>
    </contour>
    <contour>
      <point x="569.7433333333333" y="1157.7866666666666" type="line"/>
      <point x="517.7" y="1166.58" type="line"/>
      <point x="563.5699999999999" y="1607.5900000000001" type="line"/>
      <point x="665.14" y="1612.0366666666666" type="line"/>
      <point x="686.36" y="1587.2266666666667" type="line"/>
    </contour>
    <contour>
      <point x="813.7800000000001" y="1161.8066666666668" type="qcurve" smooth="yes"/>
      <point x="774.6166666666666" y="1161.8066666666668"/>
      <point x="728.3399999999999" y="1207.92"/>
      <point x="728.3399999999999" y="1247.3533333333335" type="qcurve" smooth="yes"/>
      <point x="728.3399999999999" y="1287.8999999999999"/>
      <point x="772.3333333333333" y="1332.4466666666667"/>
      <point x="813.7800000000001" y="1332.4466666666667" type="qcurve" smooth="yes"/>
      <point x="854.3766666666667" y="1332.4466666666667"/>
      <point x="901.37" y="1285.3533333333332"/>
      <point x="901.37" y="1247.3533333333335" type="qcurve" smooth="yes"/>
      <point x="901.37" y="1206.3533333333332"/>
      <point x="856.9433333333334" y="1161.8066666666668"/>
    </contour>
  </outline>
</glyph>
<glyph name="Gamma" format="2">
  <advance width="1162"/>
  <unicode hex="0393"/>
  <outline>
    <contour>
      <point x="87.3" y="0.0" type="line"/>
      <point x="87.3" y="62.653333333333336" type="line"/>
      <point x="309.35" y="98.17999999999999" type="line"/>
      <point x="310.6333333333333" y="762.03" type="line"/>
      <point x="309.35" y="1400.1366666666665" type="line"/>
      <point x="87.3" y="1434.1366666666665" type="line"/>
      <point x="87.3" y="1500.0" type="line"/>
      <point x="1091.0633333333335" y="1500.0" type="line"/>
      <point x="1091.0633333333335" y="1103.2333333333333" type="line"/>
      <point x="1022.2966666666667" y="1103.2333333333333" type="line"/>
      <point x="974.8900000000001" y="1425.7166666666667" type="line"/>
      <point x="443.00333333333333" y="1425.7166666666667" type="line"/>
      <point x="415.3333333333333" y="1401.4166666666667" type="line"/>
      <point x="414.05" y="762.15" type="line"/>
      <point x="415.3333333333333" y="96.84333333333332" type="line"/>
      <point x="669.1866666666666" y="62.653333333333336" type="line"/>
      <point x="669.1866666666666" y="0.0" type="line"/>
    </contour>
  </outline>
</glyph>
<glyph name="Delta" format="2">
  <advance width="1493"/>
  <unicode hex="0394"/>
  <outline>
    <contour>
      <point x="132.30666666666667" y="0.0" type="line"/>
      <point x="132.30666666666667" y="72.01666666666667" type="line"/>
      <point x="319.02000000000004" y="538.7333333333333" type="line"/>
      <point x="694.79" y="1508.0" type="line"/>
      <point x="785.1966666666667" y="1508.0" type="line"/>
      <point x="1161.1133333333335" y="536.7333333333333" type="line"/>
      <point x="1342.1133333333332" y="72.01666666666667" type="line"/>
      <point x="1342.1133333333332" y="0.0" type="line"/>
    </contour>
    <contour>
      <point x="230.92000000000002" y="84.55666666666666" type="line"/>
      <point x="721.8466666666667" y="80.84" type="line"/>
      <point x="1223.6000000000001" y="85.55666666666666" type="line"/>
      <point x="1061.4366666666665" y="509.78333333333336" type="line"/>
      <point x="732.1233333333333" y="1365.43" type="line"/>
      <point x="397.97" y="514.22" type="line"/>
    </contour>
  </outline>
</glyph>
<glyph name="alpha" format="2">
  <advance width="1235"/>
  <unicode hex="03B1"/>
  <anchor x="510.72" y="1000.0" name="GRKtop"/>
  <outline>
    <contour>
      <point x="455.41" y="-14.733333333333334" type="qcurve" smooth="yes"/>
      <point x="269.71" y="-14.733333333333334"/>
      <point x="66.62666666666667" y="250.83333333333334"/>
      <point x="66.62666666666667" y="482.26666666666665" type="qcurve" smooth="yes"/>
      <point x="66.62666666666667" y="720.4166666666666"/>
      <point x="284.02000000000004" y="1030.73"/>
      <point x="484.01666666666665" y="1030.73" type="qcurve" smooth="yes"/>
      <point x="655.6366666666667" y="1030.73"/>
      <point x="828.41" y="802.4166666666666"/>
      <point x="884.0466666666667" y="526.0833333333334" type="qcurve"/>
      <point x="895.6233333333333" y="526.0833333333334" type="line"/>
      <point x="974.1533333333333" y="214.64666666666665"/>
      <point x="1058.4566666666667" y="81.96666666666665"/>
      <point x="1126.35" y="81.96666666666665" type="qcurve" smooth="yes"/>
      <point x="1190.1333333333334" y="81.96666666666665" type="line"/>
      <point x="1190.1333333333334" y="25.996666666666666" type="line"/>
      <point x="1067.1533333333332" y="-8.0" type="line"/>
      <point x="978.1833333333334" y="-8.0"/>
      <point x="896.3733333333333" y="144.72666666666666"/>
      <point x="833.8733333333333" y="430.68333333333334" type="qcurve"/>
      <point x="826.06" y="430.68333333333334" type="line"/>
      <point x="759.6133333333333" y="744.3666666666667"/>
      <point x="611.1633333333333" y="964.26"/>
      <point x="480.73333333333335" y="964.26" type="qcurve" smooth="yes"/>
      <point x="330.9366666666667" y="964.26"/>
      <point x="180.85" y="702.35"/>
      <point x="180.85" y="487.6766666666666" type="qcurve" smooth="yes"/>
      <point x="180.85" y="273.01666666666665"/>
      <point x="331.5766666666667" y="66.81333333333335"/>
      <point x="464.92" y="66.81333333333335" type="qcurve" smooth="yes"/>
      <point x="569.8766666666667" y="66.81333333333335"/>
      <point x="735.0566666666667" y="265.06666666666666"/>
      <point x="834.7566666666667" y="519.0666666666666" type="qcurve"/>
      <point x="846.7133333333333" y="519.0666666666666" type="line"/>
      <point x="1040.25" y="989.73" type="line"/>
      <point x="1138.66" y="1000.0" type="line"/>
      <point x="1165.06" y="980.1666666666666" type="line"/>
      <point x="894.4533333333333" y="413.9" type="line"/>
      <point x="879.8366666666667" y="413.9" type="line"/>
      <point x="781.4166666666667" y="195.78666666666666"/>
      <point x="598.8533333333334" y="-14.733333333333334"/>
    </contour>
  </outline>
</glyph>
<glyph name="gamma" format="2">
  <advance width="971"/>
  <unicode hex="03B3"/>
  <outline>
    <contour>
      <point x="479.06666666666666" y="-480.0" type="line"/>
      <point x="452.6666666666667" y="-460.1666666666667" type="line"/>
      <point x="473.85333333333335" y="20.266666666666666" type="line"/>
      <point x="489.2766666666667" y="20.266666666666666" type="line"/>
      <point x="678.02" y="527.25" type="line"/>
      <point x="827.4733333333334" y="989.9933333333333" type="line"/>
      <point x="925.8833333333333" y="1000.0" type="line"/>
      <point x="952.2833333333334" y="980.1666666666666" type="line"/>
      <point x="754.14" y="489.1166666666667" type="line"/>
      <point x="541.0866666666667" y="-69.36666666666667" type="line"/>
      <point x="489.49" y="-69.36666666666667" type="line"/>
      <point x="284.69" y="491.75" type="line"/>
      <point x="159.19333333333333" y="846.9000000000001" type="line" smooth="yes"/>
      <point x="149.27333333333334" y="875.2333333333333"/>
      <point x="116.64333333333333" y="902.1366666666667"/>
      <point x="88.73" y="905.9266666666666" type="qcurve" smooth="yes"/>
      <point x="-23.883333333333336" y="920.1733333333333" type="line"/>
      <point x="-23.883333333333336" y="983.3566666666667" type="line"/>
      <point x="141.42333333333332" y="1005.89" type="line"/>
      <point x="183.53666666666666" y="1005.89"/>
      <point x="230.26" y="970.1766666666667"/>
      <point x="246.5" y="917.55" type="qcurve" smooth="yes"/>
      <point x="376.1666666666667" y="522.8166666666667" type="line"/>
      <point x="544.6600000000001" y="38.416666666666664" type="line"/>
      <point x="556.9366666666666" y="38.416666666666664" type="line"/>
      <point x="573.3266666666667" y="-469.73" type="line"/>
    </contour>
  </outline>
</glyph>
<glyph name="delta" format="2">
  <advance width="1076"/>
  <unicode hex="03B4"/>
  <outline>
    <contour>
      <point x="535.6466666666666" y="-21.9" type="qcurve" smooth="yes"/>
      <point x="314.79" y="-21.9"/>
      <point x="66.58666666666666" y="228.0"/>
      <point x="66.58666666666666" y="429.1333333333333" type="qcurve" smooth="yes"/>
      <point x="66.58666666666666" y="620.9666666666667"/>
      <point x="314.7" y="898.4"/>
      <point x="552.4533333333333" y="952.1666666666666" type="qcurve"/>
      <point x="600.58" y="942.85" type="line"/>
      <point x="623.3133333333333" y="919.1833333333333" type="line"/>
      <point x="391.4933333333333" y="858.7"/>
      <point x="178.33666666666667" y="608.4666666666667"/>
      <point x="177.50666666666666" y="431.96666666666664" type="qcurve" smooth="yes"/>
      <point x="176.67666666666668" y="256.41666666666663"/>
      <point x="373.02000000000004" y="47.21"/>
      <point x="536.6466666666666" y="47.21" type="qcurve" smooth="yes"/>
      <point x="703.6666666666666" y="47.21"/>
      <point x="899.2566666666667" y="279.00333333333333"/>
      <point x="899.2566666666667" y="445.1333333333333" type="qcurve" smooth="yes"/>
      <point x="899.2566666666667" y="587.54"/>
      <point x="740.2666666666667" y="804.0233333333334"/>
      <point x="519.51" y="904.23" type="qcurve" smooth="yes"/>
      <point x="362.2366666666667" y="976.8666666666667"/>
      <point x="208.07999999999998" y="1141.25"/>
      <point x="208.07999999999998" y="1243.5166666666667" type="qcurve" smooth="yes"/>
      <point x="208.07999999999998" y="1376.6766666666665"/>
      <point x="427.08" y="1538.4333333333334"/>
      <point x="609.9333333333334" y="1538.4333333333334" type="qcurve" smooth="yes"/>
      <point x="720.3433333333334" y="1538.4333333333334"/>
      <point x="928.7033333333334" y="1480.8166666666666"/>
      <point x="968.8" y="1446.5333333333333" type="qcurve"/>
      <point x="969.0066666666667" y="1186.8166666666666" type="line"/>
      <point x="903.7066666666667" y="1186.8166666666666" type="line"/>
      <point x="846.5933333333332" y="1397.6733333333334" type="line"/>
      <point x="821.57" y="1420.34"/>
      <point x="696.7366666666667" y="1455.6066666666666"/>
      <point x="596.8433333333334" y="1455.6066666666666" type="qcurve" smooth="yes"/>
      <point x="467.52333333333337" y="1455.6066666666666"/>
      <point x="308.54333333333335" y="1355.3933333333334"/>
      <point x="308.54333333333335" y="1250.9333333333334" type="qcurve" smooth="yes"/>
      <point x="308.54333333333335" y="1192.99"/>
      <point x="384.13666666666666" y="1079.9766666666667"/>
      <point x="621.1" y="957.4166666666666" type="qcurve" smooth="yes"/>
      <point x="837.4433333333333" y="845.4533333333334"/>
      <point x="1009.4033333333333" y="593.5"/>
      <point x="1009.4033333333333" y="456.68333333333334" type="qcurve" smooth="yes"/>
      <point x="1009.4033333333333" y="255.45"/>
      <point x="746.96" y="-21.9"/>
    </contour>
  </outline>
</glyph>
<glyph name="kappa" format="2">
  <advance width="1064"/>
  <unicode hex="03BA"/>
  <outline>
    <contour>
      <point x="182.95666666666668" y="0.0" type="line"/>
      <point x="183.03" y="463.71" type="line"/>
      <point x="175.87666666666667" y="989.9933333333333" type="line"/>
      <point x="274.0866666666667" y="1000.0" type="line"/>
      <point x="300.4866666666667" y="980.1666666666666" type="line"/>
      <point x="284.23" y="458.4433333333333" type="line"/>
      <point x="284.75666666666666" y="0.0" type="line"/>
    </contour>
    <contour>
      <point x="231.84" y="174.31666666666666" type="line"/>
      <point x="231.84" y="277.1166666666667" type="line"/>
      <point x="693.0" y="858.9499999999999" type="line" smooth="yes"/>
      <point x="754.7333333333333" y="934.2266666666667"/>
      <point x="860.5799999999999" y="1004.9333333333333"/>
      <point x="936.3433333333332" y="1009.8" type="qcurve"/>
      <point x="960.6366666666667" y="988.1233333333333" type="line"/>
      <point x="946.0500000000001" y="862.4499999999999" type="line"/>
      <point x="848.8399999999999" y="860.3"/>
      <point x="757.8833333333333" y="814.51"/>
      <point x="717.1633333333333" y="766.6999999999999" type="qcurve" smooth="yes"/>
    </contour>
    <contour>
      <point x="897.54" y="-8.0" type="line"/>
      <point x="838.5033333333333" y="-7.283333333333333"/>
      <point x="783.2566666666667" y="28.573333333333334"/>
      <point x="755.7933333333333" y="81.50333333333333" type="qcurve" smooth="yes"/>
      <point x="501.3366666666667" y="559.6999999999999" type="line"/>
      <point x="564.2966666666666" y="635.5866666666666" type="line"/>
      <point x="798.66" y="225.56333333333333" type="line" smooth="yes"/>
      <point x="848.63" y="137.08333333333334"/>
      <point x="913.3333333333333" y="81.96666666666665"/>
      <point x="959.37" y="81.96666666666665" type="qcurve" smooth="yes"/>
      <point x="1020.0566666666666" y="81.96666666666665" type="line"/>
      <point x="1020.0566666666666" y="25.996666666666666" type="line"/>
    </contour>
  </outline>
</glyph>
<glyph name="lambda" format="2">
  <advance width="1001"/>
  <unicode hex="03BB"/>
  <outline>
    <contour>
      <point x="872.6733333333334" y="-8.0" type="line"/>
      <point x="821.9566666666667" y="-8.0"/>
      <point x="751.5466666666667" y="35.20666666666666"/>
      <point x="731.2133333333334" y="92.31666666666668" type="qcurve" smooth="yes"/>
      <point x="438.55333333333334" y="915.2566666666667" type="line"/>
      <point x="277.87" y="1318.0533333333333" type="line" smooth="yes"/>
      <point x="246.49666666666667" y="1397.9433333333334"/>
      <point x="197.65333333333334" y="1432.0533333333333"/>
      <point x="158.33666666666667" y="1437.45" type="qcurve" smooth="yes"/>
      <point x="46.980000000000004" y="1452.02" type="line"/>
      <point x="46.980000000000004" y="1515.2033333333334" type="line"/>
      <point x="205.83333333333334" y="1537.7366666666667" type="line"/>
      <point x="264.8133333333333" y="1537.7366666666667"/>
      <point x="333.06666666666666" y="1463.8866666666668"/>
      <point x="363.1" y="1377.4533333333334" type="qcurve" smooth="yes"/>
      <point x="490.93" y="1011.8033333333334" type="line"/>
      <point x="813.1333333333333" y="183.37333333333333" type="line" smooth="yes"/>
      <point x="832.1833333333334" y="133.85"/>
      <point x="888.9833333333333" y="81.96666666666665"/>
      <point x="928.92" y="81.96666666666665" type="qcurve" smooth="yes"/>
      <point x="997.01" y="81.96666666666665" type="line"/>
      <point x="997.01" y="25.996666666666666" type="line"/>
    </contour>
    <contour>
      <point x="15.360000000000001" y="0.0" type="line"/>
      <point x="-11.04" y="19.833333333333332" type="line"/>
      <point x="179.77333333333334" y="448.50666666666666" type="line"/>
      <point x="427.55333333333334" y="1040.4933333333333" type="line"/>
      <point x="464.94" y="942.94" type="line"/>
      <point x="258.0333333333333" y="412.5133333333333" type="line"/>
      <point x="120.73666666666666" y="10.006666666666666" type="line"/>
    </contour>
  </outline>
</glyph>
<glyph name="chi" format="2">
  <advance width="979"/>
  <unicode hex="03C7"/>
  <outline>
    <contour>
      <point x="911.8299999999999" y="-485.1333333333333" type="line"/>
      <point x="855.9066666666666" y="-485.1333333333333"/>
      <point x="801.05" y="-434.71666666666664"/>
      <point x="780.77" y="-391.47333333333336" type="qcurve" smooth="yes"/>
      <point x="483.67999999999995" y="238.52333333333334" type="line"/>
      <point x="187.19333333333333" y="821.9366666666667" type="line" smooth="yes"/>
      <point x="159.5" y="877.4466666666667"/>
      <point x="110.24666666666667" y="903.5500000000001"/>
      <point x="58.01666666666667" y="910.7166666666667" type="qcurve" smooth="yes"/>
      <point x="-14.143333333333338" y="919.4166666666666" type="line"/>
      <point x="-14.143333333333338" y="982.6" type="line"/>
      <point x="145.71666666666664" y="1005.1333333333333" type="line"/>
      <point x="195.78666666666666" y="1005.0333333333333"/>
      <point x="240.45333333333332" y="951.93"/>
      <point x="266.2766666666667" y="895.1866666666666" type="qcurve" smooth="yes"/>
      <point x="539.6766666666666" y="316.51666666666665" type="line"/>
      <point x="859.8366666666667" y="-321.43" type="line" smooth="yes"/>
      <point x="874.8166666666667" y="-351.9533333333333"/>
      <point x="929.1933333333333" y="-393.85"/>
      <point x="973.4433333333334" y="-395.1666666666667" type="qcurve"/>
      <point x="1034.85" y="-395.1666666666667" type="line"/>
      <point x="1034.85" y="-451.13666666666666" type="line"/>
    </contour>
    <contour>
      <point x="67.16333333333333" y="-480.0" type="line"/>
      <point x="40.763333333333335" y="-460.1666666666667" type="line"/>
      <point x="284.6433333333333" y="-42.763333333333335" type="line"/>
      <point x="482.03666666666663" y="307.8833333333333" type="line"/>
      <point x="521.1533333333333" y="233.18" type="line"/>
      <point x="357.63666666666666" y="-84.80333333333333" type="line"/>
      <point x="165.37333333333333" y="-469.99333333333334" type="line"/>
    </contour>
    <contour>
      <point x="543.7199999999999" y="252.84" type="line"/>
      <point x="506.03666666666663" y="329.6933333333333" type="line"/>
      <point x="646.6466666666666" y="604.8033333333334" type="line"/>
      <point x="838.91" y="989.9933333333333" type="line"/>
      <point x="937.12" y="1000.0" type="line"/>
      <point x="963.52" y="980.1666666666666" type="line"/>
      <point x="719.64" y="562.7633333333333" type="line"/>
    </contour>
  </outline>
</glyph>
<glyph name="Dje" format="2">
  <advance width="1623"/>
  <unicode hex="0402"/>
  <guideline x="568.0" y="625.0" angle="90.0" identifier="YDADns81zF"/>
  <outline>
    <contour>
      <point x="1159.72" y="0.0" type="qcurve"/>
      <point x="1159.72" y="62.733333333333334" type="line"/>
      <point x="1297.42" y="72.06333333333333"/>
      <point x="1446.2266666666667" y="265.2033333333333"/>
      <point x="1446.2266666666667" y="421.4633333333333" type="qcurve" smooth="yes"/>
      <point x="1446.2266666666667" y="586.9991896869467"/>
      <point x="1249.994496365513" y="772.0"/>
      <point x="1045.52" y="772.0" type="qcurve" smooth="yes"/>
      <point x="917.1297143311264" y="772.0"/>
      <point x="728.9479994045026" y="740.0290706568223"/>
      <point x="636.75" y="707.8366666666667" type="qcurve"/>
      <point x="636.75" y="786.5400000000001" type="line"/>
      <point x="729.2483293444556" y="820.734826989739"/>
      <point x="928.9908535211127" y="855.12"/>
      <point x="1053.94" y="855.12" type="qcurve" smooth="yes"/>
      <point x="1307.4645915678525" y="855.12"/>
      <point x="1562.8" y="632.0521902477767"/>
      <point x="1562.8" y="428.00666666666666" type="qcurve" smooth="yes"/>
      <point x="1562.8" y="231.01333333333332"/>
      <point x="1343.0366666666666" y="0.28"/>
    </contour>
    <contour>
      <point x="59.35" y="1098.9833333333333" type="line"/>
      <point x="59.35" y="1500.0" type="line"/>
      <point x="1267.7666666666667" y="1500.0" type="line"/>
      <point x="1267.7666666666667" y="1110.1166666666668" type="line"/>
      <point x="1197.9" y="1110.1166666666668" type="line"/>
      <point x="1150.0" y="1425.7166666666667" type="line"/>
      <point x="714.7333333333333" y="1425.7166666666667" type="line"/>
      <point x="690.8166666666667" y="1411.45" type="line"/>
      <point x="688.8166666666667" y="754.0" type="line"/>
      <point x="690.8166666666667" y="97.89666666666666" type="line"/>
      <point x="931.6999999999999" y="62.63333333333333" type="line"/>
      <point x="931.6999999999999" y="0.0" type="line"/>
      <point x="336.73333333333335" y="0.0" type="line"/>
      <point x="336.73333333333335" y="62.63333333333333" type="line"/>
      <point x="582.6833333333333" y="97.89666666666666" type="line"/>
      <point x="584.6833333333333" y="754.0" type="line"/>
      <point x="582.6833333333333" y="1410.0166666666667" type="line"/>
      <point x="562.1166666666667" y="1425.7166666666667" type="line"/>
      <point x="171.38333333333333" y="1425.7166666666667" type="line"/>
      <point x="129.93333333333334" y="1098.9833333333333" type="line"/>
    </contour>
  </outline>
</glyph>
<glyph name="Nje" format="2">
  <advance width="2115"/>
  <unicode hex="040A"/>
  <outline>
    <contour>
      <point x="85.38" y="0.0" type="line"/>
      <point x="643.1466666666666" y="0.0" type="line"/>
      <point x="643.1466666666666" y="62.653333333333336" type="line"/>
      <point x="414.8466666666667" y="97.65333333333334" type="line"/>
      <point x="412.8466666666667" y="754.0" type="line"/>
      <point x="414.8466666666667" y="1400.1366666666665" type="line"/>
      <point x="643.1466666666666" y="1434.1366666666665" type="line"/>
      <point x="643.1466666666666" y="1500.0" type="line"/>
      <point x="85.38" y="1500.0" type="line"/>
      <point x="85.38" y="1434.1366666666665" type="line"/>
      <point x="306.7133333333333" y="1400.1366666666665" type="line"/>
      <point x="308.7133333333333" y="754.0" type="line"/>
      <point x="306.7133333333333" y="97.65333333333334" type="line"/>
      <point x="85.38" y="62.653333333333336" type="line"/>
    </contour>
    <contour>
      <point x="360.78000000000003" y="778.8466666666667" type="line"/>
      <point x="860.68" y="778.8466666666667" type="line"/>
      <point x="1225.9133333333334" y="778.8466666666667" type="line"/>
      <point x="1225.9133333333334" y="857.9666666666667" type="line"/>
      <point x="860.68" y="849.9666666666667" type="line"/>
      <point x="360.78000000000003" y="857.9666666666667" type="line"/>
    </contour>
    <contour>
      <point x="950.7133333333334" y="0.0" type="line"/>
      <point x="1565.9833333333333" y="0.0" type="line" smooth="yes"/>
      <point x="1799.7266666666665" y="0.0"/>
      <point x="2065.1600000000003" y="236.29666666666668"/>
      <point x="2065.1600000000003" y="444.3666666666667" type="qcurve" smooth="yes"/>
      <point x="2065.1600000000003" y="647.6066666666667"/>
      <point x="1811.0433333333333" y="857.21"/>
      <point x="1564.1433333333334" y="857.21" type="qcurve" smooth="yes"/>
      <point x="1286.4666666666665" y="857.21" type="line"/>
      <point x="1278.2433333333333" y="869.0600000000001" type="line"/>
      <point x="1279.98" y="1400.1366666666665" type="line"/>
      <point x="1508.48" y="1434.1366666666665" type="line"/>
      <point x="1508.48" y="1500.0" type="line"/>
      <point x="950.7133333333334" y="1500.0" type="line"/>
      <point x="950.7133333333334" y="1434.1366666666665" type="line"/>
      <point x="1171.8466666666668" y="1400.1366666666665" type="line"/>
      <point x="1173.8466666666668" y="749.26" type="line"/>
      <point x="1171.8466666666668" y="97.65333333333334" type="line"/>
      <point x="950.7133333333334" y="62.653333333333336" type="line"/>
    </contour>
    <contour>
      <point x="1278.5066666666667" y="769.5266666666666" type="line"/>
      <point x="1284.6" y="781.3766666666667" type="line"/>
      <point x="1546.15" y="781.3766666666667" type="line" smooth="yes"/>
      <point x="1738.5566666666668" y="781.3766666666667"/>
      <point x="1947.92" y="613.5400000000001"/>
      <point x="1947.92" y="444.3666666666667" type="qcurve" smooth="yes"/>
      <point x="1947.92" y="258.2666666666667"/>
      <point x="1736.4866666666667" y="72.16666666666666"/>
      <point x="1543.5933333333332" y="72.88333333333333" type="qcurve" smooth="yes"/>
      <point x="1310.2766666666666" y="73.6" type="line"/>
      <point x="1279.2633333333333" y="92.03666666666666" type="line"/>
    </contour>
  </outline>
</glyph>
<glyph name="Dzhe" format="2">
  <advance width="1703"/>
  <unicode hex="040F"/>
  <outline>
    <contour>
      <point x="814.3633333333333" y="-338.0" type="line"/>
      <point x="773.3466666666666" y="0.0" type="line"/>
      <point x="85.38" y="0.0" type="line"/>
      <point x="85.38" y="62.89333333333333" type="line"/>
      <point x="306.7133333333333" y="97.87333333333333" type="line"/>
      <point x="308.7133333333333" y="749.1" type="line"/>
      <point x="306.7133333333333" y="1400.3566666666666" type="line"/>
      <point x="85.38" y="1434.3766666666666" type="line"/>
      <point x="85.38" y="1500.0" type="line"/>
      <point x="643.1466666666666" y="1500.0" type="line"/>
      <point x="643.1466666666666" y="1434.3766666666666" type="line"/>
      <point x="414.8466666666667" y="1400.3566666666666" type="line"/>
      <point x="412.8466666666667" y="749.1" type="line"/>
      <point x="413.4133333333333" y="98.77333333333334" type="line"/>
      <point x="442.2633333333333" y="71.65" type="line"/>
      <point x="1260.7633333333333" y="71.65" type="line"/>
      <point x="1289.6133333333335" y="98.77333333333334" type="line"/>
      <point x="1290.18" y="749.1" type="line"/>
      <point x="1288.18" y="1400.3566666666666" type="line"/>
      <point x="1059.8799999999999" y="1434.3766666666666" type="line"/>
      <point x="1059.8799999999999" y="1500.0" type="line"/>
      <point x="1617.6466666666668" y="1500.0" type="line"/>
      <point x="1617.6466666666668" y="1434.3766666666666" type="line"/>
      <point x="1396.3133333333335" y="1400.3566666666666" type="line"/>
      <point x="1394.3133333333335" y="749.1" type="line"/>
      <point x="1396.3133333333335" y="97.87333333333333" type="line"/>
      <point x="1617.6466666666668" y="62.89333333333333" type="line"/>
      <point x="1617.6466666666668" y="0.0" type="line"/>
      <point x="929.6800000000001" y="0.0" type="line"/>
      <point x="887.9466666666666" y="-338.0" type="line"/>
    </contour>
  </outline>
</glyph>
<glyph name="Be" format="2">
  <advance width="1281"/>
  <unicode hex="0411"/>
  <outline>
    <contour>
      <point x="412.8466666666667" y="858.4" type="line"/>
      <point x="421.07" y="846.5500000000001" type="line"/>
      <point x="696.6099999999999" y="846.5500000000001" type="line" smooth="yes"/>
      <point x="921.2933333333333" y="846.5500000000001"/>
      <point x="1179.71" y="653.0766666666667"/>
      <point x="1179.71" y="442.55" type="qcurve" smooth="yes"/>
      <point x="1179.71" y="242.32333333333332"/>
      <point x="927.1766666666667" y="0.0"/>
      <point x="700.6" y="0.0" type="qcurve" smooth="yes"/>
      <point x="85.38" y="0.0" type="line"/>
      <point x="85.38" y="62.653333333333336" type="line"/>
      <point x="306.7133333333333" y="97.65333333333334" type="line"/>
      <point x="308.7133333333333" y="749.26" type="line"/>
      <point x="306.7133333333333" y="1400.1366666666665" type="line"/>
      <point x="85.38" y="1434.1366666666665" type="line"/>
      <point x="85.38" y="1500.0" type="line"/>
      <point x="1080.8266666666666" y="1500.0" type="line"/>
      <point x="1080.8266666666666" y="1124.2833333333333" type="line"/>
      <point x="1011.02" y="1124.2833333333333" type="line"/>
      <point x="963.32" y="1425.7166666666667" type="line"/>
      <point x="441.8" y="1425.7166666666667" type="line"/>
      <point x="414.8466666666667" y="1411.45" type="line"/>
    </contour>
    <contour>
      <point x="413.11" y="762.45" type="line"/>
      <point x="415.11" y="92.03666666666666" type="line"/>
      <point x="446.12333333333333" y="73.6" type="line"/>
      <point x="678.9266666666667" y="72.88333333333333" type="line" smooth="yes"/>
      <point x="863.2199999999999" y="72.16666666666666"/>
      <point x="1062.47" y="260.69"/>
      <point x="1062.47" y="442.55" type="qcurve" smooth="yes"/>
      <point x="1062.47" y="616.1433333333333"/>
      <point x="860.99" y="774.3"/>
      <point x="680.7666666666667" y="774.3" type="qcurve" smooth="yes"/>
      <point x="419.2033333333333" y="774.3" type="line"/>
    </contour>
  </outline>
</glyph>
<glyph name="Ghe" format="2">
  <advance width="1177"/>
  <unicode hex="0413"/>
  <outline>
    <contour>
      <point x="85.38" y="0.0" type="line"/>
      <point x="85.38" y="62.653333333333336" type="line"/>
      <point x="306.7133333333333" y="98.17999999999999" type="line"/>
      <point x="308.7133333333333" y="755.58" type="line"/>
      <point x="306.7133333333333" y="1400.1366666666665" type="line"/>
      <point x="85.38" y="1434.1366666666665" type="line"/>
      <point x="85.38" y="1500.0" type="line"/>
      <point x="1109.1433333333334" y="1500.0" type="line"/>
      <point x="1109.1433333333334" y="1147.9333333333334" type="line"/>
      <point x="1039.3366666666666" y="1147.9333333333334" type="line"/>
      <point x="1005.97" y="1425.7166666666667" type="line"/>
      <point x="442.51666666666665" y="1425.7166666666667" type="line"/>
      <point x="414.8466666666667" y="1401.4166666666667" type="line"/>
      <point x="412.13" y="755.7" type="line"/>
      <point x="414.8466666666667" y="96.84333333333332" type="line"/>
      <point x="667.2666666666667" y="62.653333333333336" type="line"/>
      <point x="667.2666666666667" y="0.0" type="line"/>
    </contour>
  </outline>
</glyph>
<glyph name="Zhe" format="2">
  <advance width="2129"/>
  <unicode hex="0416"/>
  <guideline x="480.0" y="796.0" angle="90.0" identifier="vQLQteAbfW"/>
  <outline>
    <contour>
      <point x="788.2966666666666" y="0.0" type="line"/>
      <point x="788.2966666666666" y="62.653333333333336" type="line"/>
      <point x="1009.4300000000001" y="97.65333333333334" type="line"/>
      <point x="1011.4300000000001" y="754.0" type="line"/>
      <point x="1009.4300000000001" y="1400.1366666666665" type="line"/>
      <point x="790.9300000000001" y="1434.1366666666665" type="line"/>
      <point x="790.9300000000001" y="1500.0" type="line"/>
      <point x="1336.0633333333335" y="1500.0" type="line"/>
      <point x="1336.0633333333335" y="1434.1366666666665" type="line"/>
      <point x="1117.5633333333335" y="1400.1366666666665" type="line"/>
      <point x="1115.5633333333335" y="754.0" type="line"/>
      <point x="1117.5633333333335" y="97.65333333333334" type="line"/>
      <point x="1338.6966666666667" y="62.653333333333336" type="line"/>
      <point x="1338.6966666666667" y="0.0" type="line"/>
    </contour>
    <contour>
      <point x="1063.4966666666667" y="745.4233333333333" type="line"/>
      <point x="1063.4966666666667" y="827.1766666666667" type="line"/>
      <point x="1345.88" y="823.1766666666667" type="line"/>
      <point x="1780.81" y="1396.45" type="line"/>
      <point x="1607.2366666666667" y="1434.1366666666665" type="line"/>
      <point x="1607.2366666666667" y="1500.0" type="line"/>
      <point x="2082.583333333333" y="1500.0" type="line"/>
      <point x="2082.583333333333" y="1434.1366666666665" type="line"/>
      <point x="1892.7433333333333" y="1396.45" type="line"/>
      <point x="1407.8666666666666" y="776.9533333333333" type="line"/>
      <point x="1378.9666666666667" y="743.2733333333333" type="line"/>
    </contour>
    <contour>
      <point x="1345.52" y="748.2933333333333" type="line"/>
      <point x="1415.0466666666666" y="818.3866666666667" type="line"/>
      <point x="1977.8" y="97.63333333333334" type="line"/>
      <point x="2171.8433333333332" y="62.653333333333336" type="line"/>
      <point x="2171.8433333333332" y="0.0" type="line"/>
      <point x="1656.1933333333332" y="0.0" type="line"/>
      <point x="1656.1933333333332" y="62.653333333333336" type="line"/>
      <point x="1853.2733333333333" y="97.63333333333334" type="line"/>
    </contour>
    <contour>
      <point x="1063.4966666666667" y="745.4233333333333" type="line"/>
      <point x="748.0266666666668" y="743.2733333333333" type="line"/>
      <point x="711.9466666666667" y="777.1733333333333" type="line"/>
      <point x="227.19" y="1396.45" type="line"/>
      <point x="37.47" y="1434.1366666666665" type="line"/>
      <point x="37.47" y="1500.0" type="line"/>
      <point x="519.7566666666667" y="1500.0" type="line"/>
      <point x="519.7566666666667" y="1434.1366666666665" type="line"/>
      <point x="346.18333333333334" y="1396.45" type="line"/>
      <point x="781.1133333333333" y="823.1766666666667" type="line"/>
      <point x="1063.4966666666667" y="827.1766666666667" type="line"/>
    </contour>
    <contour>
      <point x="781.4733333333334" y="748.2933333333333" type="line"/>
      <point x="273.72" y="97.63333333333334" type="line"/>
      <point x="470.8" y="62.653333333333336" type="line"/>
      <point x="470.8" y="0.0" type="line"/>
      <point x="-42.7" y="0.0" type="line"/>
      <point x="-42.7" y="62.653333333333336" type="line"/>
      <point x="152.27333333333334" y="97.63333333333334" type="line"/>
      <point x="715.0266666666668" y="818.3866666666667" type="line"/>
    </contour>
  </outline>
</glyph>
<glyph name="Sha" format="2">
  <advance width="2272"/>
  <unicode hex="0428"/>
  <outline>
    <contour>
      <point x="1193.8799999999999" y="98.63333333333334" type="line"/>
      <point x="1222.8899999999999" y="71.45" type="line"/>
      <point x="1828.6033333333335" y="71.45" type="line"/>
      <point x="1857.6133333333335" y="98.63333333333334" type="line"/>
      <point x="1859.6133333333335" y="751.7333333333333" type="line"/>
      <point x="1857.6133333333335" y="1400.3566666666666" type="line"/>
      <point x="1629.3133333333335" y="1434.3766666666666" type="line"/>
      <point x="1629.3133333333335" y="1500.0" type="line"/>
      <point x="2187.0800000000004" y="1500.0" type="line"/>
      <point x="2187.0800000000004" y="1434.3766666666666" type="line"/>
      <point x="1965.7466666666667" y="1400.3566666666666" type="line"/>
      <point x="1963.7466666666667" y="751.7333333333333" type="line"/>
      <point x="1965.7466666666667" y="96.93666666666667" type="line"/>
      <point x="2187.0800000000004" y="62.653333333333336" type="line"/>
      <point x="2187.0800000000004" y="0.0" type="line"/>
      <point x="85.38" y="0.0" type="line"/>
      <point x="85.38" y="62.653333333333336" type="line"/>
      <point x="306.7133333333333" y="96.93666666666667" type="line"/>
      <point x="308.7133333333333" y="751.7333333333333" type="line"/>
      <point x="306.7133333333333" y="1400.3566666666666" type="line"/>
      <point x="85.38" y="1434.3766666666666" type="line"/>
      <point x="85.38" y="1500.0" type="line"/>
      <point x="621.6466666666666" y="1500.0" type="line"/>
      <point x="621.6466666666666" y="1434.3766666666666" type="line"/>
      <point x="414.8466666666667" y="1400.3566666666666" type="line"/>
      <point x="412.8466666666667" y="751.7333333333333" type="line"/>
      <point x="413.4133333333333" y="98.63333333333334" type="line"/>
      <point x="442.4233333333333" y="71.45" type="line"/>
      <point x="1056.7366666666667" y="71.45" type="line"/>
      <point x="1085.7466666666667" y="98.63333333333334" type="line"/>
      <point x="1087.7466666666667" y="753.84" type="line"/>
      <point x="1085.7466666666667" y="1399.5666666666668" type="line"/>
      <point x="876.1133333333333" y="1430.4566666666667" type="line"/>
      <point x="876.1133333333333" y="1500.0" type="line"/>
      <point x="1403.3133333333333" y="1500.0" type="line"/>
      <point x="1403.3133333333333" y="1430.4566666666667" type="line"/>
      <point x="1193.8799999999999" y="1399.5666666666668" type="line"/>
      <point x="1191.8799999999999" y="753.84" type="line"/>
    </contour>
  </outline>
</glyph>
<glyph name="Hard" format="2">
  <advance width="1432"/>
  <unicode hex="042A"/>
  <outline>
    <contour>
      <point x="595.5433333333334" y="898.5166666666667" type="line"/>
      <point x="603.7666666666667" y="886.6666666666666" type="line"/>
      <point x="881.4433333333333" y="886.6666666666666" type="line" smooth="yes"/>
      <point x="1128.3433333333332" y="886.6666666666666"/>
      <point x="1382.46" y="665.65"/>
      <point x="1382.46" y="454.3666666666667" type="qcurve" smooth="yes"/>
      <point x="1382.46" y="242.63333333333333"/>
      <point x="1117.0266666666666" y="0.0"/>
      <point x="883.2833333333333" y="0.0" type="qcurve" smooth="yes"/>
      <point x="267.81333333333333" y="0.0" type="line"/>
      <point x="267.81333333333333" y="62.653333333333336" type="line"/>
      <point x="489.14666666666665" y="97.65333333333334" type="line"/>
      <point x="491.14666666666665" y="749.26" type="line"/>
      <point x="489.14666666666665" y="1427.15" type="line"/>
      <point x="149.88333333333333" y="1427.15" type="line"/>
      <point x="108.43333333333334" y="1100.4166666666667" type="line"/>
      <point x="37.85" y="1100.4166666666667" type="line"/>
      <point x="37.85" y="1501.4333333333334" type="line"/>
      <point x="825.78" y="1500.0" type="line"/>
      <point x="825.78" y="1434.1366666666665" type="line"/>
      <point x="597.28" y="1400.1366666666665" type="line"/>
    </contour>
    <contour>
      <point x="595.8066666666667" y="798.9833333333333" type="line"/>
      <point x="596.8266666666667" y="92.03666666666666" type="line"/>
      <point x="627.84" y="73.6" type="line"/>
      <point x="860.8933333333333" y="72.88333333333333" type="line" smooth="yes"/>
      <point x="1053.7866666666666" y="72.16666666666666"/>
      <point x="1265.22" y="264.5833333333333"/>
      <point x="1265.22" y="454.3666666666667" type="qcurve" smooth="yes"/>
      <point x="1265.22" y="632.3"/>
      <point x="1055.8566666666668" y="810.8333333333333"/>
      <point x="863.45" y="810.8333333333333" type="qcurve" smooth="yes"/>
      <point x="601.9" y="810.8333333333333" type="line"/>
    </contour>
  </outline>
</glyph>
<glyph name="icyr" format="2">
  <advance width="1290"/>
  <unicode hex="0438"/>
  <guideline x="302.0" y="625.0" angle="90.0" identifier="jHuxcyi1x5"/>
  <guideline x="973.0" y="554.0" angle="90.0" identifier="b1mHk7wgTR"/>
  <guideline x="627.0" y="553.0" angle="90.0" identifier="m4aYe0x4PZ"/>
  <guideline x="641.0" y="891.0" angle="90.0" identifier="cgCypNhhfk"/>
  <outline>
    <contour>
      <point x="301.8366666666667" y="236.71" type="line"/>
      <point x="618.1233333333333" y="522.7299999999999" type="line"/>
      <point x="939.0566666666667" y="829.8333333333334" type="line"/>
      <point x="988.7033333333334" y="777.6233333333333" type="line"/>
      <point x="654.5433333333333" y="474.13" type="line"/>
      <point x="351.4833333333333" y="184.5" type="line"/>
    </contour>
    <contour>
      <point x="249.94" y="500.0" type="line"/>
      <point x="247.94" y="919.4" type="line"/>
      <point x="86.56666666666668" y="948.6666666666666" type="line"/>
      <point x="86.56666666666668" y="1000.0" type="line"/>
      <point x="511.3" y="1000.0" type="line"/>
      <point x="511.3" y="948.6666666666666" type="line"/>
      <point x="353.18" y="919.4" type="line"/>
      <point x="351.22" y="500.0" type="line"/>
      <point x="353.18" y="80.6" type="line"/>
      <point x="509.86666666666673" y="51.33333333333333" type="line"/>
      <point x="509.86666666666673" y="0.0" type="line"/>
      <point x="86.56666666666668" y="0.0" type="line"/>
      <point x="86.56666666666668" y="51.33333333333333" type="line"/>
      <point x="247.94" y="80.6" type="line"/>
    </contour>
    <contour>
      <point x="1041.3166666666666" y="500.0" type="line"/>
      <point x="1043.3166666666666" y="80.6" type="line"/>
      <point x="1204.69" y="51.33333333333333" type="line"/>
      <point x="1204.69" y="0.0" type="line"/>
      <point x="781.39" y="0.0" type="line"/>
      <point x="781.39" y="51.33333333333333" type="line"/>
      <point x="938.0766666666667" y="80.6" type="line"/>
      <point x="940.0366666666666" y="500.0" type="line"/>
      <point x="938.0766666666667" y="919.4" type="line"/>
      <point x="779.9566666666667" y="948.6666666666666" type="line"/>
      <point x="779.9566666666667" y="1000.0" type="line"/>
      <point x="1204.69" y="1000.0" type="line"/>
      <point x="1204.69" y="948.6666666666666" type="line"/>
      <point x="1043.3166666666666" y="919.4" type="line"/>
    </contour>
  </outline>
</glyph>
<glyph name="pe" format="2">
  <advance width="1264"/>
  <unicode hex="043F"/>
  <guideline x="302.0" y="625.0" angle="90.0" identifier="jHuxcyi1x5"/>
  <guideline x="953.0" y="554.0" angle="90.0" identifier="b1mHk7wgTR"/>
  <guideline x="627.0" y="553.0" angle="90.0" identifier="m4aYe0x4PZ"/>
  <outline>
    <contour>
      <point x="249.96" y="500.0" type="line"/>
      <point x="247.94" y="919.4" type="line"/>
      <point x="86.56666666666668" y="948.6666666666666" type="line"/>
      <point x="86.56666666666668" y="1000.0" type="line"/>
      <point x="1177.6433333333332" y="1000.0" type="line"/>
      <point x="1177.6433333333332" y="948.6666666666666" type="line"/>
      <point x="1016.2700000000001" y="919.4" type="line"/>
      <point x="1014.25" y="500.0" type="line"/>
      <point x="1016.2700000000001" y="80.6" type="line"/>
      <point x="1177.6433333333332" y="51.33333333333333" type="line"/>
      <point x="1177.6433333333332" y="0.0" type="line"/>
      <point x="754.3433333333334" y="0.0" type="line"/>
      <point x="754.3433333333334" y="51.33333333333333" type="line"/>
      <point x="911.0300000000001" y="80.6" type="line"/>
      <point x="913.0300000000001" y="499.98" type="line"/>
      <point x="911.0300000000001" y="928.0666666666667" type="line"/>
      <point x="353.18" y="928.0666666666667" type="line"/>
      <point x="351.18" y="499.92" type="line"/>
      <point x="353.18" y="80.6" type="line"/>
      <point x="509.86666666666673" y="51.33333333333333" type="line"/>
      <point x="509.86666666666673" y="0.0" type="line"/>
      <point x="86.56666666666668" y="0.0" type="line"/>
      <point x="86.56666666666668" y="51.33333333333333" type="line"/>
      <point x="247.94" y="80.6" type="line"/>
    </contour>
  </outline>
</glyph>
<glyph name="tse" format="2">
  <advance width="1263"/>
  <unicode hex="0446"/>
  <guideline x="302.0" y="625.0" angle="90.0" identifier="jHuxcyi1x5"/>
  <guideline x="953.0" y="554.0" angle="90.0" identifier="b1mHk7wgTR"/>
  <guideline x="627.0" y="553.0" angle="90.0" identifier="m4aYe0x4PZ"/>
  <outline>
    <contour>
      <point x="1017.25" y="71.21666666666667" type="line"/>
      <point x="1190.3833333333332" y="71.21666666666667" type="line"/>
      <point x="1200.3833333333332" y="-318.0" type="line"/>
      <point x="1135.1" y="-318.0" type="line"/>
      <point x="1070.5266666666666" y="0.0" type="line"/>
      <point x="86.56666666666668" y="0.0" type="line"/>
      <point x="86.56666666666668" y="51.33333333333333" type="line"/>
      <point x="247.94" y="80.6" type="line"/>
      <point x="249.94" y="500.0" type="line"/>
      <point x="247.94" y="919.4" type="line"/>
      <point x="86.56666666666668" y="948.6666666666666" type="line"/>
      <point x="86.56666666666668" y="1000.0" type="line"/>
      <point x="511.3" y="1000.0" type="line"/>
      <point x="511.3" y="948.6666666666666" type="line"/>
      <point x="353.18" y="919.4" type="line"/>
      <point x="351.18" y="500.0" type="line"/>
      <point x="353.18" y="71.21666666666667" type="line"/>
      <point x="911.0300000000001" y="71.21666666666667" type="line"/>
      <point x="913.0300000000001" y="500.0" type="line"/>
      <point x="911.0300000000001" y="919.4" type="line"/>
      <point x="752.9100000000001" y="948.6666666666666" type="line"/>
      <point x="752.9100000000001" y="1000.0" type="line"/>
      <point x="1177.6433333333332" y="1000.0" type="line"/>
      <point x="1177.6433333333332" y="948.6666666666666" type="line"/>
      <point x="1016.2700000000001" y="919.4" type="line"/>
      <point x="1014.2700000000001" y="500.0" type="line"/>
    </contour>
  </outline>
</glyph>
<glyph name="sha" format="2">
  <advance width="1828"/>
  <unicode hex="0448"/>
  <guideline x="302.0" y="625.0" angle="90.0" identifier="NJObwdl7Zg"/>
  <guideline x="953.0" y="554.0" angle="90.0" identifier="1530lh32tn"/>
  <guideline x="627.0" y="553.0" angle="90.0" identifier="24e3XVDPIE"/>
  <outline>
    <contour>
      <point x="1741.7333333333333" y="0.0" type="line"/>
      <point x="86.56666666666668" y="0.0" type="line"/>
      <point x="86.56666666666668" y="51.33333333333333" type="line"/>
      <point x="247.94" y="80.6" type="line"/>
      <point x="249.94" y="500.0" type="line"/>
      <point x="247.94" y="919.4" type="line"/>
      <point x="86.56666666666668" y="948.6666666666666" type="line"/>
      <point x="86.56666666666668" y="1000.0" type="line"/>
      <point x="504.1333333333333" y="1000.0" type="line"/>
      <point x="504.1333333333333" y="948.6666666666666" type="line"/>
      <point x="353.18" y="919.4" type="line"/>
      <point x="351.18" y="499.98" type="line"/>
      <point x="353.18" y="71.21666666666667" type="line"/>
      <point x="861.51" y="71.21666666666667" type="line"/>
      <point x="863.51" y="500.0" type="line"/>
      <point x="861.2466666666667" y="919.4" type="line"/>
      <point x="710.5966666666666" y="948.6666666666666" type="line"/>
      <point x="710.5966666666666" y="1000.0" type="line"/>
      <point x="1117.1766666666667" y="1000.0" type="line"/>
      <point x="1117.1766666666667" y="948.6666666666666" type="line"/>
      <point x="966.4866666666667" y="919.4" type="line"/>
      <point x="964.75" y="499.96" type="line"/>
      <point x="966.75" y="71.21666666666667" type="line"/>
      <point x="1475.12" y="71.21666666666667" type="line"/>
      <point x="1477.12" y="500.08" type="line"/>
      <point x="1475.12" y="919.4" type="line"/>
      <point x="1324.1666666666667" y="948.6666666666666" type="line"/>
      <point x="1324.1666666666667" y="1000.0" type="line"/>
      <point x="1741.7333333333333" y="1000.0" type="line"/>
      <point x="1741.7333333333333" y="948.6666666666666" type="line"/>
      <point x="1580.36" y="919.4" type="line"/>
      <point x="1578.36" y="500.0" type="line"/>
      <point x="1580.36" y="80.6" type="line"/>
      <point x="1741.7333333333333" y="51.33333333333333" type="line"/>
    </contour>
  </outline>
</glyph>
<glyph name="shcha" format="2">
  <advance width="1826"/>
  <unicode hex="0449"/>
  <outline>
    <contour>
      <point x="1633.6366666666668" y="0.0" type="line"/>
      <point x="86.56666666666668" y="0.0" type="line"/>
      <point x="86.56666666666668" y="51.33333333333333" type="line"/>
      <point x="247.94" y="80.6" type="line"/>
      <point x="249.94" y="500.0" type="line"/>
      <point x="247.94" y="919.4" type="line"/>
      <point x="86.56666666666668" y="948.6666666666666" type="line"/>
      <point x="86.56666666666668" y="1000.0" type="line"/>
      <point x="504.1333333333333" y="1000.0" type="line"/>
      <point x="504.1333333333333" y="948.6666666666666" type="line"/>
      <point x="353.18" y="919.4" type="line"/>
      <point x="351.18" y="499.94" type="line"/>
      <point x="353.18" y="71.21666666666667" type="line"/>
      <point x="861.51" y="71.21666666666667" type="line"/>
      <point x="863.51" y="500.0" type="line"/>
      <point x="861.2466666666667" y="919.4" type="line"/>
      <point x="710.5966666666666" y="948.6666666666666" type="line"/>
      <point x="710.5966666666666" y="1000.0" type="line"/>
      <point x="1117.1766666666667" y="1000.0" type="line"/>
      <point x="1117.1766666666667" y="948.6666666666666" type="line"/>
      <point x="966.4866666666667" y="919.4" type="line"/>
      <point x="964.75" y="499.86" type="line"/>
      <point x="966.75" y="71.21666666666667" type="line"/>
      <point x="1475.12" y="71.21666666666667" type="line"/>
      <point x="1477.12" y="500.0" type="line"/>
      <point x="1475.12" y="919.4" type="line"/>
      <point x="1324.1666666666667" y="948.6666666666666" type="line"/>
      <point x="1324.1666666666667" y="1000.0" type="line"/>
      <point x="1741.7333333333333" y="1000.0" type="line"/>
      <point x="1741.7333333333333" y="948.6666666666666" type="line"/>
      <point x="1580.36" y="919.4" type="line"/>
      <point x="1578.36" y="500.0" type="line"/>
      <point x="1580.36" y="71.21666666666667" type="line"/>
      <point x="1753.4933333333333" y="71.21666666666667" type="line"/>
      <point x="1763.4933333333333" y="-318.0" type="line"/>
      <point x="1698.2099999999998" y="-318.0" type="line"/>
    </contour>
  </outline>
</glyph>
<glyph name="yeru" format="2">
  <advance width="1537"/>
  <unicode hex="044B"/>
  <outline>
    <contour>
      <point x="1287.3333333333333" y="500.0" type="line"/>
      <point x="1289.3333333333333" y="80.6" type="line"/>
      <point x="1450.7066666666667" y="51.33333333333333" type="line"/>
      <point x="1450.7066666666667" y="0.0" type="line"/>
      <point x="1023.34" y="0.0" type="line"/>
      <point x="1023.34" y="51.33333333333333" type="line"/>
      <point x="1184.0933333333332" y="80.6" type="line"/>
      <point x="1186.0533333333333" y="500.0" type="line"/>
      <point x="1184.0933333333332" y="919.4" type="line"/>
      <point x="1023.34" y="948.6666666666666" type="line"/>
      <point x="1023.34" y="1000.0" type="line"/>
      <point x="1450.7066666666667" y="1000.0" type="line"/>
      <point x="1450.7066666666667" y="948.6666666666666" type="line"/>
      <point x="1289.3333333333333" y="919.4" type="line"/>
    </contour>
    <contour>
      <point x="300.57" y="537.5" type="line"/>
      <point x="300.57" y="606.5666666666666" type="line"/>
      <point x="588.5666666666666" y="606.5666666666666" type="line" smooth="yes"/>
      <point x="770.6766666666666" y="606.5666666666666"/>
      <point x="957.9566666666666" y="448.51"/>
      <point x="957.9566666666666" y="314.0" type="qcurve" smooth="yes"/>
      <point x="957.9566666666666" y="172.0"/>
      <point x="770.6766666666666" y="0.0"/>
      <point x="588.5666666666666" y="0.0" type="qcurve" smooth="yes"/>
      <point x="86.56666666666668" y="0.0" type="line"/>
      <point x="86.56666666666668" y="51.33333333333333" type="line"/>
      <point x="247.94" y="80.6" type="line"/>
      <point x="249.94" y="500.0" type="line"/>
      <point x="247.94" y="919.4" type="line"/>
      <point x="86.56666666666668" y="948.6666666666666" type="line"/>
      <point x="86.56666666666668" y="1000.0" type="line"/>
      <point x="513.9133333333334" y="1000.0" type="line"/>
      <point x="513.9133333333334" y="948.6666666666666" type="line"/>
      <point x="353.16" y="919.4" type="line"/>
      <point x="351.2" y="500.0" type="line"/>
      <point x="353.16" y="71.21666666666667" type="line"/>
      <point x="583.55" y="71.21666666666667" type="line" smooth="yes"/>
      <point x="731.54" y="71.21666666666667"/>
      <point x="842.0333333333334" y="209.62666666666667"/>
      <point x="842.0333333333334" y="314.0" type="qcurve" smooth="yes"/>
      <point x="842.0333333333334" y="411.31666666666666"/>
      <point x="731.54" y="537.5"/>
      <point x="583.55" y="537.5" type="qcurve" smooth="yes"/>
    </contour>
  </outline>
</glyph>
<glyph name="yu" format="2">
  <advance width="1649"/>
  <unicode hex="044E"/>
  <guideline x="302.0" y="625.0" angle="90.0" identifier="jHuxcyi1x5"/>
  <guideline x="953.0" y="554.0" angle="90.0" identifier="b1mHk7wgTR"/>
  <guideline x="627.0" y="553.0" angle="90.0" identifier="m4aYe0x4PZ"/>
  <outline>
    <contour>
      <point x="300.57" y="546.7666666666667" type="line"/>
      <point x="630.6833333333334" y="543.7666666666667" type="line"/>
      <point x="630.6833333333334" y="476.01666666666665" type="line"/>
      <point x="300.57" y="474.01666666666665" type="line"/>
    </contour>
    <contour>
      <point x="249.94" y="500.0" type="line"/>
      <point x="247.94" y="919.4" type="line"/>
      <point x="86.56666666666668" y="948.6666666666666" type="line"/>
      <point x="86.56666666666668" y="1000.0" type="line"/>
      <point x="511.28" y="1000.0" type="line"/>
      <point x="511.28" y="948.6666666666666" type="line"/>
      <point x="353.16" y="919.4" type="line"/>
      <point x="351.2" y="500.0" type="line"/>
      <point x="353.16" y="80.6" type="line"/>
      <point x="509.8466666666667" y="51.33333333333333" type="line"/>
      <point x="509.8466666666667" y="0.0" type="line"/>
      <point x="86.56666666666668" y="0.0" type="line"/>
      <point x="86.56666666666668" y="51.33333333333333" type="line"/>
      <point x="247.94" y="80.6" type="line"/>
    </contour>
    <contour>
      <point x="575.1833333333334" y="500.0" type="qcurve" smooth="yes"/>
      <point x="575.1833333333334" y="717.2"/>
      <point x="851.0133333333333" y="1021.94"/>
      <point x="1076.8566666666666" y="1021.94" type="qcurve" smooth="yes"/>
      <point x="1305.85" y="1021.94"/>
      <point x="1582.39" y="737.2"/>
      <point x="1582.39" y="506.0" type="qcurve" smooth="yes"/>
      <point x="1582.39" y="289.8"/>
      <point x="1308.5800000000002" y="-21.9"/>
      <point x="1082.7366666666665" y="-21.9" type="qcurve" smooth="yes"/>
      <point x="855.1966666666667" y="-21.9"/>
      <point x="575.1833333333334" y="266.8"/>
    </contour>
    <contour>
      <point x="686.1833333333334" y="522.15" type="qcurve" smooth="yes"/>
      <point x="687.1833333333334" y="322.31666666666666"/>
      <point x="901.2466666666667" y="46.49333333333333"/>
      <point x="1077.0466666666666" y="46.49333333333333" type="qcurve" smooth="yes"/>
      <point x="1264.18" y="46.49333333333333"/>
      <point x="1468.3766666666668" y="298.1666666666667"/>
      <point x="1468.3766666666668" y="506.71666666666664" type="qcurve" smooth="yes"/>
      <point x="1468.3766666666668" y="698.8333333333334"/>
      <point x="1254.7866666666666" y="946.1133333333333"/>
      <point x="1079.0066666666667" y="946.1133333333333" type="qcurve" smooth="yes"/>
      <point x="888.4399999999999" y="946.1133333333333"/>
      <point x="685.1833333333334" y="720.2666666666668"/>
    </contour>
  </outline>
</glyph>
<glyph name="lje" format="2">
  <advance width="1540"/>
  <unicode hex="0459"/>
  <guideline x="302.0" y="625.0" angle="90.0" identifier="jHuxcyi1x5"/>
  <guideline x="953.0" y="554.0" angle="90.0" identifier="b1mHk7wgTR"/>
  <guideline x="627.0" y="553.0" angle="90.0" identifier="m4aYe0x4PZ"/>
  <guideline x="302.0" y="625.0" angle="90.0" identifier="vLcWUVIRLn"/>
  <guideline x="953.0" y="554.0" angle="90.0" identifier="6dzOxXKOwA"/>
  <guideline x="627.0" y="553.0" angle="90.0" identifier="mJzxvRVyB1"/>
  <guideline x="887.06" y="570.12" angle="90.0" identifier="NbdfSyw2GO"/>
  <outline>
    <contour>
      <point x="784.71" y="928.0666666666667" type="line"/>
      <point x="786.9733333333334" y="500.0" type="line"/>
      <point x="784.9733333333334" y="80.6" type="line"/>
      <point x="623.6" y="51.33333333333333" type="line"/>
      <point x="623.6" y="0.0" type="line"/>
      <point x="1125.6000000000001" y="0.0" type="line" smooth="yes"/>
      <point x="1307.71" y="0.0"/>
      <point x="1494.99" y="172.0"/>
      <point x="1494.99" y="314.0" type="qcurve" smooth="yes"/>
      <point x="1494.99" y="448.51"/>
      <point x="1307.71" y="606.5666666666666"/>
      <point x="1125.6000000000001" y="606.5666666666666" type="qcurve" smooth="yes"/>
      <point x="837.6033333333334" y="606.5666666666666" type="line"/>
      <point x="837.6033333333334" y="537.5" type="line"/>
      <point x="1120.5833333333335" y="537.5" type="line" smooth="yes"/>
      <point x="1268.5733333333333" y="537.5"/>
      <point x="1379.0666666666666" y="411.31666666666666"/>
      <point x="1379.0666666666666" y="314.0" type="qcurve" smooth="yes"/>
      <point x="1379.0666666666666" y="209.62666666666667"/>
      <point x="1268.5733333333333" y="71.21666666666667"/>
      <point x="1120.5833333333335" y="71.21666666666667" type="qcurve" smooth="yes"/>
      <point x="890.1933333333333" y="71.21666666666667" type="line"/>
      <point x="888.2333333333333" y="500.0" type="line"/>
      <point x="890.1933333333333" y="919.4" type="line"/>
      <point x="1050.9466666666665" y="948.6666666666666" type="line"/>
      <point x="1050.9466666666665" y="1000.0" type="line"/>
      <point x="177.07" y="1000.0" type="line"/>
      <point x="177.07" y="948.6666666666666" type="line"/>
      <point x="335.81" y="919.4" type="line"/>
      <point x="295.4533333333333" y="454.0" type="line" smooth="yes"/>
      <point x="280.42891088021497" y="281.9045929661433"/>
      <point x="197.93" y="101.55"/>
      <point x="117.72" y="101.55" type="qcurve" smooth="yes"/>
      <point x="103.0" y="101.55"/>
      <point x="71.54" y="105.85333333333334"/>
      <point x="49.6" y="112.83333333333334" type="qcurve"/>
      <point x="49.6" y="-2.0" type="line"/>
      <point x="71.85666666666667" y="-10.98"/>
      <point x="108.56" y="-17.0"/>
      <point x="129.5" y="-17.0" type="qcurve" smooth="yes"/>
      <point x="249.37273563218298" y="-17.0"/>
      <point x="357.9866666666667" y="192.70666666666668"/>
      <point x="379.07" y="439.0" type="qcurve" smooth="yes"/>
      <point x="420.69" y="928.0666666666667" type="line"/>
    </contour>
  </outline>
</glyph>
<glyph name="dzhe" format="2">
  <advance width="1265"/>
  <unicode hex="045F"/>
  <guideline x="302.0" y="625.0" angle="90.0" identifier="fhMaqTRb6E"/>
  <guideline x="953.0" y="554.0" angle="90.0" identifier="pLUUi3yULi"/>
  <guideline x="627.0" y="553.0" angle="90.0" identifier="hNrU98WFWt"/>
  <outline>
    <contour>
      <point x="249.94" y="500.0" type="line"/>
      <point x="247.94" y="919.4" type="line"/>
      <point x="86.56666666666668" y="948.6666666666666" type="line"/>
      <point x="86.56666666666668" y="1000.0" type="line"/>
      <point x="511.3" y="1000.0" type="line"/>
      <point x="511.3" y="948.6666666666666" type="line"/>
      <point x="353.18" y="919.4" type="line"/>
      <point x="351.18" y="499.96" type="line"/>
      <point x="353.18" y="71.21666666666667" type="line"/>
      <point x="911.0300000000001" y="71.21666666666667" type="line"/>
      <point x="913.0300000000001" y="499.94" type="line"/>
      <point x="911.0300000000001" y="919.4" type="line"/>
      <point x="752.9100000000001" y="948.6666666666666" type="line"/>
      <point x="752.9100000000001" y="1000.0" type="line"/>
      <point x="1177.6433333333332" y="1000.0" type="line"/>
      <point x="1177.6433333333332" y="948.6666666666666" type="line"/>
      <point x="1016.2700000000001" y="919.4" type="line"/>
      <point x="1014.2700000000001" y="500.0" type="line"/>
      <point x="1016.9866666666667" y="80.6" type="line"/>
      <point x="1178.36" y="51.33333333333333" type="line"/>
      <point x="1178.36" y="0.0" type="line"/>
      <point x="86.56666666666668" y="0.0" type="line"/>
      <point x="86.56666666666668" y="51.33333333333333" type="line"/>
      <point x="247.94" y="80.6" type="line"/>
    </contour>
    <contour>
      <point x="703.4966666666667" y="0.0" type="line"/>
      <point x="667.6133333333333" y="-318.0" type="line"/>
      <point x="602.33" y="-318.0" type="line"/>
      <point x="561.43" y="0.0" type="line"/>
    </contour>
  </outline>
</glyph>
<glyph name="kaverticalstrokecyr" format="2">
  <advance width="1213"/>
  <unicode hex="049D"/>
  <guideline x="241.0" y="553.0" angle="90.0" identifier="lmgRx0QBdK"/>
  <outline>
    <contour>
      <point x="587.74" y="227.0" type="line"/>
      <point x="514.86" y="227.0" type="line"/>
      <point x="514.86" y="792.0" type="line"/>
      <point x="587.74" y="792.0" type="line"/>
    </contour>
    <contour>
      <point x="249.94" y="500.0" type="line"/>
      <point x="247.94" y="919.4" type="line"/>
      <point x="86.56666666666668" y="948.6666666666666" type="line"/>
      <point x="86.56666666666668" y="1000.0" type="line"/>
      <point x="511.3" y="1000.0" type="line"/>
      <point x="511.3" y="948.6666666666666" type="line"/>
      <point x="353.18" y="919.4" type="line"/>
      <point x="351.22" y="500.0" type="line"/>
      <point x="353.18" y="80.6" type="line"/>
      <point x="511.3" y="51.33333333333333" type="line"/>
      <point x="511.3" y="0.0" type="line"/>
      <point x="86.56666666666668" y="0.0" type="line"/>
      <point x="86.56666666666668" y="51.33333333333333" type="line"/>
      <point x="247.94" y="80.6" type="line"/>
    </contour>
    <contour>
      <point x="667.2866666666666" y="484.3" type="line"/>
      <point x="742.4766666666667" y="546.3866666666667" type="line"/>
      <point x="1080.1666666666667" y="80.6" type="line"/>
      <point x="1222.67" y="51.33333333333333" type="line"/>
      <point x="1222.67" y="0.0" type="line"/>
      <point x="947.3233333333333" y="0.0" type="line"/>
      <point x="936.7566666666667" y="46.75" type="line"/>
      <point x="968.1533333333334" y="66.56666666666666" type="line"/>
    </contour>
    <contour>
      <point x="551.3" y="545.3766666666667" type="line"/>
      <point x="674.6500000000001" y="542.64" type="line"/>
      <point x="940.3166666666666" y="917.9833333333333" type="line"/>
      <point x="796.2866666666667" y="942.25" type="line"/>
      <point x="796.2866666666667" y="1000.0" type="line"/>
      <point x="1193.6833333333334" y="1000.0" type="line"/>
      <point x="1193.6833333333334" y="942.25" type="line"/>
      <point x="1036.4633333333334" y="915.85" type="line"/>
      <point x="699.4666666666666" y="474.15333333333336" type="line"/>
      <point x="551.3" y="472.17333333333335" type="line"/>
    </contour>
  </outline>
</glyph>
<glyph name="Kabashkircyr" format="2">
  <advance width="1671"/>
  <unicode hex="04A0"/>
  <guideline x="480.0" y="796.0" angle="90.0" identifier="UonMLy8RzJ"/>
  <outline>
    <contour>
      <point x="585.6466666666666" y="745.4233333333333" type="line"/>
      <point x="585.6466666666666" y="827.1766666666667" type="line"/>
      <point x="868.03" y="823.1766666666667" type="line"/>
      <point x="1322.56" y="1396.45" type="line"/>
      <point x="1148.9866666666667" y="1434.1366666666665" type="line"/>
      <point x="1148.9866666666667" y="1500.0" type="line"/>
      <point x="1624.3333333333335" y="1500.0" type="line"/>
      <point x="1624.3333333333335" y="1434.1366666666665" type="line"/>
      <point x="1434.4933333333333" y="1396.45" type="line"/>
      <point x="930.7166666666667" y="778.0533333333333" type="line"/>
      <point x="901.1166666666667" y="743.2733333333333" type="line"/>
    </contour>
    <contour>
      <point x="867.6700000000001" y="748.2933333333333" type="line"/>
      <point x="936.48" y="818.3866666666667" type="line"/>
      <point x="1519.55" y="97.63333333333334" type="line"/>
      <point x="1713.5933333333332" y="62.653333333333336" type="line"/>
      <point x="1713.5933333333332" y="0.0" type="line"/>
      <point x="1197.9433333333334" y="0.0" type="line"/>
      <point x="1197.9433333333334" y="62.653333333333336" type="line"/>
      <point x="1395.0233333333335" y="97.63333333333334" type="line"/>
    </contour>
    <contour>
      <point x="310.2466666666666" y="0.0" type="line"/>
      <point x="310.2466666666666" y="62.653333333333336" type="line"/>
      <point x="531.5799999999999" y="97.65333333333334" type="line"/>
      <point x="533.5799999999999" y="754.0" type="line"/>
      <point x="531.5799999999999" y="1425.7166666666667" type="line"/>
      <point x="149.88333333333333" y="1425.7166666666667" type="line"/>
      <point x="108.43333333333334" y="1098.9833333333333" type="line"/>
      <point x="37.85" y="1098.9833333333333" type="line"/>
      <point x="37.85" y="1500.0" type="line"/>
      <point x="865.38" y="1500.0" type="line"/>
      <point x="865.38" y="1434.1366666666665" type="line"/>
      <point x="639.7133333333334" y="1400.1366666666665" type="line"/>
      <point x="637.7133333333334" y="754.0" type="line"/>
      <point x="639.7133333333334" y="97.65333333333334" type="line"/>
      <point x="868.0133333333333" y="62.653333333333336" type="line"/>
      <point x="868.0133333333333" y="0.0" type="line"/>
    </contour>
  </outline>
</glyph>
<glyph name="ustraight" format="2">
  <advance width="1038"/>
  <unicode hex="04AF"/>
  <outline>
    <contour>
      <point x="-29.150000000000002" y="935.8" type="line"/>
      <point x="-29.150000000000002" y="1000.0" type="line"/>
      <point x="387.2766666666667" y="1000.0" type="line"/>
      <point x="387.2766666666667" y="935.8" type="line"/>
      <point x="238.65333333333334" y="908.8333333333334" type="line"/>
      <point x="380.9133333333333" y="495.05" type="line"/>
      <point x="531.7700000000001" y="97.44" type="line"/>
      <point x="674.8399999999999" y="480.79" type="line"/>
      <point x="823.0633333333333" y="910.8166666666667" type="line"/>
      <point x="665.5833333333334" y="935.8" type="line"/>
      <point x="665.5833333333334" y="1000.0" type="line"/>
      <point x="1072.3166666666666" y="1000.0" type="line"/>
      <point x="1072.3166666666666" y="935.8" type="line"/>
      <point x="915.3233333333333" y="909.4" type="line"/>
      <point x="745.4666666666667" y="462.84333333333336" type="line"/>
      <point x="572.4166666666667" y="0.0" type="line"/>
      <point x="572.7" y="-399.4" type="line"/>
      <point x="757.1466666666666" y="-426.51666666666665" type="line"/>
      <point x="757.1466666666666" y="-480.0" type="line"/>
      <point x="280.8433333333333" y="-480.0" type="line"/>
      <point x="280.8433333333333" y="-426.51666666666665" type="line"/>
      <point x="465.29" y="-399.4" type="line"/>
      <point x="466.29" y="0.0" type="line"/>
      <point x="300.55" y="439.9766666666667" type="line"/>
      <point x="126.75" y="908.6833333333334" type="line"/>
    </contour>
  </outline>
</glyph>
<glyph name="hastroke-cy" format="2">
  <advance width="1078"/>
  <unicode hex="04FF"/>
  <outline>
    <contour>
      <point x="200.0" y="466.65333333333336" type="line"/>
      <point x="200.0" y="542.1266666666667" type="line"/>
      <point x="538.9633333333333" y="539.1866666666667" type="line"/>
      <point x="846.0933333333334" y="542.1266666666667" type="line"/>
      <point x="846.0933333333334" y="466.65333333333336" type="line"/>
      <point x="516.7233333333334" y="469.59333333333336" type="line"/>
    </contour>
    <contour>
      <point x="7.140000000000001" y="0.0" type="line"/>
      <point x="7.140000000000001" y="51.33333333333333" type="line"/>
      <point x="183.29" y="80.6" type="line"/>
      <point x="508.84" y="528.5766666666667" type="line"/>
      <point x="517.7" y="534.47" type="line"/>
      <point x="780.3533333333334" y="911.5333333333333" type="line"/>
      <point x="610.97" y="935.0833333333334" type="line"/>
      <point x="610.97" y="1000.0" type="line"/>
      <point x="1036.1966666666665" y="1000.0" type="line"/>
      <point x="1036.1966666666665" y="935.0833333333334" type="line"/>
      <point x="876.2366666666667" y="910.1166666666667" type="line"/>
      <point x="557.9100000000001" y="485.37666666666667" type="line"/>
      <point x="552.0366666666667" y="482.53" type="line"/>
      <point x="278.4566666666667" y="79.18333333333334" type="line"/>
      <point x="432.09" y="51.33333333333333" type="line"/>
      <point x="432.09" y="0.0" type="line"/>
    </contour>
    <contour>
      <point x="10.743333333333334" y="935.0833333333334" type="line"/>
      <point x="10.743333333333334" y="1000.0" type="line"/>
      <point x="445.2366666666667" y="1000.0" type="line"/>
      <point x="445.2366666666667" y="935.0833333333334" type="line"/>
      <point x="286.68666666666667" y="909.6099999999999" type="line"/>
      <point x="564.0066666666668" y="533.8399999999999" type="line"/>
      <point x="902.7966666666666" y="80.6" type="line"/>
      <point x="1074.9666666666667" y="51.33333333333333" type="line"/>
      <point x="1074.9666666666667" y="0.0" type="line"/>
      <point x="628.4033333333333" y="0.0" type="line"/>
      <point x="628.4033333333333" y="51.33333333333333" type="line"/>
      <point x="784.2066666666667" y="81.06666666666666" type="line"/>
      <point x="497.63666666666666" y="475.87666666666667" type="line"/>
      <point x="168.81333333333333" y="910.1166666666667" type="line"/>
    </contour>
  </outline>
</glyph>
<glyph name="quotedblleft" format="2">
  <advance width="904"/>
  <unicode hex="201C"/>
  <outline>
    <contour>
      <point x="411.18666666666667" y="1518.7" type="line"/>
      <point x="368.34" y="1484.4399999999998"/>
      <point x="290.46000000000004" y="1386.8466666666668"/>
      <point x="274.7833333333333" y="1327.95" type="qcurve"/>
      <point x="337.00333333333333" y="1334.32"/>
      <point x="398.07000000000005" y="1277.4766666666667"/>
      <point x="398.07000000000005" y="1232.93" type="qcurve" smooth="yes"/>
      <point x="398.07000000000005" y="1189.3833333333332"/>
      <point x="339.44666666666666" y="1131.28"/>
      <point x="293.8066666666667" y="1131.28" type="qcurve" smooth="yes"/>
      <point x="250.69333333333333" y="1131.28"/>
      <point x="186.62666666666667" y="1194.2066666666667"/>
      <point x="186.62666666666667" y="1248.83" type="qcurve" smooth="yes"/>
      <point x="186.62666666666667" y="1340.47"/>
      <point x="308.65666666666664" y="1499.7633333333333"/>
      <point x="388.92999999999995" y="1546.9366666666665" type="qcurve"/>
    </contour>
    <contour>
      <point x="746.1800000000001" y="1518.7" type="line"/>
      <point x="703.3333333333334" y="1484.4399999999998"/>
      <point x="625.4533333333334" y="1386.8466666666668"/>
      <point x="609.7766666666666" y="1327.95" type="qcurve"/>
      <point x="671.9966666666666" y="1334.32"/>
      <point x="733.0633333333334" y="1277.4766666666667"/>
      <point x="733.0633333333334" y="1232.93" type="qcurve" smooth="yes"/>
      <point x="733.0633333333334" y="1189.3833333333332"/>
      <point x="674.4399999999999" y="1131.28"/>
      <point x="628.8000000000001" y="1131.28" type="qcurve" smooth="yes"/>
      <point x="585.6866666666667" y="1131.28"/>
      <point x="521.62" y="1194.2066666666667"/>
      <point x="521.62" y="1248.83" type="qcurve" smooth="yes"/>
      <point x="521.62" y="1340.47"/>
      <point x="643.65" y="1499.7633333333333"/>
      <point x="723.9233333333334" y="1546.9366666666665" type="qcurve"/>
    </contour>
  </outline>
</glyph>
<glyph name="daggerdbl" format="2">
  <advance width="958"/>
  <unicode hex="2021"/>
  <outline>
    <contour>
      <point x="471.15999999999997" y="-540.0" type="line"/>
      <point x="418.24333333333334" y="-58.0" type="line"/>
      <point x="435.07666666666665" y="550.0" type="line"/>
      <point x="433.07666666666665" y="830.0" type="line"/>
      <point x="415.40999999999997" y="1459.5" type="line"/>
      <point x="438.8933333333333" y="1505.15" type="line"/>
      <point x="513.16" y="1506.0" type="line"/>
      <point x="534.0766666666666" y="1459.5" type="line"/>
      <point x="517.2433333333333" y="830.0" type="line"/>
      <point x="519.2433333333333" y="550.0" type="line"/>
      <point x="534.0766666666666" y="-58.0" type="line"/>
      <point x="491.15999999999997" y="-540.0" type="line"/>
    </contour>
    <contour>
      <point x="74.96000000000001" y="879.4333333333334" type="line"/>
      <point x="74.96000000000001" y="972.7666666666667" type="line"/>
      <point x="477.15999999999997" y="964.7666666666667" type="line"/>
      <point x="881.5933333333334" y="972.7666666666667" type="line"/>
      <point x="881.5933333333334" y="879.4333333333334" type="line"/>
      <point x="477.15999999999997" y="883.4933333333333" type="line"/>
    </contour>
    <contour>
      <point x="76.09333333333333" y="449.71666666666664" type="line"/>
      <point x="76.09333333333333" y="543.05" type="line"/>
      <point x="478.29333333333335" y="535.05" type="line"/>
      <point x="882.7266666666667" y="543.05" type="line"/>
      <point x="882.7266666666667" y="449.71666666666664" type="line"/>
      <point x="478.29333333333335" y="453.77666666666664" type="line"/>
    </contour>
  </outline>
</glyph>
<glyph name="minute" format="2">
  <advance width="573"/>
  <unicode hex="2032"/>
  <outline>
    <contour>
      <point x="143.14666666666668" y="994.8766666666667" type="line"/>
      <point x="365.1166666666667" y="1429.3166666666668" type="line" smooth="yes"/>
      <point x="394.76666666666665" y="1485.83"/>
      <point x="456.06666666666666" y="1532.5833333333335"/>
      <point x="491.8666666666667" y="1512.0" type="qcurve" smooth="yes"/>
      <point x="525.97" y="1492.6599999999999"/>
      <point x="512.5866666666666" y="1416.48"/>
      <point x="482.6666666666667" y="1375.95" type="qcurve" smooth="yes"/>
      <point x="191.61666666666667" y="989.0833333333334" type="line"/>
    </contour>
  </outline>
</glyph>
<glyph name="second" format="2">
  <advance width="867"/>
  <unicode hex="2033"/>
  <outline>
    <contour>
      <point x="143.67333333333332" y="997.51" type="line"/>
      <point x="365.1166666666667" y="1429.38" type="line" smooth="yes"/>
      <point x="394.82666666666665" y="1486.0733333333333"/>
      <point x="456.06666666666666" y="1532.8466666666668"/>
      <point x="491.8666666666667" y="1512.2633333333333" type="qcurve" smooth="yes"/>
      <point x="525.97" y="1492.9233333333334"/>
      <point x="512.5866666666666" y="1416.7433333333333"/>
      <point x="482.6666666666667" y="1376.2133333333334" type="qcurve" smooth="yes"/>
      <point x="191.61666666666667" y="989.3466666666667" type="line"/>
    </contour>
    <contour>
      <point x="438.4233333333333" y="997.51" type="line"/>
      <point x="659.8666666666667" y="1429.38" type="line" smooth="yes"/>
      <point x="689.5766666666667" y="1486.0733333333333"/>
      <point x="750.8166666666666" y="1532.8466666666668"/>
      <point x="786.6166666666667" y="1512.2633333333333" type="qcurve" smooth="yes"/>
      <point x="820.7199999999999" y="1492.9233333333334"/>
      <point x="807.3366666666667" y="1416.7433333333333"/>
      <point x="777.4166666666667" y="1376.2133333333334" type="qcurve" smooth="yes"/>
      <point x="486.3666666666667" y="989.3466666666667" type="line"/>
    </contour>
  </outline>
</glyph>
<glyph name="guilsinglright" format="2">
  <advance width="844"/>
  <unicode hex="203A"/>
  <outline>
    <contour>
      <point x="768.8166666666667" y="588.6766666666667" type="line"/>
      <point x="697.4799999999999" y="540.7766666666666"/>
      <point x="216.85333333333332" y="223.46666666666667"/>
      <point x="152.91666666666666" y="185.71333333333334" type="qcurve" smooth="yes"/>
      <point x="98.94333333333333" y="154.03666666666666"/>
      <point x="52.02333333333334" y="220.12"/>
      <point x="104.78333333333333" y="256.74333333333334" type="qcurve" smooth="yes"/>
      <point x="173.94333333333333" y="304.9766666666667"/>
      <point x="594.0699999999999" y="582.74"/>
      <point x="622.22" y="601.43" type="qcurve"/>
      <point x="592.06" y="622.1766666666667"/>
      <point x="179.17" y="903.1"/>
      <point x="113.82333333333334" y="946.9133333333333" type="qcurve" smooth="yes"/>
      <point x="51.25333333333334" y="987.9866666666667"/>
      <point x="94.90333333333334" y="1062.0"/>
      <point x="160.41666666666666" y="1019.68" type="qcurve" smooth="yes"/>
      <point x="219.64666666666668" y="981.4"/>
      <point x="710.5" y="660.0733333333334"/>
      <point x="768.8166666666667" y="621.43" type="qcurve"/>
    </contour>
  </outline>
</glyph>
<glyph name="foursuperior" format="2">
  <advance width="782"/>
  <unicode hex="2074"/>
  <outline>
    <contour>
      <point x="46.38666666666667" y="984.3333333333334" type="line"/>
      <point x="479.50666666666666" y="1517.0" type="line"/>
      <point x="546.3333333333334" y="1504.1666666666667" type="line"/>
      <point x="566.1233333333333" y="1476.1666666666667" type="line"/>
      <point x="569.1233333333333" y="948.0" type="line"/>
      <point x="569.1233333333333" y="745.2333333333333" type="line"/>
      <point x="705.35" y="726.1133333333333" type="line"/>
      <point x="705.35" y="670.0" type="line"/>
      <point x="326.03" y="670.0" type="line"/>
      <point x="326.03" y="726.1133333333333" type="line"/>
      <point x="476.8466666666667" y="745.2333333333333" type="line"/>
      <point x="478.19" y="947.0" type="line"/>
      <point x="481.49333333333334" y="1418.35" type="line"/>
      <point x="147.37" y="1007.3333333333334" type="line"/>
      <point x="148.37" y="989.3333333333334" type="line"/>
      <point x="720.51" y="985.2333333333333" type="line"/>
      <point x="720.51" y="924.5833333333334" type="line"/>
      <point x="63.18" y="922.5833333333334" type="line"/>
    </contour>
  </outline>
</glyph>
<glyph name="kip" format="2">
  <advance width="1288"/>
  <unicode hex="20AD"/>
  <outline>
    <contour>
      <point x="86.0" y="0.0" type="line"/>
      <point x="86.0" y="62.653333333333336" type="line"/>
      <point x="288.21666666666664" y="92.63666666666667" type="line"/>
      <point x="290.21666666666664" y="754.0" type="line"/>
      <point x="288.21666666666664" y="1403.7199999999998" type="line"/>
      <point x="86.0" y="1434.1366666666665" type="line"/>
      <point x="86.0" y="1500.0" type="line"/>
      <point x="593.7966666666667" y="1500.0" type="line"/>
      <point x="593.7966666666667" y="1434.1366666666665" type="line"/>
      <point x="390.5966666666667" y="1403.7199999999998" type="line"/>
      <point x="388.5966666666667" y="754.0" type="line"/>
      <point x="390.5966666666667" y="92.63666666666667" type="line"/>
      <point x="596.43" y="62.653333333333336" type="line"/>
      <point x="596.43" y="0.0" type="line"/>
    </contour>
    <contour>
      <point x="345.21000000000004" y="531.5633333333333" type="line"/>
      <point x="343.1766666666667" y="626.5166666666667" type="line"/>
      <point x="996.8266666666666" y="1400.0333333333335" type="line"/>
      <point x="837.09" y="1434.1366666666665" type="line"/>
      <point x="837.09" y="1500.0" type="line"/>
      <point x="1270.4333333333332" y="1500.0" type="line"/>
      <point x="1270.4333333333332" y="1434.1366666666665" type="line"/>
      <point x="1099.4766666666667" y="1400.0333333333335" type="line"/>
      <point x="613.5633333333334" y="833.9166666666667" type="line"/>
      <point x="587.6833333333333" y="815.9166666666666" type="line"/>
    </contour>
    <contour>
      <point x="549.8733333333333" y="825.36" type="line"/>
      <point x="612.8266666666667" y="904.1466666666666" type="line"/>
      <point x="1179.6000000000001" y="92.61666666666667" type="line"/>
      <point x="1353.3266666666666" y="62.653333333333336" type="line"/>
      <point x="1353.3266666666666" y="0.0" type="line"/>
      <point x="880.21" y="0.0" type="line"/>
      <point x="880.21" y="62.653333333333336" type="line"/>
      <point x="1056.9733333333334" y="92.61666666666667" type="line"/>
    </contour>
    <contour>
      <point x="1195.0" y="794.6833333333334" type="line"/>
      <point x="904.45" y="794.6833333333334" type="line"/>
      <point x="904.45" y="801.85" type="line"/>
      <point x="604.7166666666667" y="801.85" type="line"/>
      <point x="569.9666666666667" y="874.4666666666667" type="line"/>
      <point x="890.4166666666667" y="874.4666666666667" type="line"/>
      <point x="890.4166666666667" y="879.65" type="line"/>
      <point x="1164.45" y="879.65" type="line"/>
    </contour>
    <contour>
      <point x="85.78666666666666" y="794.6833333333334" type="line"/>
      <point x="61.93666666666667" y="879.3666666666667" type="line"/>
      <point x="328.3" y="879.3666666666667" type="line"/>
      <point x="328.3" y="874.4666666666667" type="line"/>
      <point x="569.9666666666667" y="874.4666666666667" type="line"/>
      <point x="604.7166666666667" y="801.85" type="line"/>
      <point x="336.9" y="801.85" type="line"/>
      <point x="336.9" y="794.6833333333334" type="line"/>
    </contour>
  </outline>
</glyph>
<glyph name="peso" format="2">
  <advance width="1312"/>
  <unicode hex="20B1"/>
  <outline>
    <contour>
      <point x="69.63666666666666" y="0.0" type="line"/>
      <point x="69.63666666666666" y="62.733333333333334" type="line"/>
      <point x="299.84000000000003" y="94.0" type="line"/>
      <point x="301.84000000000003" y="759.7333333333333" type="line"/>
      <point x="300.5566666666667" y="1405.3166666666666" type="line"/>
      <point x="82.53666666666666" y="1434.0166666666667" type="line"/>
      <point x="82.53666666666666" y="1500.0" type="line"/>
      <point x="654.6833333333334" y="1500.26" type="line" smooth="yes"/>
      <point x="892.2766666666666" y="1500.38"/>
      <point x="1132.5333333333335" y="1273.7"/>
      <point x="1132.5333333333335" y="1059.3333333333333" type="qcurve" smooth="yes"/>
      <point x="1132.5333333333335" y="845.6833333333334"/>
      <point x="879.9100000000001" y="571.9166666666666"/>
      <point x="624.04" y="571.9166666666666" type="qcurve" smooth="yes"/>
      <point x="533.3966666666666" y="571.9166666666666"/>
      <point x="402.8833333333333" y="592.1833333333333"/>
      <point x="357.7066666666667" y="603.75" type="qcurve"/>
      <point x="363.1033333333333" y="673.1999999999999" type="line"/>
      <point x="419.07" y="658.05"/>
      <point x="515.9733333333334" y="644.7833333333333"/>
      <point x="613.3633333333333" y="644.7833333333333" type="qcurve" smooth="yes"/>
      <point x="807.0733333333334" y="644.7833333333333"/>
      <point x="1025.2733333333333" y="860.9"/>
      <point x="1025.2733333333333" y="1060.7666666666667" type="qcurve" smooth="yes"/>
      <point x="1025.2733333333333" y="1244.8666666666666"/>
      <point x="818.9766666666667" y="1424.7266666666667"/>
      <point x="628.2666666666667" y="1424.6833333333334" type="qcurve" smooth="yes"/>
      <point x="441.28" y="1424.6833333333334" type="line"/>
      <point x="407.42" y="1404.1166666666668" type="line"/>
      <point x="405.1366666666667" y="765.4333333333333" type="line"/>
      <point x="407.1366666666667" y="92.58333333333334" type="line"/>
      <point x="657.94" y="62.733333333333334" type="line"/>
      <point x="657.94" y="0.0" type="line"/>
    </contour>
    <contour>
      <point x="1249.9033333333334" y="832.88" type="line"/>
      <point x="1042.9966666666667" y="832.88" type="line"/>
      <point x="1042.9966666666667" y="836.6933333333333" type="line"/>
      <point x="716.8299999999999" y="836.6933333333333" type="line"/>
      <point x="669.9300000000001" y="913.46" type="line"/>
      <point x="1052.0933333333332" y="913.46" type="line"/>
      <point x="1052.0933333333332" y="917.88" type="line"/>
      <point x="1274.6933333333334" y="917.88" type="line"/>
    </contour>
    <contour>
      <point x="105.67333333333333" y="832.3533333333334" type="line"/>
      <point x="81.88333333333334" y="917.6166666666667" type="line"/>
      <point x="341.82000000000005" y="917.6166666666667" type="line"/>
      <point x="341.82000000000005" y="913.46" type="line"/>
      <point x="669.9300000000001" y="913.46" type="line"/>
      <point x="716.8299999999999" y="836.7133333333334" type="line"/>
      <point x="340.3866666666667" y="836.7133333333334" type="line"/>
      <point x="340.3866666666667" y="832.3533333333334" type="line"/>
    </contour>
    <contour>
      <point x="1258.5666666666666" y="1127.3133333333333" type="line"/>
      <point x="1088.4233333333334" y="1127.3133333333333" type="line"/>
      <point x="1088.4233333333334" y="1131.1466666666668" type="line"/>
      <point x="661.6133333333333" y="1131.1466666666668" type="line"/>
      <point x="613.2966666666666" y="1207.9133333333334" type="line"/>
      <point x="1083.5533333333333" y="1207.9133333333334" type="line"/>
      <point x="1083.5533333333333" y="1212.3133333333335" type="line"/>
      <point x="1283.3566666666668" y="1212.3133333333335" type="line"/>
    </contour>
    <contour>
      <point x="105.67333333333333" y="1127.05" type="line"/>
      <point x="81.88333333333334" y="1212.3133333333335" type="line"/>
      <point x="341.82000000000005" y="1212.3133333333335" type="line"/>
      <point x="341.82000000000005" y="1207.9133333333334" type="line"/>
      <point x="613.2966666666666" y="1207.9133333333334" type="line"/>
      <point x="661.6133333333333" y="1131.1666666666667" type="line"/>
      <point x="340.3866666666667" y="1131.1666666666667" type="line"/>
      <point x="340.3866666666667" y="1127.05" type="line"/>
    </contour>
  </outline>
</glyph>
<glyph name="rupeeIndian" format="2">
  <advance width="1060"/>
  <unicode hex="20B9"/>
  <outline>
    <contour>
      <point x="-13.266666666666666" y="1505.4" type="line"/>
      <point x="514.4466666666666" y="1495.0" type="line"/>
      <point x="1078.3999999999999" y="1506.9666666666667" type="line"/>
      <point x="1038.6399999999999" y="1412.3" type="line"/>
      <point x="684.98" y="1419.1333333333334" type="line"/>
      <point x="726.7766666666666" y="1376.1333333333334"/>
      <point x="786.2066666666667" y="1233.6166666666666"/>
      <point x="786.2066666666667" y="1149.0" type="qcurve" smooth="yes"/>
      <point x="786.2066666666667" y="994.0"/>
      <point x="604.3066666666666" y="779.0"/>
      <point x="472.1066666666666" y="748.0" type="qcurve"/>
      <point x="576.9966666666667" y="675.6833333333334"/>
      <point x="711.63" y="455.2166666666667"/>
      <point x="760.67" y="333.56666666666666" type="qcurve" smooth="yes"/>
      <point x="827.8166666666667" y="167.51666666666665"/>
      <point x="948.0400000000001" y="66.7"/>
      <point x="1069.5066666666667" y="84.16666666666666" type="qcurve"/>
      <point x="1069.5066666666667" y="20.0" type="line"/>
      <point x="931.0333333333333" y="-6.0" type="line"/>
      <point x="824.6733333333333" y="1.0"/>
      <point x="726.3866666666668" y="123.18666666666667"/>
      <point x="664.4833333333333" y="281.1666666666667" type="qcurve" smooth="yes"/>
      <point x="589.9866666666667" y="471.8566666666667"/>
      <point x="437.92" y="684.45"/>
      <point x="326.52000000000004" y="735.0333333333333" type="qcurve"/>
      <point x="127.87333333333333" y="727.7666666666667" type="line"/>
      <point x="101.05333333333334" y="809.1666666666666" type="line"/>
      <point x="365.4533333333333" y="809.1666666666666" type="line" smooth="yes"/>
      <point x="520.5133333333333" y="809.1666666666666"/>
      <point x="683.1533333333334" y="1005.0"/>
      <point x="683.1533333333334" y="1137.0" type="qcurve" smooth="yes"/>
      <point x="683.1533333333334" y="1237.0333333333333"/>
      <point x="595.26" y="1400.1333333333334"/>
      <point x="516.74" y="1426.1333333333334" type="qcurve"/>
      <point x="25.493333333333332" y="1419.3" type="line"/>
    </contour>
    <contour>
      <point x="734.3333333333333" y="1128.5" type="line"/>
      <point x="734.3333333333333" y="1137.7666666666667" type="line"/>
      <point x="998.91" y="1145.1333333333334" type="line"/>
      <point x="962.7333333333332" y="1058.6000000000001" type="line"/>
      <point x="718.8466666666667" y="1051.2333333333333" type="line"/>
      <point x="718.8466666666667" y="1059.5" type="line"/>
      <point x="45.373333333333335" y="1056.5" type="line"/>
      <point x="6.613333333333333" y="1145.3333333333333" type="line"/>
    </contour>
  </outline>
</glyph>
<glyph name="manat" format="2">
  <advance width="1326"/>
  <unicode hex="20BC"/>
  <outline>
    <contour>
      <point x="1312.45" y="66.22" type="line"/>
      <point x="1312.45" y="0.0" type="line"/>
      <point x="860.4333333333334" y="0.0" type="line"/>
      <point x="860.4333333333334" y="66.22" type="line"/>
      <point x="1036.6333333333332" y="95.94000000000001" type="line"/>
      <point x="1041.6333333333332" y="506.0" type="line"/>
      <point x="1037.6333333333332" y="988.35" type="line" smooth="yes"/>
      <point x="1035.6333333333332" y="1180.35"/>
      <point x="834.5666666666666" y="1348.55"/>
      <point x="655.9666666666666" y="1348.55" type="qcurve" smooth="yes"/>
      <point x="495.3666666666667" y="1348.55"/>
      <point x="287.4833333333333" y="1165.35"/>
      <point x="286.2" y="968.35" type="qcurve" smooth="yes"/>
      <point x="284.2" y="506.0" type="line"/>
      <point x="286.2" y="95.94000000000001" type="line"/>
      <point x="480.56666666666666" y="66.22" type="line"/>
      <point x="480.56666666666666" y="0.0" type="line"/>
      <point x="13.75" y="0.0" type="line"/>
      <point x="13.75" y="66.22" type="line"/>
      <point x="191.35" y="95.94000000000001" type="line"/>
      <point x="193.35" y="506.0" type="line"/>
      <point x="191.06666666666666" y="907.0" type="line" smooth="yes"/>
      <point x="189.78333333333333" y="1167.0"/>
      <point x="432.1666666666667" y="1431.0"/>
      <point x="663.8" y="1431.0" type="qcurve" smooth="yes"/>
      <point x="908.4166666666666" y="1431.0"/>
      <point x="1145.9933333333333" y="1179.5"/>
      <point x="1144.8500000000001" y="940.5" type="qcurve" smooth="yes"/>
      <point x="1142.8500000000001" y="506.0" type="line"/>
      <point x="1144.8500000000001" y="95.94000000000001" type="line"/>
    </contour>
    <contour>
      <point x="610.75" y="260.2" type="line"/>
      <point x="620.4833333333332" y="662.0" type="line"/>
      <point x="621.7666666666667" y="1350.0" type="line"/>
      <point x="604.3333333333333" y="1537.2466666666667" type="line"/>
      <point x="719.5" y="1600.0" type="line"/>
      <point x="702.35" y="1350.0" type="line"/>
      <point x="704.9166666666667" y="762.0" type="line"/>
      <point x="719.5" y="322.8333333333333" type="line"/>
    </contour>
  </outline>
</glyph>
<glyph name="numero" format="2">
  <advance width="2156"/>
  <unicode hex="2116"/>
  <outline>
    <contour>
      <point x="46.68" y="0.0" type="line"/>
      <point x="46.68" y="62.653333333333336" type="line"/>
      <point x="244.84" y="92.61666666666667" type="line"/>
      <point x="257.3366666666667" y="753.2833333333333" type="line"/>
      <point x="264.7033333333333" y="1406.6166666666668" type="line"/>
      <point x="76.81333333333333" y="1434.1366666666665" type="line"/>
      <point x="76.81333333333333" y="1500.0" type="line"/>
      <point x="403.29333333333335" y="1500.0" type="line"/>
      <point x="762.6133333333333" y="815.7833333333333" type="line"/>
      <point x="1080.7266666666667" y="211.0" type="line"/>
      <point x="1071.4099999999999" y="751.85" type="line"/>
      <point x="1061.6" y="1403.7199999999998" type="line"/>
      <point x="835.1866666666667" y="1434.1366666666665" type="line"/>
      <point x="835.1866666666667" y="1500.0" type="line"/>
      <point x="1342.3433333333332" y="1500.0" type="line"/>
      <point x="1342.3433333333332" y="1434.1366666666665" type="line"/>
      <point x="1147.1999999999998" y="1403.7199999999998" type="line"/>
      <point x="1151.5166666666667" y="753.2833333333333" type="line"/>
      <point x="1169.5633333333333" y="0.0" type="line"/>
      <point x="1083.4" y="0.0" type="line"/>
      <point x="670.3433333333332" y="774.8166666666667" type="line"/>
      <point x="346.9466666666667" y="1379.5666666666666" type="line"/>
      <point x="337.4433333333333" y="754.7166666666667" type="line"/>
      <point x="331.07666666666665" y="92.61666666666667" type="line"/>
      <point x="545.39" y="62.653333333333336" type="line"/>
      <point x="545.39" y="0.0" type="line"/>
    </contour>
    <contour>
      <point x="1332.9733333333334" y="1024.7" type="qcurve" smooth="yes"/>
      <point x="1332.9733333333334" y="1214.0500000000002"/>
      <point x="1538.4933333333333" y="1520.5666666666666"/>
      <point x="1706.0266666666666" y="1520.5666666666666" type="qcurve" smooth="yes"/>
      <point x="1876.56" y="1520.5666666666666"/>
      <point x="2082.1633333333334" y="1231.6166666666668"/>
      <point x="2082.1633333333334" y="1029.9833333333333" type="qcurve" smooth="yes"/>
      <point x="2082.1633333333334" y="834.75"/>
      <point x="1875.26" y="527.6833333333334"/>
      <point x="1706.99" y="527.6833333333334" type="qcurve" smooth="yes"/>
      <point x="1536.4566666666667" y="527.6833333333334"/>
      <point x="1332.9733333333334" y="821.35"/>
    </contour>
    <contour>
      <point x="1440.2966666666666" y="1037.3833333333334" type="qcurve" smooth="yes"/>
      <point x="1441.2966666666666" y="856.7166666666667"/>
      <point x="1587.94" y="588.85"/>
      <point x="1704.0466666666666" y="588.85" type="qcurve" smooth="yes"/>
      <point x="1829.3766666666668" y="588.85"/>
      <point x="1968.6966666666667" y="841.3166666666667"/>
      <point x="1968.6966666666667" y="1028.9833333333333" type="qcurve" smooth="yes"/>
      <point x="1968.6966666666667" y="1204.3666666666666"/>
      <point x="1821.1333333333334" y="1452.4"/>
      <point x="1705.0466666666666" y="1452.4" type="qcurve" smooth="yes"/>
      <point x="1579.6966666666667" y="1452.4"/>
      <point x="1440.0333333333333" y="1217.7666666666667"/>
    </contour>
    <contour>
      <point x="1437.1399999999999" y="384.34" type="qcurve" smooth="yes"/>
      <point x="1437.1399999999999" y="406.15666666666664"/>
      <point x="1590.2966666666666" y="436.3833333333333"/>
      <point x="1709.0266666666666" y="436.3833333333333" type="qcurve" smooth="yes"/>
      <point x="1828.4733333333334" y="436.3833333333333"/>
      <point x="1980.1966666666667" y="406.15666666666664"/>
      <point x="1980.1966666666667" y="384.34" type="qcurve" smooth="yes"/>
      <point x="1980.1966666666667" y="364.24"/>
      <point x="1828.4733333333334" y="332.2966666666666"/>
      <point x="1709.0266666666666" y="332.2966666666666" type="qcurve" smooth="yes"/>
      <point x="1590.2966666666666" y="332.2966666666666"/>
      <point x="1437.1399999999999" y="364.24"/>
    </contour>
  </outline>
</glyph>
<glyph name="minus" format="2">
  <advance width="993"/>
  <unicode hex="2212"/>
  <outline>
    <contour>
      <point x="91.88333333333334" y="585.5633333333333" type="line"/>
      <point x="91.88333333333334" y="678.4366666666667" type="line"/>
      <point x="901.0033333333333" y="678.4366666666667" type="line"/>
      <point x="901.0033333333333" y="585.5633333333333" type="line"/>
    </contour>
  </outline>
</glyph>
<glyph name="approxequal" format="2">
  <advance width="1020"/>
  <unicode hex="2248"/>
  <outline>
    <contour>
      <point x="64.51666666666667" y="742.14" type="line"/>
      <point x="121.26" y="815.6099999999999"/>
      <point x="264.7066666666667" y="908.8566666666667"/>
      <point x="352.3466666666667" y="908.8566666666667" type="qcurve"/>
      <point x="693.9666666666666" y="779.1333333333333" type="line"/>
      <point x="753.7266666666666" y="779.1333333333333"/>
      <point x="866.8666666666667" y="859.6866666666666"/>
      <point x="899.7266666666666" y="913.5866666666667" type="qcurve"/>
      <point x="951.3833333333333" y="881.0366666666666" type="line"/>
      <point x="907.3166666666666" y="797.3233333333333"/>
      <point x="760.3133333333334" y="688.8533333333332"/>
      <point x="657.52" y="688.8533333333332" type="qcurve"/>
      <point x="324.4666666666667" y="815.5933333333332" type="line"/>
      <point x="263.7066666666667" y="815.5933333333332"/>
      <point x="158.2" y="756.6966666666666"/>
      <point x="105.72" y="702.6466666666666" type="qcurve"/>
    </contour>
    <contour>
      <point x="64.51666666666667" y="379.3833333333333" type="line"/>
      <point x="121.26" y="452.85333333333335"/>
      <point x="264.7066666666667" y="546.0"/>
      <point x="352.3466666666667" y="546.0" type="qcurve"/>
      <point x="693.9666666666666" y="416.2766666666667" type="line"/>
      <point x="753.7266666666666" y="416.2766666666667"/>
      <point x="866.8666666666667" y="496.93"/>
      <point x="899.7266666666666" y="550.83" type="qcurve"/>
      <point x="951.3833333333333" y="518.28" type="line"/>
      <point x="907.3166666666666" y="434.56666666666666"/>
      <point x="760.3133333333334" y="325.99666666666667"/>
      <point x="657.52" y="325.99666666666667" type="qcurve"/>
      <point x="324.4666666666667" y="452.7366666666667" type="line"/>
      <point x="263.7066666666667" y="452.7366666666667"/>
      <point x="158.2" y="393.94"/>
      <point x="105.72" y="339.89" type="qcurve"/>
    </contour>
  </outline>
</glyph>
<glyph name="lessequal" format="2">
  <advance width="993"/>
  <unicode hex="2264"/>
  <outline>
    <contour>
      <point x="140.88333333333333" y="45.79666666666667" type="line"/>
      <point x="140.88333333333333" y="138.67" type="line"/>
      <point x="862.5366666666666" y="138.67" type="line"/>
      <point x="862.5366666666666" y="45.79666666666667" type="line"/>
    </contour>
    <contour>
      <point x="170.83333333333334" y="673.2800000000001" type="qcurve"/>
      <point x="170.89333333333335" y="673.36"/>
      <point x="642.8366666666667" y="1029.6933333333332"/>
      <point x="714.6333333333333" y="1086.5766666666666" type="qcurve" smooth="yes"/>
      <point x="752.4433333333333" y="1115.9433333333332"/>
      <point x="798.4966666666667" y="1055.4333333333332"/>
      <point x="762.1766666666667" y="1024.1966666666665" type="qcurve" smooth="yes"/>
      <point x="625.4766666666666" y="911.09"/>
      <point x="323.5733333333333" y="679.8033333333334"/>
      <point x="305.87666666666667" y="673.2666666666668" type="qcurve"/>
      <point x="322.1333333333333" y="666.67"/>
      <point x="627.2433333333333" y="435.46"/>
      <point x="761.27" y="320.83" type="qcurve"/>
      <point x="797.59" y="289.37"/>
      <point x="753.1999999999999" y="229.57"/>
      <point x="715.1066666666667" y="258.24" type="qcurve" smooth="yes"/>
      <point x="643.5733333333334" y="315.6166666666667"/>
      <point x="170.87333333333333" y="673.22"/>
    </contour>
  </outline>
</glyph>
<glyph name="leftanglebracket" format="2">
  <advance width="944"/>
  <unicode hex="27E8"/>
  <outline>
    <contour>
      <point x="898.1333333333333" y="1502.2333333333333" type="line"/>
      <point x="940.7166666666666" y="1459.35" type="line"/>
      <point x="128.95" y="711.5333333333333" type="line"/>
      <point x="944.4466666666666" y="-107.36666666666667" type="line"/>
      <point x="895.1233333333333" y="-158.30666666666667" type="line"/>
      <point x="24.6" y="669.9" type="line"/>
      <point x="24.6" y="753.1" type="line"/>
    </contour>
  </outline>
</glyph>
<glyph name="rightanglebracket" format="2">
  <advance width="944"/>
  <unicode hex="27E9"/>
  <outline>
    <contour>
      <point x="45.49666666666667" y="-158.30666666666667" type="line"/>
      <point x="1.4400000000000002" y="-111.58000000000001" type="line"/>
      <point x="815.3566666666667" y="690.7299999999999" type="line"/>
      <point x="2.01" y="1455.1366666666665" type="line"/>
      <point x="49.86" y="1502.2333333333333" type="line"/>
      <point x="919.7066666666666" y="731.5066666666667" type="line"/>
      <point x="919.7066666666666" y="648.3066666666666" type="line"/>
    </contour>
  </outline>
</glyph>
<glyph name="f_f_l" format="2">
  <advance width="1795"/>
  <unicode hex="FB04"/>
  <outline>
    <contour>
      <point x="51.13333333333333" y="0.0" type="line"/>
      <point x="51.13333333333333" y="51.33333333333333" type="line"/>
      <point x="246.8" y="80.6" type="line"/>
      <point x="250.95" y="527.0" type="line"/>
      <point x="250.1" y="901.7266666666667" type="line"/>
      <point x="64.97333333333334" y="917.17" type="line"/>
      <point x="59.33333333333333" y="974.6" type="line"/>
      <point x="251.38333333333333" y="989.0166666666667" type="line"/>
      <point x="251.76000000000002" y="1253.9566666666667" type="line" smooth="yes"/>
      <point x="252.57" y="1362.4033333333332"/>
      <point x="380.57" y="1483.6133333333335"/>
      <point x="466.33666666666664" y="1483.6133333333335" type="qcurve" smooth="yes"/>
      <point x="503.95666666666665" y="1483.6133333333335"/>
      <point x="576.02" y="1463.4066666666668"/>
      <point x="601.49" y="1448.3633333333335" type="qcurve" smooth="yes"/>
      <point x="615.8033333333334" y="1440.89" type="line"/>
      <point x="603.3866666666667" y="1377.6866666666667" type="line"/>
      <point x="589.8833333333333" y="1382.5166666666667" type="line" smooth="yes"/>
      <point x="570.2333333333333" y="1390.1933333333334"/>
      <point x="517.7266666666666" y="1400.1399999999999"/>
      <point x="488.33" y="1400.1399999999999" type="qcurve" smooth="yes"/>
      <point x="418.93" y="1400.1399999999999"/>
      <point x="349.34666666666664" y="1314.1533333333332"/>
      <point x="349.61" y="1237.83" type="qcurve" smooth="yes"/>
      <point x="350.13666666666666" y="985.0" type="line"/>
      <point x="847.7266666666667" y="984.98" type="line"/>
      <point x="848.82" y="1274.92" type="line" smooth="yes"/>
      <point x="849.1033333333334" y="1390.6033333333335"/>
      <point x="984.2466666666667" y="1517.9866666666665"/>
      <point x="1086.4966666666667" y="1517.9866666666665" type="qcurve" smooth="yes"/>
      <point x="1107.93" y="1517.9866666666665"/>
      <point x="1164.9366666666665" y="1512.1366666666665"/>
      <point x="1188.9199999999998" y="1505.3" type="qcurve" smooth="yes"/>
      <point x="1228.9433333333334" y="1494.4966666666667" type="line"/>
      <point x="1515.4033333333332" y="1516.0833333333333" type="line"/>
      <point x="1536.5366666666666" y="1511.9733333333334" type="line"/>
      <point x="1549.6033333333332" y="1488.12" type="line"/>
      <point x="1548.32" y="527.0" type="line"/>
      <point x="1552.47" y="80.6" type="line"/>
      <point x="1732.3833333333332" y="53.483333333333334" type="line"/>
      <point x="1732.3833333333332" y="0.0" type="line"/>
      <point x="1262.97" y="0.0" type="line"/>
      <point x="1262.97" y="53.483333333333334" type="line"/>
      <point x="1445.06" y="80.6" type="line"/>
      <point x="1447.7966666666666" y="527.0" type="line"/>
      <point x="1446.4933333333333" y="1414.6666666666665" type="line"/>
      <point x="1201.7733333333335" y="1432.8466666666668" type="line" smooth="yes"/>
      <point x="1188.0033333333333" y="1434.13"/>
      <point x="1139.7" y="1436.6233333333334"/>
      <point x="1108.5900000000001" y="1436.6233333333334" type="qcurve" smooth="yes"/>
      <point x="1026.1733333333334" y="1436.6233333333334"/>
      <point x="946.67" y="1343.7766666666666"/>
      <point x="946.67" y="1258.5933333333332" type="qcurve" smooth="yes"/>
      <point x="947.1966666666667" y="985.0" type="line"/>
      <point x="1192.9333333333334" y="985.0" type="line"/>
      <point x="1192.9333333333334" y="913.0400000000001" type="line"/>
      <point x="946.48" y="910.0233333333333" type="line"/>
      <point x="946.35" y="527.0" type="line"/>
      <point x="953.0433333333334" y="80.6" type="line"/>
      <point x="1145.6033333333335" y="51.33333333333333" type="line"/>
      <point x="1145.6033333333335" y="0.0" type="line"/>
      <point x="655.4966666666666" y="0.0" type="line"/>
      <point x="655.4966666666666" y="51.33333333333333" type="line"/>
      <point x="843.1633333333333" y="80.6" type="line"/>
      <point x="847.3133333333333" y="527.0" type="line"/>
      <point x="846.4633333333333" y="896.52" type="line"/>
      <point x="835.5866666666667" y="909.4966666666667" type="line"/>
      <point x="350.13666666666666" y="911.34" type="line"/>
      <point x="349.9866666666667" y="527.0" type="line"/>
      <point x="356.68" y="80.6" type="line"/>
      <point x="546.47" y="51.33333333333333" type="line"/>
      <point x="546.47" y="0.0" type="line"/>
    </contour>
  </outline>
</glyph>
<glyph name="acutecombstack.case" format="2">
  <advance width="1024"/>
  <outline>
    <contour>
      <point x="730.11" y="1834.81" type="qcurve" smooth="yes"/>
      <point x="730.11" y="1814.8433333333332"/>
      <point x="704.8433333333334" y="1780.1766666666665"/>
      <point x="686.1433333333333" y="1764.4933333333333" type="qcurve" smooth="yes"/>
      <point x="446.1766666666667" y="1578.8933333333332" type="line"/>
      <point x="406.06" y="1614.11" type="line"/>
      <point x="582.1266666666667" y="1823.6599999999999" type="line" smooth="yes"/>
      <point x="601.5433333333334" y="1849.7433333333333"/>
      <point x="648.1433333333333" y="1889.4266666666665"/>
      <point x="676.0600000000001" y="1889.4266666666665" type="qcurve" smooth="yes"/>
      <point x="697.8933333333333" y="1889.4266666666665"/>
      <point x="730.11" y="1859.0433333333333"/>
    </contour>
  </outline>
</glyph>
<glyph name="breve.cyr.case" format="2">
  <advance width="1024"/>
  <outline>
    <contour>
      <point x="512.0" y="1701.04" type="qcurve" smooth="yes"/>
      <point x="607.7217918313661" y="1701.04"/>
      <point x="726.285509505444" y="1796.5946189983465"/>
      <point x="756.92" y="1910.5" type="qcurve"/>
      <point x="873.6133333333333" y="1845.12" type="line"/>
      <point x="826.8205738673853" y="1733.0560088757752"/>
      <point x="636.2284245439394" y="1625.1066666666668"/>
      <point x="512.0" y="1625.1066666666668" type="qcurve" smooth="yes"/>
      <point x="387.77157545606065" y="1625.1066666666668"/>
      <point x="196.18666666666667" y="1732.0633333333333"/>
      <point x="150.38666666666666" y="1845.12" type="qcurve"/>
      <point x="267.08" y="1910.5" type="line"/>
      <point x="297.453397190923" y="1797.5940759880807"/>
      <point x="416.278208168634" y="1701.04"/>
    </contour>
  </outline>
</glyph>
<glyph name="breve.cyr" format="2">
  <advance width="1022"/>
  <outline>
    <contour>
      <point x="511.02" y="1155.3266666666668" type="qcurve" smooth="yes"/>
      <point x="385.4275362318833" y="1155.3266666666668"/>
      <point x="215.06791682119666" y="1272.526441867876"/>
      <point x="172.83333333333334" y="1418.1666666666667" type="qcurve"/>
      <point x="294.9" y="1458.78" type="line"/>
      <point x="316.86997897388" y="1335.7764365345267"/>
      <point x="415.9842834138317" y="1230.4366666666667"/>
      <point x="511.02" y="1230.4366666666667" type="qcurve" smooth="yes"/>
      <point x="606.0557165861684" y="1230.4366666666667"/>
      <point x="705.8883309845133" y="1335.7650849359002"/>
      <point x="727.14" y="1458.78" type="qcurve"/>
      <point x="849.2066666666666" y="1418.1666666666667" type="line"/>
      <point x="806.2554165121367" y="1272.526441867876"/>
      <point x="636.6124637681166" y="1155.3266666666668"/>
    </contour>
  </outline>
</glyph>
